<?xml version="1.0" encoding="UTF-8"?>
<svg width="32mm" height="31mm" version="1.1" viewBox="0 0 113.38582 109.84252" xmlns="http://www.w3.org/2000/svg" xmlns:xlink="http://www.w3.org/1999/xlink">
 <defs>
  <pattern id="h" patternTransform="matrix(.5 0 0 .575 -11.425 5.9971)" xlink:href="#a"/>
  <pattern id="g" patternTransform="matrix(.975 0 0 1 .46318 -.63199)" xlink:href="#a"/>
  <pattern id="f" patternTransform="matrix(.87832 0 0 .98439 .46318 -.63199)" xlink:href="#a"/>
  <pattern id="a" width="10" height="10" patternTransform="translate(0) scale(10)" patternUnits="userSpaceOnUse">
   <circle cx="2.567" cy=".81" r=".45"/>
   <circle cx="3.048" cy="2.33" r=".45"/>
   <circle cx="4.418" cy="2.415" r=".45"/>
   <circle cx="1.844" cy="3.029" r=".45"/>
   <circle cx="6.08" cy="1.363" r=".45"/>
   <circle cx="5.819" cy="4.413" r=".45"/>
   <circle cx="4.305" cy="4.048" r=".45"/>
   <circle cx="5.541" cy="3.045" r=".45"/>
   <circle cx="4.785" cy="5.527" r=".45"/>
   <circle cx="2.667" cy="5.184" r=".45"/>
   <circle cx="7.965" cy="1.448" r=".45"/>
   <circle cx="7.047" cy="5.049" r=".45"/>
   <circle cx="4.34" cy=".895" r=".45"/>
   <circle cx="7.125" cy=".34" r=".45"/>
   <circle cx="9.553" cy="1.049" r=".45"/>
   <circle cx="7.006" cy="2.689" r=".45"/>
   <circle cx="8.909" cy="2.689" r=".45"/>
   <circle cx="9.315" cy="4.407" r=".45"/>
   <circle cx="7.82" cy="3.87" r=".45"/>
   <circle cx="8.27" cy="5.948" r=".45"/>
   <circle cx="7.973" cy="7.428" r=".45"/>
   <circle cx="9.342" cy="8.072" r=".45"/>
   <circle cx="8.206" cy="9.315" r=".45"/>
   <circle cx="9.682" cy="9.475" r=".45"/>
   <circle cx="9.688" cy="6.186" r=".45"/>
   <circle cx="3.379" cy="6.296" r=".45"/>
   <circle cx="2.871" cy="8.204" r=".45"/>
   <circle cx="4.59" cy="8.719" r=".45"/>
   <circle cx="3.181" cy="9.671" r=".45"/>
   <circle cx="5.734" cy="7.315" r=".45"/>
   <circle cx="6.707" cy="6.513" r=".45"/>
   <circle cx="5.73" cy="9.67" r=".45"/>
   <circle cx="6.535" cy="8.373" r=".45"/>
   <circle cx="4.37" cy="7.154" r=".45"/>
   <circle cx=".622" cy="7.25" r=".45"/>
   <circle cx=".831" cy="5.679" r=".45"/>
   <circle cx="1.257" cy="8.519" r=".45"/>
   <circle cx="1.989" cy="6.877" r=".45"/>
   <circle cx=".374" cy="3.181" r=".45"/>
   <circle cx="1.166" cy="1.664" r=".45"/>
   <circle cx="1.151" cy=".093" r=".45"/>
   <circle cx="1.151" cy="10.093" r=".45"/>
   <circle cx="1.302" cy="4.451" r=".45"/>
   <circle cx="3.047" cy="3.763" r=".45"/>
  </pattern>
  <radialGradient id="i" cx="60.265" cy="88.768" r="45.211" gradientTransform="matrix(1.5813 -2.1441 .9823 .72446 -114.64 161.37)" gradientUnits="userSpaceOnUse">
   <stop stop-color="#fef6f6" offset="0"/>
   <stop stop-color="#fef6f6" offset=".7197"/>
   <stop stop-color="#dadada" offset=".88638"/>
   <stop stop-color="#beb2b2" offset="1"/>
  </radialGradient>
 </defs>
 <g transform="translate(3.4085 .49383)">
  <path d="m36.276 89.605-1.0625 6.5c-1.0922 1.6458-2.4887 3.2917-1.5 4.9375 1.4417-0.81666 2.2617-1.0117 2.875-1 1.1168 1.485 2.2444 2.9212 3.6875 2.9375h7.5625l3.875-1.625c-0.73462-1.2173-1.6706-1.2263-2.5625-1.5-2.6589 0.1236-5.4313-0.0365-8.75-1.5625 0.64-1.1042 0.17909-2.2083-0.5-3.3125l0.3125-5.25z" fill="#e19c3f" fill-rule="evenodd" stroke="#f00" stroke-width=".29055"/>
  <path d="m36.875 88.585-1.959 0.82812c0.75683 1.9658 0.0565 4.073-0.45532 6.0072-0.14866 0.76592-0.47846 1.4547-0.90781 2.1015-0.66518 1.0844-1.392 2.0978-0.8596 3.3236 0.14511 0.19433 0.65984 1.3149 0.95869 1.179 1.5563-1.5817 1.6593-0.99598 2.3871-1.2009 0.52743 0.98516 1.0288 1.92 2.1046 2.2642 0.63283 0.2336 1.2242 0.57842 1.9171 0.59818 2.8001 0.41339 5.6516 0.13243 8.4281-0.30579 0.49099-0.17751 1.6393-0.83957 2.1338-0.96296 0.62933 0.14073 0.7606 0.33469 1.3978 0.41144 0.98598 0.099 1.0865-0.13327 0.64613-1.0702-0.37129-0.85936-0.47038-1.046-1.1371-1.6719-1.1846-0.40788-2.534-1.3729-3.6174-0.6675 0.89598-0.28089-1.5539-0.18378-1.8931-0.20768-2.1351 0.13354-2.9095-0.62992-4.7414-1.7182 0.24116-0.78309 0.04531-1.2918-0.36824-2.0239-0.58323-0.94148 0.16848-2.0545 0.11925-3.0887 0.09813-1.0857 0.09549-2.3987-0.42566-3.2974l-1.339 0.39891c0.49792 1.5058 0.22616 2.893 0.03275 4.4146-0.06404 0.35158-0.33129 1.3406 0.01662 1.5863 0.79377 0.89125 0.52017 1.8379 0.3339 2.8558-0.22199 0.3679 1.0315 0.6172 1.3183 0.76525 3.1466 1.6243 8.0211 1.029 9.2642 2.2082-2.504 1.3403-7.763 1.8943-10.386 0.1731-0.87314-0.41155-1.9941-0.62659-2.4128-1.6136-0.29653-0.59369-0.51609-1.2216-0.77082-1.8337-0.0219 0.61133-1.3617 2.2681-2.3766 2.0734-0.56985-1.1956 0.94291-3.0837 1.4776-3.819 0.78402-2.5246 2.2186-5.1432 1.1138-7.7075z" color="#000000" color-rendering="auto" fill="#7d4b00" fill-rule="evenodd" image-rendering="auto" shape-rendering="auto" solid-color="#000000" style="block-progression:tb;isolation:auto;mix-blend-mode:normal;text-decoration-color:#000000;text-decoration-line:none;text-decoration-style:solid;text-indent:0;text-transform:none;white-space:normal"/>
  <path d="m50.276 86.98c0.83959 3.2802 2.5435 7.857 1.875 8.875l-0.375 5.6875 0.875 2.375 13.312 0.4375 1.375-0.5625c1.4733-0.0814 2.6479-0.0632 3.125 0.1875-0.08199-0.58333-1.1908-1.3542-1.9375-1.9375l-1.4375-1.4375-4.0625 0.125c-1.8271 0.6789-3.5259 0.33239-5.1875-0.3125-0.10404-1.7605-0.49612-3.3769-2.25-4.3125l-0.125-8.75c-1.9017 0.90993-3.6191 0.71456-5.1875-0.375z" fill="#e19c3f" fill-rule="evenodd" stroke="#f00" stroke-width=".29055"/>
  <path d="m89.588 5.1047 1.4062 2.9688-1.4062 2.4375 1.7188 2.9688-1.25 3.625c0.4714 1.0388 1.1921 0.83107 1.8125 1.125l5.1562-0.78125c1.0522-0.34606 3.5041 0.38455 5.5625 0.8125 0.47917-0.09683 0.95833 0.16673 1.4375-0.53125 0 0-0.21875-0.90625-0.0625-1.1562s1.7188-1.6562 0.75-2.3438l-6.7813-3.2188c-1.8274-0.95658-2.7891-2.6214-3.7188-4.3125-0.72075-0.7051-1.0569-1.5304-3.0312-1.8438z" fill="#867e7e" fill-rule="evenodd" stroke="#f00" stroke-width=".29055"/>
  <path d="m89.833 4.8426 1.4062 2.9688-1.4062 2.4375 1.7188 2.9688-1.25 3.625c0.47141 1.0388 1.1921 0.83107 1.8125 1.125l5.1562-0.78125c1.0522-0.34606 3.5041 0.38455 5.5625 0.8125 0.47917-0.09683 0.95833 0.16673 1.4375-0.53125 0 0-0.21875-0.90625-0.0625-1.1562s1.7188-1.6562 0.75-2.3438l-6.7813-3.2188c-1.8274-0.95658-2.7891-2.6214-3.7187-4.3125-0.72075-0.7051-1.057-1.5304-3.0312-1.8438z" fill="url(#h)" fill-rule="evenodd" opacity=".299" stroke="#f00" stroke-width=".29055"/>
  <path d="m90.713 18.167-3.375 1.75-6.25 1.25c-2.6368 2.9354-3.2927 5.7292-3.625 8.5-0.0013 4.6616 0.22009 9.1642 1.375 13l4.75 16.375c0.80193 6.3473-1.3099 10.546-3.4375 13.062-2.1493 2.3999-5.1649 4.3695-8.3125 5.9375-3.9128 1.0115-7.5872 2.7385-11 5.25l-5 3.75c-1.8194 0.63844-3.5963 0.8096-5.25-0.375l-0.1875 2.375-5.4375 1.75-3.875-1.875-4.25 0.75c-3.8354-1.1797-7.5813-3.6122-11.25-7.125-2.0782-3.4541-3.5582-7.3868-6.375-10.25-2.9809-2.56-6.1868-3.4326-9.5-3.5l-5.875 2 2.375-4.25-2.875 0.875 1.5-1.625-3.375-0.875 1.75-1c3.796-0.64642 7.6143-1.4046 11.25-1.25l3.375-1.75-3.5-0.5c-3.0149 0.62793-5.683 0.21562-8.375-0.125 0.24583-0.7776 1.0467-1.3471 2.625-1.625l9-3.25 7 0.125 4.375-2.125 10.375-0.875s8.75-2.375 9.5-2.375 12.875-0.875 12.875-0.875c3.6726-1.4447 4.0168-3.6725 5-5.75 0.75839-4.0874 1.2371-8.5012 1-13.75-0.13892-3.7273 0.43272-7.6483 2.125-11.875 1.6557-4.2489 4.3793-7.252 7-10.375 2.7917-2.0173 5.5833-2.6294 8.375-3l4.25 0.375 1.25 2.75-0.875 3.375 1.5 2.5-1.375 2.875z" fill="url(#i)" fill-rule="evenodd" stroke="#f00" stroke-width=".29055"/>
  <path d="m12.52 62.732c-0.71424-0.2067-9.5004 0.43929-9.8995 1.2374 0 0-1.5026 1.4142-1.2374 1.37 0.063073-0.51575 3.2531 4e-3 3.403 0.35355l-0.7955 1.5468c0.89861-0.35018 1.7972-0.73427 2.6958-0.39775-1.3496 1.1987-1.8351 2.274-2.3865 3.3588l7.6014-1.7236 4.552-0.17678 4.6404 0.57452c1.8224-0.45143 3.8379-0.80636 4.9939-1.591-1.0528-0.69002-2.2506-1.2061-3.8891-1.1932l-2.4307 0.53033c-0.41058-0.87042-1.1804-1.5013-2.2981-1.9004z" fill="#693d20" fill-rule="evenodd" stroke="#f00" stroke-width=".29055"/>
  <path d="m90.984 12.268s-4.064-1.8735-6.25-2.125c-2.1006-0.24163-4.4918-0.45021-6.3125 0.625-3.0701 1.8131-4.8821 5.4481-6.0625 8.8125-1.5283 4.3559-0.67969 9.2941-1.25 13.875-0.57507 4.6191-2.5107 9.0439-2.1875 13.688 0.18708 2.6881 2.5 7.6875 2.5 7.6875l-3.6875 5.5625c-0.055 5.7269-0.34475 11.347-4 15.438-3.542 3.9637-5.1737 1.469-7.375 2.9375-2.0099 1.3409-2.2751 3.472-4.5625 4.25-2.2315 0.75897-6.5379 0.26942-7.5-0.0625-1.9852-0.68491-3.6194-2.9665-3.75-5.0625-0.21122-3.3889 5.1875-8.5 5.1875-8.5-3.875-0.13156-7.75-1.4432-11.625-3.0625-1.8214 0.15226-3.5858 1.3314-5.5625-1.3125-2.027 0.16756-3.7366-0.77594-5.4375-1.75-3.1703-0.2297-5.1209-1.1456-5.625-2.875l-11.375-0.375 6.0625-2.75 5.3125-1.875 6.9375-0.125c2.6258-0.94959 4.8158-2.3895 8.6875-1.9375 5.2409-1.2067 10.473-2.4069 15.062-3.125-0.17213-0.15301 8.7548-0.56908 14.375-1.375 1.4496-0.20787 2.6396-1.5461 3.375-2.8125 2.0296-3.4952 1.7493-7.9133 2.125-11.938 0.3873-4.1488-0.91193-8.4642 0.125-12.5 1.1064-4.3062 3.2512-8.5257 6.3125-11.75 2.2141-2.332 5.1457-4.1613 8.25-5 2.3535-0.63588 7.3125-0.125 7.3125 0.125s0.875 2.625 0.875 2.625l-1.0625 2.9375z" fill="#693d20" fill-rule="evenodd"/>
  <path d="m12.705 62.666c-0.71424-0.2067-9.5004 0.43929-9.8995 1.2374 0 0-1.5026 1.4142-1.2374 1.37 0.063073-0.51575 3.2531 4e-3 3.403 0.35355l-0.7955 1.5468c0.89861-0.35018 1.7972-0.73427 2.6958-0.39775-1.3496 1.1987-1.8351 2.274-2.3865 3.3588l7.6014-1.7236 4.552-0.17678 4.6404 0.57452c1.8224-0.45143 3.8379-0.80636 4.9939-1.591-1.0528-0.69002-2.2506-1.2061-3.8891-1.1932l-2.4307 0.53033c-0.41058-0.87042-1.1804-1.5013-2.2981-1.9004z" fill="url(#g)" fill-rule="evenodd" opacity=".317" stroke="#f00" stroke-width=".29055"/>
  <path d="m90.776 12.417s-4.064-1.8735-6.25-2.125c-2.1006-0.24163-4.4918-0.45021-6.3125 0.625-3.0701 1.8131-4.8821 5.4481-6.0625 8.8125-1.5283 4.3559-0.67969 9.2941-1.25 13.875-0.57508 4.6191-2.5107 9.0439-2.1875 13.688 0.18708 2.6881 2.5 7.6875 2.5 7.6875l-3.6875 5.5625c-0.05501 5.7269-0.34476 11.347-4 15.438-3.542 3.9637-5.1737 1.469-7.375 2.9375-2.0099 1.3409-2.2751 3.472-4.5625 4.25-2.2315 0.75898-6.5379 0.26942-7.5-0.0625-1.9852-0.6849-3.6194-2.9665-3.75-5.0625-0.21122-3.3889 5.1875-8.5 5.1875-8.5-3.875-0.13156-7.75-1.4432-11.625-3.0625-1.8214 0.15226-3.5858 1.3314-5.5625-1.3125-2.027 0.16757-3.7366-0.77594-5.4375-1.75-3.1703-0.2297-5.1209-1.1455-5.625-2.875l-11.375-0.375 6.0625-2.75 5.3125-1.875 6.9375-0.125c2.6258-0.94959 4.8158-2.3895 8.6875-1.9375 5.2409-1.2067 10.473-2.4069 15.062-3.125-0.17213-0.15301 8.7548-0.56907 14.375-1.375 1.4496-0.20787 2.6396-1.5461 3.375-2.8125 2.0296-3.4951 1.7493-7.9133 2.125-11.938 0.3873-4.1488-0.91193-8.4642 0.125-12.5 1.1064-4.3062 3.2512-8.5257 6.3125-11.75 2.2141-2.332 5.1457-4.1613 8.25-5 2.3535-0.63588 7.3125-0.125 7.3125 0.125s0.875 2.625 0.875 2.625l-1.0625 2.9375z" fill="url(#f)" fill-rule="evenodd" opacity=".302"/>
  <path d="m87.391 10.774c-0.52734 0.49764-1.3562 0.48066-1.8628-0.03814-0.50653-0.5188-0.50366-1.3479 0.0065-1.8631 0.51013-0.51526 1.3391-0.52646 1.8945 0.00714 0.52016 0.56801 0.48911 1.3965-0.03822 1.8941z" fill="#fff"/>
  <path d="m66.698 49.868c-0.22156-0.01751-0.35713 0.02405-0.35938 0.13477-9e-3 0.44288 1.6066 1.4114 2.6562 2.3945 1.0155 0.95117 1.5661 2.1606 1.4141 2.748-0.1795 0.69348-1.2626 1.8267-2.5996 3.5312-1.4048 1.791-3.536 3.4466-4.8867 4.1035-1.3526 0.65784-3.0257 0.58501-4.8848 0.42774s-3.8841-0.40061-5.834 0.32617c-0.08474 0.03158-0.17238 0.0852-0.25781 0.12109-1.6335-0.58258-3.0451-1.7787-3.7695-3.3672-1.3036-0.22782-2.6006-0.81225-3.3535-1.9492-0.53081-0.75728-1.045-1.5273-1.6309-2.2441-1.332 0.59492-2.4023 1.3732-4.2305 0.98047-0.46544-0.22425-0.95658-0.90469-1.375-1.2031-1.1903 0.71256-3.1908 1.6576-4.5293 0.95703-0.67534-0.35276-1.8739-1.8582-0.62109-2.3359 0.31765-0.39678 1.6258-0.54872 1.2422-1.1973l-0.14062-0.73242c-1.2543 0.42143-2.6722 1.1334-3.0918 2.4883-0.27664 0.8618 0.35068 1.5725 0.93945 2.0977 0.16442 0.16581 0.34198 0.31431 0.5293 0.44727-1.6505 0.14318-3.268 0.2579-4.9551 0.72461-1.4612 0.40423-2.3814 1.2247-2.9062 2.0977-0.4308 0.71649-0.50172 1.6457-0.67188 2.3145-0.48191-0.30414-0.97068-0.58223-1.502-0.74414-1.5758-0.24095-3.0368-0.82266-4.4395-1.5664l-0.78125 1.5918c1.4627 0.74905 2.9957 1.4188 4.6348 1.6523 1.0752 0.2478 2.4768 1.0341 3.6699 1.4961 1.1243 0.83343 3.3428-0.32673 3.3809 1.4746 0.92649 1.5221 4.2666 0.75884 5.7891 0.66797 1.5376 0.53282 2.0138 1.0314 3.6191 1.4707 2.0848 0.5705 4.1817 1.212 6.3555 1.2773-1.8272 2.1785-3.9175 4.4996-4.1289 7.502-0.17948 2.5484 1.289 5.2069 3.7832 5.9316 1.8102 0.52598 5.2861 0.62046 5.3965 0.13867 0.11036-0.48179-3.7261-0.83448-5.5469-1.4355-2.1972-0.72534-2.3681-3.6949-1.8887-5.8789 0.43424-1.9781 2.1304-3.9194 3.4238-5.4453 1.0795-1.2736 2.2482-2.3681 3.4668-3.4746s3.1011-2.1638 4.1133-2.541c1.4316-0.5336 3.2771-0.0382 5.1602 0.12109 1.883 0.1593 3.9179 0.32286 5.8105-0.59766 1.9416-0.94432 3.7708-3.0412 5.2383-4.9121s2.394-3.1324 2.7832-4.4434c0.26927-0.90683-0.67432-2.4078-1.9551-3.6074-0.96057-0.89968-2.4017-1.4904-3.0664-1.543zm-29.182 7.4883c0.23513 0.01167 0.51541 0.24649 0.91016 0.92383 1.3287 0.52414 2.9609-0.43525 4.2852-0.91016 0.41731 0.67255 0.85433 1.5597 1.3789 2.3438-0.25793 0.19902-1.3775 1.0635-2.6738 2.0469-1.4384 1.0912-2.9749 2.1689-3.4023 2.4492-1.0728 0.70346-3.9652 1.6548-4.0352 1.6777-2e-3 -3.98e-4 -0.0038-0.0016-0.0059-2e-3 -1.3278 0.09705-2.7663 0.45474-4.043-0.04492-0.04678-0.24429-0.12672-0.57002-0.23047-0.89258 0.47331-0.64322 1.5509-1.9295 3.0742-2.6191 1.222-0.5532 4.6359-2.0717 4.5488-2.7598-0.08704-0.68804-3.8716 0.50724-5.2793 1.1445-2.1042 0.9526-3.4167 2.642-3.9062 3.3594-0.77205 0.36555-1.5876 0.55621-2.2012 0.25977-0.36817-0.17787-0.71807-0.38906-1.0586-0.61133-0.2528-1.0354 0.36894-1.8478 0.69531-2.3906 0.34308-0.5706 0.76136-0.99898 1.8594-1.3027 2.2224-0.61481 4.3925-1.1897 6.8125-1.627 0.72219 0.05485 1.4628-0.0329 2.1543-0.27344 0.45919-0.19203 0.72531-0.79093 1.1172-0.77148zm7.2402 3.2109c0.32464 0.34743 0.67998 0.63362 1.084 0.79688 1.0169 0.20167 1.593 0.84214 2.1426 1.6816 0.68298 0.77178 1.5188 1.1103 2.4355 1.4277-0.91158 0.5813-1.8098 1.278-2.6055 1.9434-1.0847 0.90701-1.8091 1.5994-2.082 1.8633-1.1338 0.12586-2.2602 0.09833-3.4043-0.12891-2.1045-0.41801-4.1315-1.1553-6.1914-1.7363 1.1331-0.32359 2.5057-0.77939 3.2949-1.2969 0.62256-0.40821 1.7894-0.98244 3.0566-2.2988 0.99277-1.0313 1.8674-1.8696 2.2695-2.252z" color="#000000" color-rendering="auto" fill="#3d2410" fill-rule="evenodd" image-rendering="auto" shape-rendering="auto" solid-color="#000000" style="block-progression:tb;isolation:auto;mix-blend-mode:normal;text-decoration-color:#000000;text-decoration-line:none;text-decoration-style:solid;text-indent:0;text-transform:none;white-space:normal"/>
  <path d="m11.528 62.331-0.21875 1.7578c1.3192-0.29189 2.6488-0.50152 3.7685 0.33478 0.31874 0.18798 1.0813 0.93923 1.4629 1.0133 0.93651 0.39176 1.664-0.06147 2.4649 0.62606 0.26653 0.26212 0.36106 1.0023 0.56155 1.3129 0.613-0.83623 4.6881-1.1538 5.8374-0.10413-1.3327 0.93763-5.9372 1.0206-7.4113 0.73943-0.51265-0.07315-1.682-0.58079-2.3648-0.56156-1.8624 0.0285-3.4513 0.17498-5.22 0.74293l-0.08755 1.1489c2.3699-0.361 4.7512-0.88378 7.3667-0.27162 2.6534 0.21779 5.3504 0.1337 7.7449-1.0786l1.7246-0.83203c-1.5779-0.68698-3.1477-1.5095-4.8954-1.6312-0.6238-0.05763-1.3855 0.41398-2.0087 0.47612-0.68516-0.83547-1.5708-1.7753-2.6236-1.9442-0.71291-0.03929-1.239-0.4511-1.7814-0.8616-1.0621-0.71072-2.3685-0.78714-3.6055-0.81361-0.23853-0.01067-0.47736-0.02419-0.7143-0.05369z" color="#000000" color-rendering="auto" fill="#522d2d" fill-rule="evenodd" image-rendering="auto" shape-rendering="auto" solid-color="#000000" style="block-progression:tb;isolation:auto;mix-blend-mode:normal;text-decoration-color:#000000;text-decoration-line:none;text-decoration-style:solid;text-indent:0;text-transform:none;white-space:normal"/>
  <path d="m91.233 3.8407c-0.68884-0.041761-1.0755 0.067575-1.4153 0.20033-0.43534 0.65952-0.51261 1.1979-0.48706 1.4598 0.06885 0.70579 0.26145 1.5083 0.83984 2.3184-0.60657 0.76553-0.80239 1.2347-1.0215 1.8945-0.32698 1.0045 0.11147 1.8379 0.55273 2.4199 0.25854 0.341 0.52546 0.54502 0.58203 1.0273 0.05657 0.48232-0.20792 1.1449-0.49414 2.3086s-0.39051 2.552 1.084 3.291c1.6471 0.37735 4.3126-0.42559 6.2422-0.54102 2.1276-0.12728 4.2956 0.48858 5.4023 0.5s1.9433-0.34682 2.2168-0.64453c0.24268-0.26418-0.20095-0.90449-0.13281-1.0684 0.55379-0.37875 1.3173-0.78405 1.3652-1.6016 0.0564-0.96164-0.52652-1.7296-2.1016-2.6289-1.575-0.89934-4.9759-2.3711-5.9922-3.1484-1.0162-0.77738-1.4194-1.0839-1.7598-1.3711-0.61561-0.51955-0.61927-0.77018-0.79102-1.459-0.097556-0.39126 0.02492-0.94111-1.0762-1.6953-1.1011-0.7542-1.8271-1.3393-3.0137-1.2617zm-0.11845 1.9244c2.5171 0.3113 2.3943 2.3181 2.6374 2.7041 0.46171 0.73298 1.2273 1.7827 1.688 2.1858 0.43646 0.38185 2.3426 1.2293 2.7147 1.4519 2.1234 1.27 3.0755 1.196 5.1376 2.2518 0.42268 0.21642 0.41292 1.0153 0.19593 1.3972-0.22767-0.03069-1.4505 0.034-2.5616-0.15391-1.2778-0.2161-2.662-0.72164-3.4416-0.9977-1.6235-0.57482-3.4749-0.96786-4.8809-1.1406 0.09513-0.27443 0.06817-0.52095-0.09375-0.77148l-0.63477-0.98242c-0.26216-0.40563-1.1094-0.98243-1.1602-1.3477-0.05073-0.36523 0.79604-2.0605 1.0194-2.4365 0.15458-0.2602-0.75131-1.8673-0.62029-2.1605zm0.71331 8.7811c1.2123 0.08324 3.4274 0.4931 5.2286 1.1309 0.99307 0.35162 2.4598 0.90358 3.7664 1.1245 1.0361 0.17524 1.8115 0.15417 2.1376 0.19872 0.0224 0.10638 0.0428 0.43349-5e-3 0.45791-1.269 0.64555-4.3154-1.2631-6.3882-0.99452-2.001 0.25931-3.5836 1.5208-5.1304-0.20274-0.09028-0.33855 0.13844-1.2706 0.39124-1.7148z" color="#000000" color-rendering="auto" fill-rule="evenodd" image-rendering="auto" shape-rendering="auto" solid-color="#000000" style="block-progression:tb;isolation:auto;mix-blend-mode:normal;text-decoration-color:#000000;text-decoration-line:none;text-decoration-style:solid;text-indent:0;text-transform:none;white-space:normal"/>
  <path d="m85.316 9.4909c-0.08457 0.53124 0.17768 1.0807 0.64805 1.3577 0.47037 0.27702 1.0403 0.21769 1.4084-0.1466 0.36804-0.36429 0.44927-0.94949 0.20071-1.446-0.24856-0.49656-0.83203-0.80524-1.5833-0.59875 0.52225 0.41526 0.90888 0.80228 0.68337 1.3872-0.47588-0.4731-0.80476-0.64466-1.3572-0.55348z"/>
  <path d="m87.33 3.6903c-1.3493-0.04115-2.7114 0.066809-3.832 0.2168-2.8968 0.3877-4.631 1.6037-7.1035 3.3105-2.3593 1.6288-4.0968 4.2819-5.3164 6.1953-2.2371 3.5098-3.4569 7.0665-4.1523 11.199-0.61039 3.6272 0.31833 8.6019-0.09375 11.678-0.51929 3.8761-0.4372 7.0977-1.8809 9.5469-0.64015 1.086-1.8552 1.9295-2.7793 2.1973-1.0619 0.30771-4.6142 0.08702-6.4297 0.25-3.9445 0.3541-7.2878 0.44565-10.066 1.2402-3.9396 1.1266-7.1099 2.1078-10.438 2.6133-1.5188 0.23073-3.3516 0.10965-5.5293 0.56445-1.5117 0.31571-2.7365 0.50407-3.7285 1.0625-0.99197 0.55843-1.7047 0.82239-2.3047 0.71289-1.3989-0.25528-3.1364-0.06093-4.6895 0.02148-2.148 0.11398-3.1004 1.0081-5.0566 1.6465l-2.9316 0.95703c-2.6214 0.85547-5.028 0.8696-6.127 3.4199 2.0008 0.45862 3.4737 0.56602 4.6465 0.80859 1.1426 0.23633 5.6465-0.68373 7.1953-0.18359-1.1714 0.75079-4.0789 0.69454-6.1113 0.88086-2.82 0.25851-5.2071 0.51936-7.793 1.1543-1.1318 0.27791-1.6426 1.3691-2.2109 2.1289 1.7713 0.98285 1.9543 0.12743 3.6016 0.67578 0.10584 0.403-2.9371 2.0816-2.7715 2.3379 0.43638 0.67531 3.6483-0.9941 3.8613-0.94726-0.027803 0.39262-2.846 3.9324-2.418 4.2852 0.46749 0.3853 1.4373-0.30724 2.9062-0.8125 0.5323-0.1831 1.7192-0.58841 2.5957-0.96094 0.87645-0.37253 2.3868-0.24089 3.4434-0.13672 1.4363 0.14162 1.6716 0.26769 3.3418 0.99609 1.7076 0.74474 2.8965 1.704 3.7617 2.6406 2.1084 2.2825 2.0489 3.4133 3.166 5.3516s2.3737 4.1554 5.0566 6.3281c0.86646 0.7017 2.4576 1.8297 4.1328 2.9062 1.6753 1.0765 3.2807 2.0624 4.6172 2.4805 2.244 0.70197 4.1855-0.49997 5.4551-0.02734 0.89047 0.33149 1.7962 0.98677 2.6035 1.0859 1.4016 0.17217 2.2513-0.12367 2.5449-0.19336 0.95546-0.22681 2.0167-0.79474 3.4414-1.2285 0.39726-0.12095 0.79851-0.25445 1.2003-0.39816-0.12757-0.5575-0.15988-1.051-0.33294-2.0626 0.96132-0.41986 4.2653 0.37286 5.1112-0.08805 1.4092-0.76784 2.5642-1.0861 3.7344-1.8809 2.1016-1.4275 3.9414-2.9993 5.8945-4.1406 3.3862-1.9788 8.8784-2.6451 12.684-5.916 2.7551-2.3683 5.2037-5.5167 6.209-9.1914 0.9981-3.6484 0.35072-7.4962-0.63672-10.84-1.3144-4.4507-3.2943-10.747-4.4648-15.004-0.61068-2.2207-1.5379-6.7361-0.76953-11.576 0.46652-2.9387 0.73081-3.5415 1.0098-4.4668 0.27895-0.92532 1.6453-2.3546 2.3145-2.8223 1.3026-0.91044 3.6121-0.57384 5.8945-1.2754 1.716-0.52746 4.9043-2.0645 4.9043-2.0645l0.36524-1.0234c-0.58742-0.37849-1.2887-0.34329-1.7188-1.2988-0.29932-0.7882 0.9867-2.1871 1.0918-3.2637-0.25646-0.66285-0.73324-0.47102-0.82227-1.168-0.5085-0.49391-1.071-1.1132-1.0137-1.4277 0.05735-0.31452 0.70783-1.648 1.1641-2.2891-0.43696-0.64068-0.73146-1.3502-0.71875-1.8769 0.012757-0.52673 0.54367-0.030508 1.4902 0.22266-0.19705-1.0239-0.53388-1.4912-1.4414-1.8711-1.0702-0.44796-2.4066-0.63854-3.7559-0.67969zm-0.32617 2.0527c0.41975 0.00846 0.817 0.028759 1.1445 0.066406 0.77093 0.088611 1.0641 0.27429 1.4355 0.52148 0.25256 0.16809 0.53988 1.2123 0.74805 1.4746-0.1345 0.19959-0.45124 0.5339-0.91797 1.3809-0.46672 0.84696-0.32081 2.0862 0.18555 2.791 0.29414 0.40944 0.53606 0.57341 0.81055 0.81641-0.08509 0.64567 0.21804 1.318-0.17969 1.9395-0.1102 0.1722-0.18721 0.34612-0.25 0.51953-0.74648 0.56907-1.6285 1.1295-2.582 1.2734-0.84663 0.12779-3.4312-0.25411-5.2773-0.99805-0.09616 0.56856 1.8942 2.0394 3.9629 2.418 0.79318 0.14516 2.6386-0.13956 2.8633-0.18359 0.04036 0.61644-0.32398 1.0676-1.4746 1.2773-1.887 0.34393-4.5604 0.0433-6.7871 1.5996-1.3168 0.92038-2.5081 3.197-2.8809 4.4336-0.37278 1.2365-0.83991 3.5557-0.92383 4.6328-0.55605 7.1368 0.05327 9.2909 1.4316 14.527 1.3213 5.0196 2.01 6.7514 3.293 11.096 0.91105 3.085 0.87342 7.5022 0.09766 10.338-0.80029 2.9253-2.4685 6.3277-4.9023 8.4199-2.8323 2.4347-7.7276 3.3889-11.898 5.8262-2.2487 1.314-4.4997 2.6755-6.4238 3.9824-0.649 0.44081-1.3813 0.72812-2.0978 0.99087-0.1648 1.275-0.59734 1.8726-1.1561 2.1771-1.7072 0.93024-3.9898 0.69963-5.7461 1.2344-0.88358 0.26902-1.7719 0.72226-3.1641 1.0527-1.1263 0.26735-2.1304-0.17706-2.1738-0.19531-0.66274-0.27856-1.4053-0.72582-2.0352-0.90235-2.211-0.61971-2.5272 0.72524-4.5801 0.54688-0.59986-0.05212-2.8309-1.0293-4.4297-2.0566s-3.5056-2.3223-4.1953-2.8809c-2.3011-1.8635-3.7298-4.0572-4.8574-6.0137s-1.9373-4.6694-4.6953-6.7539c-1.4517-1.0972-3.5384-2.0788-5.3281-2.8594-1.711-0.84605-6.4508-0.28535-8.2969 0.83594 0.28613-1.6753 2.6546-2.3948 4.127-2.832-1.4872-0.17055-2.9386-0.60146-4.4258 0.14062 1.5045-1.572-1.3502-1.229-2.1758-1.6621 5.0297-1.0328 5.3431-0.78682 8.3477-0.56641 2.0736-0.7098 4.4786-0.77632 6.1387-2.0996 0.24232-0.22078 0.99308-0.31723 1.0723-1.1797 0.0396-0.43123-0.90544-0.5378-1.1562-0.79102s-2.4363-0.38555-3.5391-0.20703c-1.1222 0.18166-4.6776-0.11245-5.4961-0.18164 1.5663-1.0175 8.4487-3.2563 10.137-3.4492 1.4173-0.16197 4.0386 0.19298 4.7812 0.18555 0.9132-0.0091 2.4522-0.5821 3.5762-1.2148 1.124-0.63275 2.1677-0.41752 2.918-0.57422 1.4539-0.30364 3.3294-0.23797 5.4785-0.56445 3.7946-0.57645 7.3736-1.538 10.713-2.1562 3.8452-0.71187 7.8922-0.86525 11.998-1.457 1.3077-0.18849 2.9932-0.11304 4.7383-0.82617 1.4785-0.60418 2.3766-1.585 3.0371-2.7031 1.9759-3.345 2.471-7.5062 2.7578-11.314 0.2692-3.5743-0.38522-7.5474 0.2207-10.518 0.77178-3.7833 2.0351-7.5923 4.0254-10.715 1.2795-2.0074 3.1737-4.583 4.6406-5.5957 2.1733-1.5004 3.6196-2.3161 6.2637-2.9004 0.38314-0.084672 1.8443-0.17187 3.1035-0.14648z" color="#000000" color-rendering="auto" fill="#202020" fill-rule="evenodd" image-rendering="auto" shape-rendering="auto" solid-color="#000000" style="block-progression:tb;isolation:auto;mix-blend-mode:normal;text-decoration-color:#000000;text-decoration-line:none;text-decoration-style:solid;text-indent:0;text-transform:none;white-space:normal"/>
  <path d="m50.203 86.237c-0.57612 1.1337-0.14926 1.7786-0.0054 3.1235 0.09657 0.90255 0.06105 1.7462 0.10089 2.0372 0.19491 1.4238 1.3911 2.7073 1.2173 4.1213l-0.68884 5.6032c0.30113 0.52751 0.1215 1.1444 0.32054 1.7056l0.50636 1.4276c4.5051 1.1472 9.7633 0.98059 14.354 0.75477 0.55329-0.016 1.2238-0.37324 1.6557-0.78477 0.29867-0.24277 1.0127-0.21096 1.3401-0.16165 0.81097 0.33832 1.2304 0.89425 2.0864 0.44835 0.09551-0.80774-0.49637-1.4839-0.86977-2.1466-0.44739-0.90636-1.7503-0.82358-2.1852-1.45-0.68227-1.0861-2.1285-1.1951-3.2895-1.1182-1.1354 0.0315-1.7854-0.015-2.8614 0.35518-0.24448 0.0396-1.7323 0.22587-2.3691-0.063-1.3697 0.031-1.1463-1.2294-1.4542-2.1456-0.2817-0.83832-0.9197-1.3817-1.9886-2.4959-0.20301-2.2775 0.38009-4.4753 0.12488-6.7472l-0.24059-1.7609-1.1352 0.37086c0.26149 1.6682-0.20526 3.2157-0.08669 4.8993 0.12266 1.32 0.18178 2.6594 0.34388 3.9673 0.86889 1.4925 2.3395 2.6362 2.0729 4.3918 0.20745 0.30868 1.3889 0.81547 1.7948 0.89314 1.349 0.25816 2.3014 0.48355 3.9853-0.0259 1.0611-0.32102 3.0235-0.26366 4.1196-0.1047-1.587 0.43233-2.087 0.49855-2.7646 0.93023 3.5329-0.41302 5.3609 1.091 4.9719 1.1977-0.64965 0.17823-0.9792-0.25574-1.4799-0.41299-0.71789 0.49857-2.585 0.0918-3.4063 0.25882-2.5433 0.10748-5.1084 0.19987-7.6473-0.0192-0.74231-0.47931-1.2629-1.6306-1.6941-1.6875-0.45872-0.0606 0.01177 1.3695-0.97472 1.3275-0.01138-0.41073-0.73932-0.73327-1.0647-1.0607-0.23184-0.4163-0.2-0.94095-0.37806-1.3717-0.21663-1.5083 0.58616-3.1327 0.28717-5.2409-0.2916-2.0561-0.83841-4.0078-1.2124-6.0254-0.38503-0.61928-0.92169-1.4042-0.5936-2.0486-0.15517-1.0841-0.02896-1.0944-0.89199-0.94208z" color="#000000" color-rendering="auto" fill="#7d4b00" fill-rule="evenodd" image-rendering="auto" shape-rendering="auto" solid-color="#000000" style="block-progression:tb;isolation:auto;mix-blend-mode:normal;text-decoration-color:#000000;text-decoration-line:none;text-decoration-style:solid;text-indent:0;text-transform:none;white-space:normal"/>
  <path d="m66.736 72.11c-0.22496 1.2713-1.3819 3.0645-1.7755 3.6004-1.0037 1.3664-3.2163 1.2939-5.3098 2.453-0.75671 0.41897-1.4176 1.1026-2.0508 1.8203-0.63319 0.71769-1.1391 1.284-1.4199 2.041-0.54011 1.4561-0.81692 3.7872-1.2075 4.5919-0.67826 0.09047-1.5911 0.37706-2.2442 0.19726-0.53381-0.14695-1.2336-0.72909-1.5091-0.91437-0.06378-0.69898 0.71377-3.3501 0.12958-3.5286-0.58419-0.17849-1.3058 1.3184-1.5909 2.3946-0.12846 0.48482-0.29613 1.6768-0.08375 2.1616 0.83865 0.86672 2.1763 1.5308 3.2192 1.5257 1.1892-0.0059 2.0879-0.42014 3.1909-0.55691 1.0383-1.5916 0.92035-2.9 1.6037-4.4679 0.28522-0.65441 0.60407-1.6377 1.1521-2.2589s2.2689-2.0332 2.5028-2.1627c1.7498-0.96879 3.6893-0.56914 5.2863-2.7433 0.86575-1.1786 1.2028-2.787 1.4492-4.1797 0.24644-1.3927-0.3749-2.5582-0.73242-2.6348-0.35752-0.07653-0.38507 1.3902-0.61003 2.6614z" color="#000000" color-rendering="auto" fill="#a19090" fill-rule="evenodd" image-rendering="auto" shape-rendering="auto" solid-color="#000000" style="block-progression:tb;isolation:auto;mix-blend-mode:normal;text-decoration-color:#000000;text-decoration-line:none;text-decoration-style:solid;text-indent:0;text-transform:none;white-space:normal"/>
 </g>
</svg>
