<?xml version='1.0' encoding='utf-8'?>
<svg xmlns="http://www.w3.org/2000/svg" enable-background="new 0 0 550 400" version="1.1" viewBox="0 0 550 400">
	<path d="m351.19 323.37c0.43-0.703 0.836-1.392 1.226-2.058 2.95-0.641 6.906-1.381 11.868-2.214 6.752-1.159 11.972-2.293 15.665-3.401 4.009-1.266 8.018-3.112 12.027-5.538 1.106-0.633 2.138-1.347 3.085-2.138 0.844-0.687 3.192-2.533 7.042-5.538-0.951 0.314-1.926 0.632-2.929 0.95-2.215 0.632-5.513 1.423-9.891 2.373-0.632 0.159-1.346-0.236-2.137-1.187-0.949-1.107-1.187-1.741-0.711-1.899 4.959-2.269 8.572-3.956 10.841-5.063 3.85-2.11 7.066-4.379 9.652-6.806 2.216-2.057 4.3-4.614 6.25-7.674 0.792-1.582 1.583-2.955 2.374-4.117-2.057 1.952-4.616 3.561-7.676 4.828-3.534 1.635-8.202 3.006-14.005 4.115-0.158 0.159-0.396 0-0.711-0.475 1.106-0.316 2.162-0.712 3.165-1.187h0.236c-0.156-6e-3 -0.233-0.087-0.236-0.238 20.359-11.763 33.599-26.637 39.72-44.623-1.899 2.269-4.537 4.192-7.912 5.775-3.377 1.479-7.147 2.609-11.315 3.4 5.752-5.96 10.234-10.943 13.45-14.952 3.692-4.325 6.358-9.23 7.993-14.717-10.286 6.752-17.355 10.604-21.204 11.552-3.851 1.002-4.272 0.368-1.267-1.899 3.219-3.533 5.248-5.696 6.093-6.487 2.69-2.901 4.696-5.566 6.015-7.991 1.106-2.216 1.979-4.379 2.61-6.488 0.159-0.95 0.315-1.819 0.475-2.61 0.474-2.585 0.555-5.645 0.236-9.179-0.633 4.01-1.898 7.702-3.797 11.077-1.478 2.584-3.165 4.747-5.064 6.488-1.478 1.317-3.006 2.531-4.588 3.64 0.476-1.794 1.027-3.956 1.663-6.488 0.157-2.109 0.314-3.719 0.474-4.827 1.318-4.693 2.058-9.203 2.215-13.529 0.316-3.375 0.396-6.831 0.236-10.364-0.157 0.949-0.422 2.004-0.791 3.165-0.791 3.217-1.345 5.38-1.661 6.487-0.475 1.108-0.95 2.242-1.424 3.403-1.479 1.898-3.323 4.141-5.538 6.726l0.475-3.877v-2.374c0.791-5.961 0.712-12.079-0.236-18.356-0.159-0.791-0.317-1.583-0.475-2.374-0.95-4.642-2.56-10.259-4.828-16.853 0.951 3.692 1.188 7.464 0.713 11.314-0.159 1.267-0.317 2.453-0.475 3.561-0.159 0.211-0.238 0.396-0.238 0.554-1.266 2.69-2.006 4.114-2.214 4.272-0.159 0.158-0.315 0.316-0.475 0.475v-4.984c0-2.584-0.236-4.696-0.713-6.33-0.159-1.583-0.474-3.271-0.95-5.064-0.948-3.533-1.661-6.171-2.136-7.912-0.476-2.109-1.057-4.114-1.741-6.013 0.315 5.116 0.079 9.521-0.713 13.213v0.237c-0.159 0.633-0.396 1.291-0.712 1.978-0.791 2.057-1.345 3.587-1.661 4.589-0.317 0.474-0.977 1.187-1.979 2.136-1.107-7.069-1.741-11.578-1.898-13.53-0.315-5.749-0.949-10.786-1.898-15.112-0.844 3.323-2.295 6.752-4.352 10.286v0.316h-0.237c-0.159 0.316-0.633 0.131-1.424-0.554-0.688-0.633-1.029-1.187-1.029-1.662 0.159-1.266 0.08-2.795-0.236-4.589-1.741-4.325-3.006-5.59-3.797-3.798-1.952 4.325-2.929 6.567-2.929 6.726-0.159 0.317-0.555 0.237-1.187-0.237-0.632-0.475-0.87-0.977-0.711-1.503v-7.2c-1.318 1.266-2.85 2.796-4.59 4.589v0.237c-0.157 0.159-0.553 0-1.187-0.474-0.685-0.633-1.027-1.108-1.027-1.424 1.003-2.9 1.267-5.091 0.791-6.567-0.528-1.266-1.582-2.057-3.165-2.374h-3.165c0.159 0.316 0 0.396-0.474 0.238h-0.477v-0.238c-2.214-0.792-3.744-1.345-4.588-1.662-0.315-0.158-0.791-0.581-1.423-1.266-0.792-0.791-1.028-1.345-0.713-1.662 0.634-0.316 1.346-0.95 2.138-1.898 0.476-0.476 0.896-0.871 1.267-1.187l-2.69-1.267c-0.316-0.158-0.791-0.554-1.423-1.187s-0.792-1.107-0.477-1.424c0.634-0.474 1.425-1.292 2.374-2.452 0.791-0.792 1.425-1.425 1.899-1.899-0.159-0.158-0.317-0.317-0.475-0.475-1.425-1.266-2.533-2.163-3.324-2.69-0.316-0.158-0.712-0.474-1.187-0.949-0.846-0.792-1.108-1.266-0.791-1.424 1.16-0.474 2.057-0.87 2.688-1.187 1.108-0.844 1.425-1.662 0.95-2.453-1.266-2.532-2.057-4.063-2.373-4.59-0.159-0.157-0.236-0.316-0.236-0.474-0.159-0.317-0.159-0.475 0-0.475 1.582 0 2.689 0.079 3.323 0.237 0.633 0.159 1.215-0.791 1.742-2.849 1.107-1.634 2.69-2.215 4.747-1.74 3.903 1.001 7.78 3.269 11.63 6.804-0.526-1.477-1.026-2.848-1.502-4.114-0.159-0.475 0-0.633 0.476-0.475 0.368 0.158 0.631 0.316 0.792 0.475 2.373 2.058 4.534 4.853 6.487 8.387 0.475 1.001 1.029 2.294 1.661 3.876 0.316 0.475 0.556 1.055 0.712 1.741 0.159-0.686 0.238-1.424 0.238-2.215 0.157-3.533 0-7.069-0.476-10.603 0-0.475 0.314-0.475 0.95 0 0.844 0.633 1.345 1.108 1.504 1.424v0.476c1.106 1.792 2.531 4.456 4.271 7.991 0.687 1.108 1.268 2.164 1.742 3.165v-8.228c0-0.317 0.396-0.238 1.187 0.237 0.632 0.475 1.027 0.792 1.187 0.95 1.95 3.217 3.482 6.275 4.589 9.178-0.159-1.424-0.396-2.875-0.711-4.352-0.634-3.375-1.029-7.307-1.188-11.79 2.058 2.109 3.508 3.64 4.352 4.59 0.949 1.266 1.817 2.715 2.609 4.352 0.951 2.374 1.662 4.852 2.139 7.437 0.526-0.95 0.948-2.954 1.266-6.013 0.316-3.061 0.078-6.12-0.713-9.179-1.001-2.9-2.452-4.905-4.352-6.013-0.316 0-0.553-0.159-0.712-0.475v-0.238h-0.246l-0.555-0.474c-0.315-0.475-0.315-0.633 0-0.475 3.376 0.949 6.673 3.269 9.89 6.962 1.478 1.424 2.69 2.874 3.642 4.352-0.633-4.643-1.188-8.018-1.663-10.127-0.844-3.534-1.742-6.198-2.689-7.992-0.632-1.424-1.582-2.611-2.85-3.561-0.474-0.316-1.214-0.896-2.214-1.741-2.741-1.424-4.431-2.294-5.063-2.611l-0.477-0.475-0.236-0.475c2.111-0.475 4.537 0.317 7.28 2.374 1.742 1.161 3.666 2.77 5.775 4.827 1.107 1.266 2.137 2.558 3.086 3.876 0.315 0.316 0.553 0.712 0.711 1.187 0-0.474-0.079-0.949-0.236-1.424-1.424-5.328-3.589-9.442-6.489-12.343-1.266-1.424-3.112-3.086-5.538-4.984-0.315-0.527-0.633-0.871-0.951-1.029-3.534-1.424-6.355-2.611-8.467-3.561l-0.711-0.711c-0.316-0.369-0.396-0.554-0.236-0.554 2.269-0.633 5.171-0.052 8.703 1.741 1.898 0.949 4.38 2.478 7.437 4.589 0.632 0.474 1.268 0.949 1.899 1.424 0.367 0.158 0.712 0.396 1.027 0.712-0.316-0.633-0.475-1.028-0.475-1.187-1.95-2.9-3.797-5.328-5.538-7.279-0.528-0.633-1.027-1.187-1.504-1.661-2.057-1.741-4.455-3.271-7.199-4.589-5.328-1.74-10.472-2.611-15.429-2.611-0.159 0-0.396-0.159-0.713-0.475-0.159-0.158-0.159-0.317 0-0.475 3.534-1.318 7.701-1.239 12.501 0.238 3.376 0.949 6.594 2.453 9.653 4.509-3.532-5.432-8.52-9.836-14.954-13.212-6.752-3.534-13.977-5.539-21.678-6.014-0.159 0-1.371-0.079-3.642-0.237-0.948 0.158-2.293 0.317-4.034 0.475-3.06 0.475-2.664 0.238 1.187-0.712 0.159 0 0.396-0.08 0.713-0.237 3.375-0.845 5.617-1.425 6.725-1.741 1.161-0.317 2.294-0.554 3.401-0.712 2.425-0.316 4.669-0.316 6.726 0-2.057-0.791-4.301-1.345-6.726-1.661-1.266-0.158-2.636-0.317-4.115-0.475-6.594-0.475-14.137 0.396-22.628 2.611-1.478 0.475-2.85 0.976-4.115 1.503 4.484-3.216 8.571-5.247 12.264-6.092 4.22-0.949 9.441-1.345 15.665-1.187-4.009-2.531-9.467-2.927-16.379-1.187-2.057 0.476-4.219 1.108-6.489 1.899-1.897 0.844-3.824 1.741-5.774 2.69-6.593 2.9-13.029 6.751-19.305 11.551-0.632 1.266-1.187 2.559-1.663 3.877-0.157 0.316-0.396 0.237-0.711-0.238-0.316-0.316-0.476-0.553-0.476-0.712 0.476-5.011 2.56-9.68 6.251-14.004 1.582-1.951 3.429-3.719 5.538-5.301 1.106-0.95 2.321-1.847 3.64-2.69-3.851 1.793-7.622 3.902-11.313 6.33-7.753 5.116-13.715 11.128-17.881 18.039-0.632 2.901-1.188 6.199-1.663 9.89 0 0.316-0.315 0.079-0.949-0.712-0.476-5.961-0.08-11.341 1.188-16.14 0.475-1.636 1.027-3.165 1.661-4.589 0.475-1.266 1.056-2.4 1.741-3.402-2.269 2.109-4.299 4.537-6.093 7.279-3.534 4.958-5.617 10.18-6.251 15.666 0 0.95 0.08 1.819 0.238 2.611 0 0.475-0.396 0.238-1.188-0.712-1.741-4.8-1.662-12.026 0.236-21.679 0.159-0.792 0.315-1.609 0.475-2.453-0.475 0.686-0.95 1.345-1.423 1.978-1.108 1.583-2.006 3.192-2.69 4.826-1.583 3.533-2.689 7.227-3.322 11.077-0.159 5.274 0.314 10.892 1.423 16.853 0 0.317-0.316 0.158-0.95-0.475-2.743-6.594-3.481-13.503-2.215-20.73 0.687-4.641 2.138-8.993 4.352-13.055 0.315-0.95 0.819-1.82 1.502-2.611-0.685 0.633-1.344 1.345-1.978 2.136-6.435 9.336-9.414 20.203-8.939 32.598-0.159 0-0.315-0.106-0.475-0.317-0.791-7.859-0.291-14.585 1.502-20.176 1.741-6.277 5.275-11.921 10.603-16.932l3.086-2.374-2.13 3.876c-0.791 1.424-1.529 2.955-2.214 4.589-1.425 3.533-2.453 7.465-3.086 11.79 0.475-2.27 1.187-4.432 2.137-6.488 0.632-1.635 1.449-3.165 2.454-4.589l0.235-0.237c0.633-1.161 2.084-3.165 4.352-6.014 0 0.159-0.158 1.187-0.475 3.086-0.369 1.951-0.713 4.616-1.027 7.991-0.315 3.375-0.477 5.934-0.477 7.675-0.157 1.635-0.234 3.006-0.234 4.114 0.63-4.483 2.32-8.834 5.063-13.055 2.269-3.376 6.541-7.069 12.818-11.077-0.369 0.686-0.791 1.424-1.266 2.215-2.69 6.436-4.457 10.998-5.304 13.688 1.003-1.741 2.139-3.35 3.403-4.826 3.217-4.167 7.224-7.939 12.025-11.314 0.634-0.316 1.293-0.712 1.978-1.187 5.593-3.534 12.08-5.381 19.466-5.539-3.22 1.951-6.33 4.272-9.336 6.962-4.696 4.22-8.335 8.651-10.919 13.292 4.063-3.534 8.334-6.594 12.818-9.178 3.853-2.27 7.7-4.194 11.553-5.777 10.286-3.849 18.645-3.216 25.081 1.899-0.315 0-0.632 0.079-0.949 0.237-8.071 0.369-13.45 0.871-16.141 1.503-1.793 0.316-3.481 0.792-5.064 1.424 8.493-1.951 16.115-2.426 22.866-1.424l0.475-0.237c0 0.158 0.081 0.316 0.238 0.475 4.324 0.633 8.255 2.005 11.788 4.114 0.476 0.159 1.37 0.712 2.69 1.662-3.693-0.316-6.356-0.554-7.993-0.712-2.688-0.158-5.907-0.08-9.651 0.237 8.069 0.316 14.98 2.083 20.729 5.301 0.317 0.158 0.66 0.316 1.029 0.475 6.908 3.85 12.29 9.389 16.14 16.615-1.95-1.108-3.085-1.741-3.401-1.899 0.791 0.634 1.582 1.346 2.374 2.137 3.693 3.376 6.828 8.281 9.415 14.717-2.373-2.269-3.983-3.64-4.827-4.114-0.95-0.633-1.897-1.187-2.849-1.662-0.316-0.158-0.712-0.316-1.187-0.475 1.106 0.95 2.138 1.899 3.085 2.848 0.95 0.95 1.847 2.005 2.69 3.165 1.107 1.266 2.373 3.35 3.797 6.251 1.317 2.426 1.741 5.407 1.267 8.94-0.369-0.316-0.555-0.581-0.555-0.792-0.632-1.107-1.346-2.057-2.137-2.848-1.108-1.635-2.401-3.007-3.878-4.115 0.846 1.318 1.583 2.848 2.217 4.589 1.423 3.376 2.452 6.515 3.084 9.416 0.476 2.057 0.396 5.59-0.236 10.602-0.791-1.634-1.187-2.531-1.187-2.689-0.317-0.317-0.633-0.792-0.951-1.424-1.266-1.741-2.242-3.033-2.928-3.877-1.106-1.266-2.294-2.374-3.561-3.323 1.107 1.899 1.741 4.537 1.899 7.912 0 3.061-0.976 8.599-2.929 16.615l-1.187-4.589c-0.315-3.375-1.028-6.408-2.138-9.099-1.106-2.901-2.636-5.249-4.588-7.042 2.271 6.752 3.245 13.029 2.929 18.832 0 0.158-0.263 2.242-0.792 6.25l-1.661-5.775c-1.107-3.851-2.479-7.464-4.115-10.84l-1.662 9.416c-1.583-3.852-3.191-7.385-4.826-10.603-0.632-1.16-1.188-2.136-1.661-2.927 0 1.318-0.317 3.983-0.951 7.991-0.159 0.792-0.236 2.057-0.236 3.798-2.742-5.116-4.511-8.387-5.302-9.812-1.003-2.109-2.059-3.876-3.165-5.3 0.791 2.215 1.347 4.297 1.661 6.25-0.316-1.318-1.107-2.532-2.373-3.639-1.794-1.424-3.324-2.717-4.588-3.877-2.109-1.266-3.878-2.057-5.303-2.374-3.693-0.949-5.697 0.581-6.013 4.589h-0.231c-1.32-0.474-2.533-0.633-3.642-0.474 0.951 1.266 2.006 3.192 3.165 5.775v0.475c-1.003 0.949-2.137 1.74-3.401 2.374 0.159 0.157 0.396 0.396 0.713 0.711 1.318 1.16 2.373 1.978 3.165 2.453 0.314 0.158 0.791 0.475 1.423 0.949 0.632 0.792 0.791 1.346 0.475 1.662-0.475 0.527-1.266 1.345-2.374 2.453-0.475 0.633-0.895 1.108-1.266 1.424l2.453 1.187c1.898 1.478 2.532 2.453 1.898 2.928-0.476 0.317-1.107 0.95-1.898 1.899-0.315 0.475-0.555 0.792-0.711 0.95 0.474 0.369 0.948 0.712 1.423 1.028 0.315 0.316 0.632 0.633 0.95 0.95 3.216-1.478 5.721-0.765 7.517 2.136 0.949 1.478 1.502 3.086 1.661 4.827 0.159-0.158 0.317-0.396 0.475-0.712 1.424-1.424 2.56-2.638 3.401-3.639 0.159-0.158 0.476 0 0.95 0.475 0.632 0.687 0.95 1.187 0.95 1.503-0.159 1.107-0.159 2.717 0 4.826 0.633-1.634 1.108-2.928 1.424-3.876 0-0.158 0.236-0.08 0.712 0.237 3.533 1.898 5.882 4.616 7.042 8.149 0.315-0.95 0.711-2.057 1.188-3.323 1.266-3.375 2.24-5.618 2.927-6.726 1.741 4.643 2.77 7.675 3.086 9.099 1.478 4.853 2.295 10.234 2.452 16.141 0.159-0.792 0.317-1.504 0.477-2.137 0.474-5.17 1.502-11.367 3.084-18.593l1.504 5.775c3.165 10.127 5.09 16.247 5.774 18.356 0.317-3.059 0.159-7.411-0.474-13.055l1.897 4.352c4.168 9.969 6.725 17.275 7.676 21.917 1.003 4.379 1.239 8.572 0.712 12.58 0.687-1.476 1.187-2.848 1.502-4.114 0.791-2.743 1.347-5.381 1.663-7.912 0-1.161 0.315-4.616 0.95-10.366l2.452 7.201c3.218 11.393 3.533 21.099 0.951 29.117-0.477 1.634-1.028 3.164-1.663 4.589 1.268-1.741 2.216-3.192 2.85-4.353 0.791-1.74 2.401-5.828 4.826-12.263 0.159-0.158 0.396-0.158 0.712 0 0.159 0 0.315 0.079 0.475 0.237 0.477 0.475 0.632 0.791 0.477 0.95 0.314 0.685 0.817 2.215 1.502 4.589 1.267 5.17 0.844 9.839-1.266 14.005-2.059 4.008-3.666 6.725-4.828 8.148-2.373 2.742-5.326 5.249-8.86 7.518 2.214-1.318 5.669-3.402 10.364-6.251 1.266-0.845 2.532-1.582 3.797-2.216 2.9-1.74 5.487-3.191 7.753-4.352-1.106 9.653-3.507 16.484-7.2 20.492-3.691 4.009-7.809 7.545-12.342 10.604 6.433-2.691 12.05-6.542 16.852-11.552l0.236 3.876c-0.791 9.81-5.435 19.279-13.925 28.403-1.635 1.795-3.324 3.481-5.064 5.063l0.236 0.236c0.317 0.315 0.475 0.555 0.475 0.711-0.157 0-0.236 0.08-0.236 0.238l0.236 0.238c-0.315 7.066-3.851 13.503-10.601 19.304-1.952 1.635-4.115 3.245-6.489 4.828 2.057-0.634 3.744-1.188 5.064-1.663 0.157 0 0.314 0.08 0.474 0.236 0.317-0.316 0.633-0.632 0.951-0.95 0.159-0.159 0.474 0 0.95 0.476 0.475 0.475 0.711 0.791 0.711 0.949-4.166 9.971-12.844 16.88-26.03 20.732-7.193 2.013-18.205 3.437-33.028 4.281zm-71.722-171.3c0.63 0.158 1.344 0.316 2.136 0.475 1.107 1.002 1.503 1.582 1.187 1.741-2.215 0.158-4.536-0.106-6.962-0.792h-0.474c-1.318-0.474-2.69-1.028-4.114-1.661-1.266-0.475-2.717-1.187-4.352-2.136-2.216-1.478-5.591-3.746-10.128-6.805-2.374-1.74-2.61-1.476-0.712 0.792 1.952 2.216 3.324 3.561 4.115 4.036 2.426 1.792 5.882 3.719 10.365 5.775 1.425 0.527 2.955 1.108 4.589 1.741 6.143 2.521 10.705 4.67 13.686 6.448-0.878-0.1-1.76-0.177-2.65-0.237-7.995-3.171-14.022-5.638-18.079-7.397-8.335-3.904-13.953-9.126-16.854-15.666-0.158-0.527-0.079-0.871 0.238-1.029 0.158 0 0.501 0.08 1.028 0.238 7.228 5.012 11.79 8.07 13.688 9.178 3.692 2.109 7.307 3.719 10.84 4.826 0.79 0.156 1.609 0.315 2.453 0.473zm-8.704-64.088c-0.476-0.476-0.872-0.95-1.187-1.424-1.479-1.952-2.769-3.798-3.877-5.539-0.317-0.475-0.634-0.871-0.951-1.187 0.476 2.848 0.951 6.038 1.425 9.573 5.169 12.078 8.704 19.728 10.603 22.945-2.901-2.268-5.618-4.774-8.15-7.517-1.159-1.266-2.295-2.532-3.401-3.798-4.01-4.853-7.07-9.838-9.179-14.954 0.95 5.434 3.034 10.892 6.251 16.378 1.001 1.583 3.112 4.562 6.33 8.941 3.165 4.167 7.095 8.651 11.789 13.451 2.217 2.426 3.825 4.193 4.826 5.301-1.635-0.317-2.608-0.554-2.927-0.712-2.585-0.475-5.962-2.004-10.128-4.589-4.324-2.742-7.042-4.51-8.148-5.302-3.219-2.9-5.646-5.803-7.28-8.703 0.844 3.534 2.374 6.99 4.59 10.365 0.949 1.477 2.083 2.928 3.401 4.352 2.426 3.059 6.199 6.989 11.315 11.789 1.583 1.318 3.112 2.532 4.59 3.64-0.316-0.158-0.557-0.237-0.713-0.237v0.237c-0.474-0.158-0.975-0.316-1.503-0.475-3.165-0.791-6.356-2.004-9.574-3.639-1.001-0.317-1.899-0.712-2.69-1.187-4.166-2.268-7.542-4.826-10.128-7.675 1.318 4.483 3.984 8.493 7.993 12.027 1.582 1.582 6.645 5.195 15.19 10.839 0.475 0.633 0.555 0.87 0.238 0.712-0.688-0.316-1.348-0.633-1.979-0.949-6.911-3.692-12.132-7.148-15.667-10.366-5.591-5.327-8.889-11.341-9.89-18.04-0.158-0.685 0.264-0.605 1.266 0.237 0.792 0.633 1.425 1.187 1.899 1.662 1.108 1.898 2.795 3.745 5.064 5.539 3.375 2.742 8.043 5.063 14.004 6.962-4.695-4.167-8.229-7.781-10.603-10.84-5.012-6.065-7.753-12.158-8.228-18.276-0.476-1.793-0.712-3.561-0.712-5.301 0.475 0.316 0.712 0.554 0.712 0.711 0.158 0.634 0.396 1.267 0.711 1.899v0.237c1.794 5.011 4.854 9.363 9.179 13.055 3.692 3.376 8.835 6.594 15.429 9.653-4.325-3.533-8.257-7.569-11.79-12.105-1.792-2.215-3.481-4.616-5.064-7.201-1.477-2.584-2.769-5.063-3.877-7.437-2.584-5.328-4.352-11.841-5.301-19.543 2.267 3.533 4.431 6.752 6.487 9.653 2.109 3.375 4.194 6.25 6.251 8.624 1.159 1.637 2.374 3.165 3.639 4.59l0.238-0.238c-2.901-3.692-5.302-8.334-7.202-13.925-1.635-5.17-2.057-12.738-1.266-22.708 0.21 1.002 0.396 1.979 0.555 2.928 0.949 2.742 2.135 5.38 3.56 7.912 0.475 1.001 0.977 1.899 1.504 2.69 0.315 0.316 0.632 0.712 0.949 1.187 1.266 1.951 4.142 5.96 8.625 12.026-3.06-4.483-5.222-9.125-6.489-13.925-0.475-1.318-0.87-2.611-1.187-3.877-1.476-7.701-0.842-14.61 1.899-20.729 0.159 0 0.739-1.055 1.742-3.165 0.157 7.753 1.187 15.006 3.084 21.758 0.159 0.158 0.236 0.316 0.236 0.474 0.634 2.374 1.451 4.854 2.452 7.438 0.161 0.316-0.079 0.158-0.711-0.475-1.319-2.109-2.373-4.272-3.165-6.488-0.95-2.267-1.661-4.616-2.137-7.041-0.686-3.007-1.029-5.961-1.029-8.862-1.108 5.749-1.187 11.525-0.236 17.328 1.159 6.751 3.587 13.107 7.278 19.068 0.161 0.317 0 0.237-0.475-0.237 0.634 0.95 1.347 1.978 2.138 3.085 0.315 0.317 0.315 0.475 0 0.475s-0.632-0.158-0.95-0.475c-3.846-3.848-7.064-7.383-9.648-10.6z" fill="#350303"/>
	<path d="m277.25 74.773l1.424-0.474c-0.476-12.395 2.506-23.262 8.938-32.598 0.634-0.791 1.294-1.503 1.979-2.136-0.685 0.791-1.188 1.661-1.502 2.611-2.215 4.062-3.666 8.414-4.353 13.055-1.267 7.227-0.528 14.138 2.215 20.73 0.632 0.633 0.95 0.792 0.95 0.475-1.107-5.96-1.582-11.577-1.423-16.853 0.632-3.85 1.74-7.543 3.322-11.077 0.688-1.634 1.582-3.244 2.69-4.826 0.475-0.633 0.95-1.292 1.425-1.978-0.16 0.843-0.316 1.661-0.476 2.453-1.897 9.653-1.979 16.879-0.236 21.679 0.791 0.95 1.187 1.187 1.187 0.712-0.159-0.792-0.238-1.662-0.238-2.611 0.634-5.486 2.717-10.708 6.251-15.666 1.794-2.742 3.825-5.17 6.094-7.279-0.687 1.002-1.268 2.136-1.742 3.402-0.632 1.425-1.187 2.955-1.661 4.59-1.266 4.799-1.661 10.179-1.187 16.14 0.632 0.792 0.948 1.029 0.948 0.712 0.477-3.692 1.029-6.989 1.663-9.89 4.168-6.911 10.127-12.923 17.883-18.04 3.691-2.428 7.464-4.537 11.312-6.33-1.318 0.843-2.531 1.74-3.639 2.69-2.109 1.582-3.956 3.35-5.539 5.301-3.691 4.324-5.774 8.993-6.251 14.004 0 0.158 0.161 0.396 0.477 0.711 0.315 0.476 0.555 0.554 0.711 0.238 0.476-1.318 1.029-2.612 1.662-3.877 6.276-4.8 12.712-8.651 19.305-11.551 1.95-0.95 3.877-1.847 5.776-2.69 2.269-0.791 4.431-1.424 6.487-1.899 6.911-1.74 12.369-1.344 16.379 1.187-6.225-0.158-11.444 0.238-15.665 1.187-3.691 0.845-7.779 2.875-12.264 6.092 1.266-0.527 2.638-1.028 4.115-1.503 8.491-2.216 16.034-3.086 22.628-2.611 1.479 0.158 2.85 0.316 4.115 0.475 2.427 0.316 4.669 0.87 6.726 1.661-2.057-0.316-4.299-0.316-6.726 0-1.107 0.158-2.24 0.396-3.4 0.712-1.108 0.316-3.351 0.896-6.726 1.741-0.317 0.158-0.555 0.237-0.713 0.237-3.851 0.95-4.246 1.187-1.187 0.711 1.741-0.157 3.086-0.316 4.036-0.474 2.269 0.158 3.48 0.237 3.64 0.237 7.702 0.475 14.928 2.479 21.68 6.014 6.433 3.375 11.42 7.781 14.952 13.212-3.06-2.057-6.277-3.561-9.653-4.509-4.8-1.478-8.966-1.556-12.5-0.238-0.159 0.158-0.159 0.316 0 0.475 0.316 0.316 0.555 0.474 0.712 0.474 4.958 0 10.101 0.871 15.429 2.611 2.743 1.318 5.143 2.849 7.2 4.589 0.476 0.475 0.975 1.028 1.503 1.661 1.742 1.951 3.589 4.379 5.539 7.279 0 0.159 0.159 0.554 0.474 1.187-0.314-0.317-0.659-0.554-1.027-0.712-0.632-0.475-1.266-0.95-1.899-1.424-3.058-2.109-5.538-3.639-7.436-4.589-3.533-1.793-6.435-2.374-8.703-1.741-0.159 0-0.081 0.186 0.236 0.554 0.316 0.316 0.555 0.554 0.712 0.711 2.109 0.95 4.93 2.137 8.466 3.561 0.316 0.159 0.633 0.502 0.95 1.029 2.426 1.898 4.272 3.561 5.538 4.984 2.9 2.901 5.064 7.015 6.489 12.343 0.159 0.475 0.236 0.95 0.236 1.424-0.159-0.474-0.396-0.87-0.711-1.187-0.95-1.318-1.978-2.61-3.086-3.876-2.109-2.058-4.035-3.667-5.775-4.827-2.741-2.057-5.169-2.848-7.279-2.374l0.236 0.475 0.476 0.475c0.632 0.316 2.321 1.187 5.063 2.611 1.003 0.845 1.742 1.425 2.215 1.741 1.267 0.95 2.216 2.136 2.85 3.561 0.95 1.793 1.845 4.458 2.688 7.992 0.477 2.109 1.029 5.484 1.663 10.127-0.95-1.479-2.164-2.928-3.641-4.352-3.218-3.692-6.514-6.014-9.891-6.962-0.315-0.158-0.315 0 0 0.475l0.555 0.474h0.236v0.238c0.159 0.316 0.396 0.474 0.713 0.474 1.899 1.108 3.351 3.112 4.352 6.013 0.791 3.061 1.027 6.12 0.712 9.178-0.316 3.059-0.74 5.063-1.267 6.013-0.475-2.584-1.187-5.063-2.138-7.437-0.791-1.637-1.661-3.086-2.609-4.352-0.843-0.95-2.294-2.48-4.352-4.59 0.159 4.483 0.555 8.415 1.187 11.79 0.316 1.477 0.555 2.927 0.712 4.352-1.107-2.901-2.638-5.961-4.588-9.178-0.159-0.159-0.555-0.475-1.187-0.95-0.791-0.475-1.187-0.554-1.187-0.237v8.229c-0.477-1.001-1.056-2.057-1.742-3.165-1.741-3.533-3.165-6.198-4.272-7.991v-0.475c-0.159-0.316-0.66-0.791-1.502-1.424-0.634-0.475-0.951-0.475-0.951 0 0.475 3.533 0.633 7.069 0.475 10.603 0 0.791-0.078 1.53-0.236 2.215-0.159-0.686-0.396-1.266-0.712-1.741-0.633-1.582-1.188-2.873-1.661-3.876-1.952-3.534-4.115-6.33-6.489-8.388-0.159-0.158-0.422-0.316-0.791-0.474-0.475-0.159-0.632 0-0.475 0.474 0.475 1.267 0.975 2.638 1.502 4.115-3.85-3.534-7.727-5.803-11.63-6.804-2.059-0.475-3.641 0.104-4.747 1.74-0.527 2.058-1.108 3.007-1.742 2.849-0.632-0.158-1.741-0.237-3.324-0.237-0.159 0-0.159 0.158 0 0.475 0 0.158 0.079 0.316 0.236 0.474 0.317 0.527 1.108 2.058 2.374 4.59 0.475 0.791 0.159 1.609-0.95 2.453-0.632 0.316-1.528 0.712-2.689 1.187-0.316 0.158-0.054 0.633 0.792 1.424 0.474 0.476 0.87 0.792 1.187 0.95 0.791 0.527 1.897 1.424 3.322 2.69 0.159 0.158 0.317 0.316 0.477 0.475-0.477 0.474-1.108 1.108-1.899 1.899-0.95 1.16-1.742 1.979-2.374 2.453-0.315 0.317-0.159 0.792 0.477 1.424 0.632 0.633 1.106 1.028 1.423 1.187l2.688 1.267c-0.367 0.316-0.791 0.711-1.266 1.187-0.791 0.949-1.503 1.583-2.137 1.898-0.315 0.317-0.079 0.871 0.712 1.662 0.633 0.685 1.106 1.107 1.424 1.266 0.844 0.317 2.373 0.87 4.588 1.661v0.238h0.476c0.475 0.158 0.633 0.079 0.475-0.238h3.165c1.582 0.317 2.637 1.108 3.165 2.374 0.475 1.478 0.21 3.667-0.791 6.567 0 0.316 0.343 0.792 1.027 1.424 0.632 0.474 1.027 0.633 1.187 0.474v-0.237c1.742-1.792 3.271-3.323 4.588-4.589v7.2c-0.157 0.527 0.081 1.029 0.713 1.504 0.632 0.474 1.027 0.554 1.187 0.237 0-0.159 0.976-2.401 2.929-6.726 0.791-1.792 2.057-0.527 3.797 3.798 0.316 1.793 0.396 3.323 0.236 4.589 0 0.475 0.343 1.029 1.027 1.662 0.792 0.685 1.268 0.87 1.425 0.554h0.236v-0.317c2.058-3.533 3.509-6.962 4.353-10.286 0.95 4.325 1.582 9.363 1.897 15.112 0.159 1.952 0.791 6.461 1.899 13.53 1.001-0.95 1.661-1.662 1.978-2.136 0.316-1.001 0.87-2.532 1.661-4.589 0.317-0.687 0.555-1.345 0.713-1.978v-0.237c0.791-3.692 1.027-8.098 0.712-13.213 0.685 1.898 1.266 3.903 1.74 6.013 0.476 1.741 1.187 4.379 2.137 7.912 0.477 1.793 0.792 3.482 0.951 5.064 0.474 1.634 0.712 3.745 0.712 6.33v4.984c0.158-0.158 0.315-0.317 0.475-0.475 0.21-0.158 0.95-1.583 2.215-4.273 0-0.158 0.08-0.343 0.236-0.554 0.159-1.107 0.316-2.294 0.476-3.561 0.475-3.85 0.236-7.621-0.712-11.314 2.269 6.594 3.877 12.211 4.827 16.853 0.157 0.791 0.315 1.583 0.475 2.374 0.95 6.278 1.027 12.395 0.236 18.356v2.374l-0.475 3.877c2.215-2.584 4.06-4.827 5.539-6.725 0.474-1.161 0.95-2.295 1.423-3.403 0.316-1.107 0.87-3.269 1.661-6.487 0.369-1.161 0.634-2.216 0.791-3.165 0.159 3.534 0.079 6.99-0.236 10.365-0.159 4.325-0.896 8.834-2.214 13.529-0.159 1.108-0.317 2.719-0.475 4.828-0.634 2.531-1.188 4.694-1.663 6.487 1.582-1.107 3.112-2.321 4.588-3.64-3.691 8.018-7.488 15.007-11.392 20.968l0.791-0.952h4.271c-1.106 3.693-2.374 7.702-3.797 12.029-1.002 2.741-2.294 5.325-3.876 7.751h0.949c0.633-0.844 2.083-2.213 4.352-4.113 1.951-2.111 3.641-4.433 5.063-6.964-0.632 6.067-5.617 13.136-14.954 21.205-7.068 6.225-13.501 10.787-19.304 13.686l0.791-0.711c1.106-1.897 2.872-5.353 5.302-10.366 2.374-4.957 3.876-8.489 4.51-10.601-3.533 4.009-6.25 6.911-8.149 8.703-3.375 3.534-6.196 5.303-8.467 5.303 2.587-2.586 8.308-15.693 17.171-39.324-2.584 2.901-4.693 5.248-6.33 7.04-2.848 3.378-5.327 5.064-7.437 5.064 2.427-3.692 4.51-9.257 6.25-16.694 2.428-10.444 3.165-21.521 2.214-33.231v2.69c-0.526 5.431-2.057 9.917-4.588 13.451-2.109 2.267-3.72 4.193-4.826 5.775 0.475-0.949 0.95-1.662 1.424-2.137 0.159-0.158 0.555-1.609 1.187-4.352v-24.844c-0.95 1.002-2.295 4.802-4.035 11.394-1.794 6.698-3.245 10.629-4.352 11.789v-0.949c1.266-1.636 0.765-6.937-1.504-15.904-2.532-10.443-3.797-15.929-3.797-16.457v0.791c0 1.583-0.159 3.983-0.476 7.201-0.157 3.058-0.236 4.905-0.236 5.538-2.269-0.633-6.699-2.955-13.292-6.963-5.803-3.534-9.099-5.723-9.89-6.567 0.791 0 1.688-0.237 2.69-0.712 0.949-0.317 1.423-0.712 1.423-1.187-2.585 0-9.415-2.322-20.492-6.963-11.709-5.169-18.856-8.229-21.441-9.178 0.632 0 1.529 0.316 2.69 0.949 1.423-0.158 4.299 0.423 8.623 1.741 2.585 0.633 4.432 1.107 5.538 1.424-1.423-1.318-4.643-2.769-9.653-4.352-5.117-1.583-9.44-4.062-12.975-7.438-4.168-3.851-7.622-8.123-10.366-12.818-1.266-2.742-2.241-4.668-2.927-5.776 1.95 0.95 7.831 3.929 17.643 8.94 3.924 1.801 7.246 3.317 9.969 4.55-9.552-4.72-18.494-11.855-26.82-21.402-9.18-10.602-15.536-22.102-19.07-34.497 2.585 3.217 5.801 6.752 9.654 10.602 0.317 0.316 0.632 0.475 0.95 0.475 0.315 0 0.315-0.159 0-0.475-0.791-1.107-1.503-2.136-2.137-3.085 0.475 0.475 0.632 0.554 0.475 0.237-3.692-5.961-6.118-12.316-7.279-19.068-0.951-5.803-0.872-11.579 0.236-17.328 0 2.901 0.343 5.855 1.029 8.862 0.474 2.425 1.187 4.774 2.137 7.042 0.791 2.216 1.845 4.378 3.165 6.488 0.632 0.633 0.87 0.792 0.711 0.475-1.001-2.581-1.818-5.061-2.451-7.435zm17.881 166c1.898-0.476 4.142-0.952 6.725-1.425 0.634-0.157 0.238-0.975-1.187-2.452-0.315-0.159-0.658-0.317-1.026-0.475-0.633-0.317-1.425-0.634-2.373-0.952 1.106 0 2.16 0.08 3.165 0.238 3.216 0.157 6.673 0.87 10.364 2.136 2.789 0.998 5.333 2.157 7.636 3.481 0.752 0.431 1.479 0.882 2.176 1.346 2.109 1.32 3.956 2.689 5.537 4.115 0.369 0.475 0.712 0.87 1.027 1.188l0.238 0.236c0.948 2.583 2.214 6.62 3.797 12.104v1.899c0.844-4.643 1.346-8.256 1.502-10.843 0.144-1.145 0.223-2.12 0.236-2.927v1.74c0.95-4.851-0.817-11.841-5.301-20.967-5.803-10.127-9.73-17.196-11.789-21.204v0.949c0.95 1.741 2.214 4.958 3.797 9.652 1.478 4.167 2.532 7.544 3.165 10.128-1.43-2.812-6.163-7.032-14.202-12.66-1.157-0.816-2.386-1.66-3.68-2.531-10.232-7.068-17.116-10.602-20.65-10.602 0.949 0.949 2.136 2.559 3.561 4.826 0.792 1.266 1.369 2.295 1.74 3.086-0.844-0.633-1.502-1.108-1.978-1.424-0.792-0.633-1.661-1.108-2.61-1.425v9.415h-2.452c-1.108-1.16-2.295-2.611-3.561-4.352-1.159-1.318-1.979-2.137-2.454-2.453v13.768c-3.375-2.742-6.514-5.247-9.416-7.517-4.958-3.85-8.411-5.935-10.364-6.251 1.16 3.692 2.057 5.962 2.69 6.805v8.625h-1.662l-3.639-4.352v0.711c0 0.688 0.315 1.979 0.949 3.878 0.634 2.109 0.949 3.402 0.949 3.877-0.632-0.475-1.502-1.847-2.61-4.114v8.466c-4.166 0.157-6.357 1.53-6.567 4.113-0.158 3.324-0.792 5.407-1.899 6.251-2.267-2.9-3.718-4.59-4.352-5.063 0 1.266-0.792 3.824-2.374 7.676-1.793 4.167-3.323 6.753-4.588 7.753-0.474-1.318-0.712-2.77-0.712-4.353h-0.949c-1.003 2.586-1.899 4.826-2.69 6.726-1.583 3.853-3.271 6.172-5.064 6.964 0.633-4.645 0.949-7.517 0.949-8.625-1.583 1.266-3.825 2.874-6.725 4.826-2.901 1.899-4.667 2.848-5.301 2.848 0-0.157 0.317-0.87 0.949-2.136 0.476-1.107 0.712-1.739 0.712-1.898-3.375 0-6.092 0.555-8.148 1.661l-3.403 1.662h-4.826c-3.851 0.792-8.914 2.717-15.192 5.775h-3.323v-0.713c2.216-3.058 3.587-5.377 4.114-6.96-0.315 0-0.58-0.08-0.791-0.237v-0.475h-16.375c-1.583 1.741-3.191 2.609-4.826 2.609-1.583-1.423-3.429-2.874-5.539-4.352-4.008-2.85-8.097-4.271-12.264-4.271-4.483 0-7.702 0.157-9.654 0.474-1.583 0.159-3.191 0.475-4.826 0.951 0.686-0.315 1.424-0.633 2.216-0.951 2.057-0.844 3.165-1.741 3.322-2.69 0-0.157-0.157-0.314-0.474-0.474-0.158-0.317-0.317-0.475-0.475-0.475-0.95-0.317-2.057-0.238-3.324 0.234-1.318 0.791-2.293 1.268-2.927 1.425l-7.438 2.927c-1.159 0.317-2.057 0.557-2.69 0.713-0.475 0.159-0.87 0.238-1.187 0.238l1.663-2.374c4.324-1.952 8.358-4.142 12.104-6.567-0.368-0.317-0.632-0.475-0.791-0.475-2.057 0.157-5.012 1.056-8.861 2.69-1.792 0.791-3.324 1.423-4.589 1.899 2.9-5.805 7.886-10.393 14.954-13.768 8.176-4.168 16.274-5.354 24.29-3.561 3.534 0.791 6.594 1.423 9.179 1.899 1.74-0.791 5.274-0.477 10.601 0.948 0.791 0.158 1.663 0.317 2.612 0.475 6.594 1.794 10.128 2.69 10.603 2.69 1.318 0 2.69-0.475 4.113-1.425 1.793-1.476 2.69-3.243 2.69-5.301 0-1.158-0.5-2.373-1.503-3.639-0.949-1.108-1.423-2.085-1.423-2.928 0-1.108 1.451-2.532 4.352-4.272 2.901-1.635 4.352-3.086 4.352-4.353 0-0.474-0.977-1.687-2.929-3.639-1.899-1.899-2.848-3.904-2.848-6.014h-3.639l-7.912 2.374c-1.635 0-3.086-0.554-4.352-1.662-1.792-1.898-3.403-3.588-4.826-5.064-1.108 1.953-1.927 3.957-2.454 6.014-1.582 0-3.825-0.553-6.725-1.661-2.584-1.266-3.956-1.898-4.114-1.898-1.74 0-3.586 0.554-5.539 1.661-2.216 1.266-4.141 2.295-5.776 3.086-6.118 3.217-14.135 4.826-24.052 4.826h-0.476c-2.109-0.633-4.06-1.346-5.854-2.137h-0.238c-0.317-0.475-0.634-0.791-0.949-0.949h-0.951c-0.632-0.158-1.187-0.395-1.661-0.712s-0.553-0.237-0.238 0.237c0 0.154 0.08 0.232 0.238 0.237h-2.69c-0.317-0.157-0.712-0.237-1.187-0.237v-0.237c0.159-1.001 0.317-1.978 0.475-2.928 0.159 0.159 0.317 0.159 0.476 0 0.632-9.811 2.979-21.706 7.041-35.683 2.374-8.176 5.011-14.743 7.912-19.702 4.009-7.068 8.915-11.972 14.718-14.716 0.158 0 0.236-0.08 0.236-0.237 3.217-0.792 5.698-2.718 7.438-5.777 0.633-1.476 1.768-4.773 3.403-9.89 1.582-5.169 4.878-8.94 9.89-11.314 6.275-2.742 11.077 1.424 14.399 12.501 0.527 0.634 0.87 1.029 1.029 1.187-0.159 1.002-0.396 1.978-0.712 2.927-0.369 0.95-0.633 1.82-0.791 2.611-0.159-0.157-0.317-0.237-0.475-0.237-5.116-0.316-8.889 0.185-11.315 1.503 0.158 0.475 0.317 0.711 0.475 0.711 2.426 0.159 6.12-0.237 11.077-1.187-0.949 3.323-1.504 5.565-1.662 6.725l0.238 0.475 0.474 0.237c2.426-3.85 4.352-8.202 5.775-13.055 1.161-4.958 2.137-8.387 2.929-10.286 1.74-3.217 4.537-3.138 8.386 0.237 6.911 6.226 10.443 12.712 10.603 19.464 0 1.951-0.159 4.852-0.474 8.703-0.317 3.692-0.476 6.487-0.476 8.387 0 0.21 0.238 0.633 0.712 1.266 0.686 0.634 1.108 0.791 1.266 0.475 1.425-2.742 2.374-5.565 2.85-8.466 2.109-0.317 3.797-0.554 5.063-0.712h1.899l-2.61 1.899c-0.633 0.369 0.158 1.345 2.374 2.928 0.685 0.159 2.374 0.396 5.063 0.711h0.476c-0.317 0.317-0.633 0.554-0.95 0.713-0.317 0.316-0.079 0.897 0.712 1.741 0.527 0.633 1.029 1.028 1.503 1.187 1.108 0.633 2.875 1.345 5.301 2.137 0.633 0.158 1.187 0.316 1.661 0.474-0.949 1.16-1.661 2.215-2.136 3.165-0.685 1.741-0.685 3.666 0 5.775 0.158 0.159 0.396 0.476 0.712 0.95 0.317 0.317 0.553 0.396 0.712 0.237 0.632-0.633 1.423-1.82 2.374-3.561 1.476 0 3.664-0.185 6.566-0.554 3.691 0 6.093 0.66 7.2 1.978 0.95 1.108 2.401 2.058 4.352 2.849 0.95 0.475 2.559 0.396 4.826-0.237 1.267-0.475 2.874-1.108 4.828-1.899 4.483-1.266 11.208-2.084 20.176-2.453 3.573-0.16 7.066-0.121 10.483 0.118 10.12 0.716 19.575 3.181 28.365 7.398 12.027 5.59 21.891 14.188 29.59 25.793 8.388 12.343 13.768 26.716 16.141 43.121-0.159 1.583-0.316 3.271-0.475 5.064-1.425 21.203-3.429 34.944-6.014 41.222-3.852 9.918-7.622 16.167-11.313 18.751-0.376 0.228-0.732 0.438-1.068 0.634-1.07 0.615-1.929 1.063-2.571 1.345-1.108 0.791-2.059 1.82-2.85 3.086-0.475-0.317-0.87-0.792-1.187-1.424-0.369-0.791-0.555-1.423-0.555-1.897-2.215 1.106-4.3 4.378-6.25 9.81-1.576 4.519-2.367 7.804-2.373 9.852-8e-3 -0.305-0.166-0.765-0.477-1.385-0.474-0.95-0.895-1.925-1.266-2.928 0.527-0.477 0.132-0.711-1.185-0.711-1.743 0-3.51 1.529-5.304 4.586-1.74 3.219-2.849 4.828-3.322 4.828-2.271 0-4.457-1.213-6.568-3.641-2.057-2.689-3.399-4.378-4.034-5.063v10.365c-5.171-4.799-9.522-13.293-13.056-25.479-3.534-12.236-4.325-21.15-2.373-26.741-1.002 0.315-2.374 2.479-4.115 6.487-0.792 1.899-1.347 3.508-1.661 4.828 0.159-2.111 0.474-5.091 0.95-8.94 0.791-7.542 1.503-12.053 2.136-13.529v-0.951c-2.901 3.217-5.458 6.119-7.675 8.703v0.952h-0.712c0.159-0.317 0.396-0.634 0.712-0.952 0.158-3.06 2.082-7.489 5.775-13.29 3.217-4.961 5.774-8.414 7.676-10.366-0.634 0.528-2.242 1.423-4.826 2.688-1.268 0.792-2.295 1.348-3.086 1.663-0.317 0.476-0.713 0.976-1.188 1.502v-1.026c0.158 0 0.554-0.16 1.188-0.476 2.9-3.06 6.277-6.357 10.126-9.89 4.643-4.009 7.357-6.015 8.148-6.015-0.791 0-2.716 0.476-5.774 1.425-2.741 1.001-4.511 1.422-5.302 1.266h-0.713c0.481-1.146 1.534-2.519 3.171-4.101zm-97.873-90.358c0.158-0.474 0.317-0.87 0.475-1.187 0.157-0.316 0.238-2.584 0.238-6.804 0-3.375-0.159-5.617-0.476-6.726 0 0.317-0.158 0.475-0.474 0.475-0.158 0.475-0.317 0.712-0.475 0.712s-0.553 0.158-1.187 0.475c-0.791-0.949-1.372-2.531-1.74-4.748v-4.826h-1.187c-0.633 0.792-1.108 1.187-1.425 1.187s-0.553 0-0.712 0c0-0.317-0.158-0.475-0.474-0.475-0.158-1.636-0.238-5.011-0.238-10.128-0.474 0.475-0.975 0.871-1.502 1.187v-0.237l-0.95-0.712c-0.158 0.475-0.317 0.949-0.475 1.424-2.057 4.852-2.531 11.92-1.425 21.204 0.317 2.584 1.187 4.589 2.612 6.013 0.316 0.316 0.553 0.554 0.712 0.712-0.159 0.844-0.317 1.819-0.475 2.927-0.159 0.475 0.184 1.107 1.028 1.898 0.791 0.687 1.346 0.923 1.661 0.712 1.742-0.949 3.192-1.819 4.352-2.611l0.95 4.589c0.949 0.95 1.423 1.187 1.423 0.712 0.318-1.263 0.239-3.188-0.236-5.773zm-47.71 32.044c0.159 1.267 0.633 2.058 1.425 2.374l0.236 0.238c0.527 0.527 0.95 0.792 1.267 0.792 1.74-0.159 4.455-0.502 8.148-1.029 3.06-0.633 5.486-1.82 7.28-3.561 1.423-1.476 2.374-2.927 2.848-4.352 0.316-1.476 0.236-2.77-0.238-3.876 0.317 0 0.238-0.317-0.236-0.95-1.952-2.584-4.511-4.193-7.676-4.826-3.375-0.634-6.435-0.158-9.178 1.424-2.584 1.477-3.877 4.852-3.877 10.127 1e-3 2.109 1e-3 3.323 1e-3 3.639zm-30.383 28.168c1.003 1.318 2.059 2.215 3.165 2.689 3.376 0.949 5.619 1.107 6.725 0.475 0-0.158-0.079-0.395-0.236-0.712-0.317-0.474-0.555-0.712-0.712-0.712-2.743-2.428-5.803-3.64-9.178-3.64-0.634 1e-3 -0.555 0.633 0.236 1.9zm169.87-80.229c-0.159-0.158-0.317-0.237-0.475-0.237v-0.95c6e-3 0.167 0.163 0.563 0.475 1.187zm0.553 80.466c0.317 0.158 0.557 0.316 0.713 0.474v1.029c-0.158-0.526-0.396-1.029-0.713-1.503zm35.843 34.735c-0.159-0.317-0.238-0.555-0.238-0.713h0.951c0.211 0.317 0.555 1.188 1.027 2.612-0.475-0.791-1.054-1.425-1.74-1.899z" fill="#c60"/>
	<path d="m279.47 152.08v-0.475c0.315 0.158 0.234-0.079-0.238-0.712-8.546-5.644-13.608-9.257-15.19-10.839-4.01-3.534-6.674-7.544-7.993-12.027 2.585 2.849 5.962 5.407 10.128 7.675 0.792 0.475 1.689 0.87 2.69 1.187 3.218 1.635 6.409 2.848 9.574 3.639 0.528 0.159 1.029 0.317 1.503 0.475v-0.237c0.158 0 0.396 0.079 0.713 0.237-1.479-1.108-3.007-2.322-4.59-3.64-5.116-4.799-8.889-8.73-11.315-11.789-1.318-1.424-2.452-2.875-3.401-4.352-2.216-3.375-3.746-6.831-4.59-10.365 1.635 2.9 4.061 5.803 7.28 8.703 1.106 0.792 3.825 2.56 8.148 5.302 4.166 2.584 7.543 4.114 10.128 4.589 0.317 0.158 1.29 0.396 2.927 0.712-1.001-1.108-2.608-2.875-4.826-5.301-4.694-4.799-8.624-9.284-11.789-13.451-3.217-4.379-5.328-7.358-6.33-8.941-3.217-5.486-5.301-10.945-6.251-16.378 2.109 5.116 5.17 10.101 9.179 14.954 1.106 1.266 2.242 2.532 3.401 3.798 2.533 2.742 5.248 5.249 8.15 7.517-1.899-3.218-5.434-10.867-10.603-22.945-0.474-3.533-0.949-6.726-1.425-9.573 0.317 0.316 0.634 0.711 0.951 1.187 1.108 1.74 2.4 3.587 3.877 5.539 0.315 0.475 0.711 0.949 1.187 1.424 3.533 12.395 9.89 23.895 19.068 34.496 8.328 9.547 17.27 16.682 26.822 21.402-2.725-1.232-6.047-2.749-9.971-4.549-9.81-5.012-15.692-7.991-17.643-8.941 0.686 1.108 1.661 3.034 2.927 5.776 2.743 4.695 6.198 8.968 10.366 12.818 3.534 3.375 7.859 5.855 12.975 7.438 5.012 1.583 8.229 3.034 9.655 4.352-1.108-0.316-2.955-0.791-5.539-1.424-4.325-1.318-7.201-1.899-8.624-1.741-1.16-0.633-2.057-0.95-2.69-0.95 2.585 0.95 9.732 4.009 21.441 9.178 11.077 4.643 17.909 6.963 20.493 6.963 0 0.474-0.475 0.87-1.424 1.187-1.003 0.475-1.899 0.712-2.69 0.712 0.791 0.844 4.088 3.033 9.891 6.567 6.592 4.01 11.025 6.33 13.291 6.963 0-0.634 0.08-2.48 0.238-5.539 0.315-3.219 0.475-5.618 0.475-7.201v-0.791c0 0.527 1.266 6.014 3.797 16.457 2.27 8.967 2.769 14.269 1.503 15.904v0.949c1.106-1.16 2.558-5.091 4.352-11.789 1.742-6.594 3.085-10.392 4.035-11.394v24.845c-0.632 2.742-1.027 4.193-1.187 4.352-0.475 0.475-0.95 1.187-1.424 2.137 1.108-1.583 2.717-3.51 4.826-5.776 2.533-3.534 4.063-8.019 4.59-13.451v-2.69c0.949 11.71 0.212 22.787-2.216 33.231-1.74 7.438-3.823 13.003-6.249 16.694 2.109 0 4.588-1.687 7.436-5.064 1.637-1.792 3.746-4.138 6.33-7.04-8.861 23.631-14.584 36.738-17.169 39.324 2.269 0 5.091-1.767 8.466-5.303 1.898-1.792 4.615-4.694 8.149-8.703-0.633 2.111-2.137 5.644-4.511 10.602-2.428 5.013-4.192 8.468-5.302 10.366l-0.791 0.71c5.803-2.898 12.235-7.462 19.306-13.685 9.335-8.073 14.32-15.139 14.952-21.205-1.423 2.534-3.112 4.852-5.063 6.963-2.27 1.897-3.719 3.27-4.352 4.113h-0.95c1.583-2.426 2.874-5.01 3.876-7.751 1.423-4.325 2.69-8.336 3.797-12.029h-4.271l-0.791 0.952c3.903-5.962 7.7-12.951 11.392-20.968 1.899-1.741 3.589-3.903 5.064-6.488 1.899-3.375 3.165-7.067 3.797-11.077 0.316 3.535 0.236 6.593-0.236 9.178-0.159 0.792-0.316 1.661-0.475 2.61-0.634 2.109-1.504 4.273-2.611 6.488-1.316 2.426-3.322 5.091-6.013 7.991-0.843 0.791-2.873 2.955-6.094 6.488-3.006 2.269-2.584 2.9 1.268 1.899 3.851-0.95 10.918-4.802 21.203-11.553-1.635 5.487-4.301 10.392-7.992 14.718-3.216 4.007-7.699 8.993-13.451 14.954 4.17-0.792 7.94-1.926 11.315-3.403 3.375-1.582 6.013-3.508 7.912-5.776-6.119 17.987-19.358 32.863-39.72 44.625v0.237c-1.003 0.475-2.059 0.87-3.165 1.188 0.315 0.474 0.555 0.632 0.711 0.474 5.803-1.107 10.47-2.479 14.006-4.113 3.06-1.268 5.618-2.876 7.675-4.827-0.791 1.158-1.582 2.532-2.373 4.115-1.95 3.06-4.035 5.617-6.251 7.674-2.585 2.426-5.803 4.696-9.652 6.804-2.269 1.108-5.882 2.797-10.841 5.064-0.476 0.159-0.236 0.791 0.711 1.899 0.792 0.948 1.504 1.344 2.138 1.187 4.378-0.949 7.676-1.74 9.89-2.374 1.003-0.316 1.979-0.633 2.929-0.948-3.851 3.004-6.198 4.851-7.042 5.538-0.949 0.791-1.979 1.502-3.085 2.136-4.008 2.427-8.017 4.273-12.027 5.539-3.693 1.107-8.915 2.242-15.665 3.402-4.962 0.831-8.918 1.57-11.868 2.213 1.491-2.568 2.626-4.757 3.401-6.564 0.633 0.315 0.951 0.396 0.951 0.234 10.601-17.354 14.532-38.16 11.787-62.425-0.948-8.493-2.609-16.589-4.983-24.291-4.062-13.187-10.101-25.082-18.117-35.684-6.595-8.546-14.533-15.456-23.817-20.73-9.019-4.958-19.067-8.256-30.145-9.89-0.892-0.113-1.788-0.204-2.69-0.277-2.982-1.777-7.544-3.926-13.686-6.448-1.637-0.633-3.165-1.214-4.59-1.741-4.483-2.057-7.938-3.983-10.364-5.776-0.792-0.475-2.164-1.82-4.115-4.036-1.898-2.267-1.661-2.531 0.712-0.791 4.537 3.061 7.912 5.328 10.128 6.805 1.635 0.95 3.086 1.661 4.352 2.136 1.423 0.633 2.796 1.187 4.114 1.662h0.475c2.426 0.685 4.747 0.949 6.962 0.791 0.316-0.158-0.079-0.739-1.188-1.741-0.788-0.16-1.5-0.318-2.132-0.476zm83.075 88.457c0.477 4.324 0.819 8.809 1.027 13.451 0.792 18.515-1.951 37.794-8.227 57.837-3.219 4.537-5.064 7.121-5.539 7.755-0.197 0.298-0.396 0.604-0.593 0.91-1.79 2.88-3.042 5.637-3.759 8.268-0.476 1.739-0.08 4.061 1.187 6.963 0.159 0.475 0.58 1.422 1.266 2.849 0.792 1.16 1.266 2.135 1.424 2.927 0.476 1.266 0.396 2.559-0.236 3.877-0.159 0.475-0.396 0.87-0.713 1.187h-0.236c-1.16 0.158-2.61 0.634-4.352 1.425-5.171 0.631-12.078 1.924-20.729 3.876-10.444 2.269-18.146 3.72-23.104 4.352-0.529 0-3.112-0.159-7.753-0.476-3.379-0.315-5.855 0.08-7.438 1.187-0.526 0.316-1.503 1.029-2.928 2.139-0.159 0.315-0.791 1.054-1.898 2.213-0.844 0.791-1.16 0.872-0.95 0.238 0-0.317-0.422-0.896-1.267-1.743-0.791-0.791-1.345-1.026-1.661-0.711l-0.951 1.741c-0.792 1.424-1.767 1.424-2.927 0h0.239c0.158-0.526-0.238-1.187-1.187-1.978-0.792-0.791-1.346-1.028-1.662-0.713-0.476 0.952-0.791 1.847-0.95 2.69-0.527 0.632-1.108 1.188-1.74 1.661-1.425 1.425-2.533 1.504-3.324 0.238-0.842-1.268-0.923-2.401-0.236-3.402 0.157-0.315 0.316-0.554 0.474-0.711 0.158-0.477-0.264-1.106-1.266-1.898-0.791-0.791-1.346-1.028-1.661-0.712l-0.238 0.236c-1.899 2.741-2.955 4.192-3.165 4.352-0.949 0.95-1.661 1.027-2.136 0.236 0.158-0.844 0.158-1.661 0-2.452 0-1.899 0.079-3.27 0.236-4.117 0.317-1.582 1.292-2.688 2.929-3.322 1.106-0.475 2.715-0.87 4.826-1.187 2.69-0.368 6.778-0.554 12.263-0.554 4.168-0.16 7.62-1.269 10.365-3.325 0.95 0.475 1.898 0.87 2.848 1.187 0.528 0 0.369-0.396-0.475-1.187-0.475-0.316-0.948-0.713-1.423-1.187-0.159-0.158-0.315-0.344-0.476-0.554-0.315-0.316-0.554-0.476-0.711-0.476-2.742-2.374-5.17-5.406-7.28-9.1-2.69-5.801-4.774-10.232-6.251-13.291-2.901-5.435-4.826-9.202-5.775-11.314-1.899-4.167-3.271-8.097-4.115-11.787-1.423-6.91-1.423-13.742 0-20.494 1.161-5.326 3.086-9.571 5.776-12.736 1.318-1.638 2.848-3.088 4.588-4.352 0.317-0.161 0.079-0.581-0.712-1.269-0.632-0.633-1.187-0.949-1.661-0.949l-1.423 0.236c0.317-0.159 0.792-0.711 1.423-1.662 0.634-0.631 2.085-2.005 4.352-4.114 2.216-1.899 4.933-3.983 8.15-6.251 0.475-0.316 0.316-0.791-0.475-1.423 2.269-1.478 5.012-2.61 8.229-3.401 1.266-0.317 2.795-0.634 4.586-0.95-1.635 1.582-2.688 2.953-3.165 4.115h0.713c0.791 0.157 2.559-0.265 5.302-1.266 3.06-0.952 4.983-1.425 5.775-1.425-0.792 0-3.508 2.006-8.148 6.013-3.852 3.534-7.227 6.832-10.127 9.89-0.634 0.317-1.029 0.478-1.187 0.478v1.026c0.474-0.527 0.87-1.026 1.187-1.504 0.791-0.313 1.818-0.87 3.086-1.661 2.584-1.266 4.191-2.16 4.826-2.69-1.899 1.952-4.457 5.407-7.676 10.368-3.693 5.801-5.619 10.229-5.775 13.29-0.316 0.316-0.555 0.633-0.712 0.951h0.712v-0.951c2.215-2.584 4.774-5.486 7.675-8.704v0.952c-0.631 1.476-1.345 5.986-2.136 13.528-0.475 3.853-0.791 6.83-0.95 8.939 0.315-1.318 0.871-2.927 1.662-4.826 1.74-4.009 3.112-6.169 4.114-6.487-1.952 5.591-1.161 14.505 2.373 26.74 3.534 12.186 7.887 20.679 13.056 25.479v-10.366c0.634 0.687 1.978 2.374 4.034 5.063 2.111 2.428 4.3 3.642 6.568 3.642 0.475 0 1.582-1.609 3.322-4.828 1.794-3.058 3.561-4.586 5.304-4.586 1.316 0 1.712 0.234 1.186 0.71 0.369 1.003 0.791 1.979 1.266 2.929 0.309 0.62 0.468 1.08 0.476 1.385 6e-3 -2.048 0.797-5.331 2.374-9.852 1.95-5.434 4.034-8.703 6.249-9.81 0 0.475 0.184 1.106 0.555 1.897 0.316 0.632 0.712 1.106 1.187 1.423 0.791-1.266 1.742-2.294 2.85-3.086 0.644-0.281 1.501-0.729 2.571-1.344 0.336-0.196 0.692-0.408 1.068-0.634 3.691-2.584 7.466-8.833 11.313-18.751 2.585-6.277 4.588-20.019 6.015-41.224 0.157-1.785 0.315-3.473 0.472-5.056zm-165.28-90.119c-0.159-0.316-0.238-0.711-0.238-1.187-0.158-0.475-0.553-0.976-1.187-1.503-0.632-0.633-1.187-0.792-1.661-0.475-0.527 0.316-1.266 0.818-2.216 1.503 0.159-1.16 0.396-2.136 0.712-2.928 0.159-0.316-0.157-0.87-0.949-1.661-0.95-0.844-1.583-1.083-1.899-0.712-0.317 0.633-0.634 1.345-0.949 2.136-0.211 0.159-0.396-0.237-0.555-1.187-0.474-2.584-0.791-5.961-0.949-10.127-0.317-6.752-0.079-11.658 0.712-14.717 0.527-0.316 1.028-0.711 1.502-1.187 0 5.117 0.081 8.493 0.238 10.128 0.316 0 0.474 0.158 0.474 0.475h0.712s0.792-0.396 1.425-1.187h1.187v4.826c0.368 2.216 0.949 3.798 1.74 4.748 0.634-0.316 1.029-0.475 1.187-0.475s0.317-0.237 0.475-0.712c0.316 0 0.474-0.158 0.474-0.475 0.317 1.108 0.476 3.351 0.476 6.726 0 4.22-0.081 6.488-0.238 6.804-0.156 0.317-0.315 0.713-0.473 1.187zm-71.763 66.225h0.476c9.917 0 17.934-1.609 24.052-4.826 1.635-0.791 3.561-1.819 5.776-3.086 1.952-1.107 3.799-1.661 5.539-1.661 0.158 0 1.53 0.633 4.114 1.898 2.9 1.107 5.143 1.662 6.725 1.662 0.527-2.058 1.346-4.063 2.454-6.014 1.423 1.479 3.034 3.164 4.826 5.064 1.266 1.107 2.717 1.66 4.352 1.66l7.912-2.373h3.639c0 2.109 0.949 4.114 2.848 6.014 1.952 1.951 2.929 3.165 2.929 3.64 0 1.266-1.451 2.717-4.352 4.352-2.9 1.74-4.352 3.165-4.352 4.272 0 0.843 0.475 1.819 1.423 2.928 1.001 1.266 1.503 2.478 1.503 3.64 0 2.057-0.896 3.824-2.69 5.3-1.423 0.952-2.795 1.425-4.113 1.425-0.475 0-4.009-0.896-10.603-2.69 4.378-0.791 7.042-3.508 7.991-8.148h0.238c2.109-1.318 2.188-3.244 0.237-5.776-1.583-2.268-3.429-3.719-5.539-4.352-2.742-0.633-5.882-0.87-9.414-0.713-2.374 0.159-4.696 0.476-6.963 0.95-10.603-0.316-18.646-0.633-24.132-0.95-5.433-0.317-10.393-1.056-14.876-2.216zm49.61 5.064c3.058 0.158 5.539 0.5 7.438 1.028 0.842 0.316 1.345 1.028 1.502 2.136 0 0.633 0.081 1.425 0.238 2.374-3.534 5.96-8.914 8.466-16.141 7.516 0.791-0.63 1.346-1.686 1.661-3.165 0.476-1.739 0.317-3.348-0.474-4.825-0.475-1.583-1.373-2.849-2.69-3.798-0.158-0.159-0.396-0.344-0.711-0.555 0.632-0.157 1.29-0.315 1.978-0.474 2.056 0 4.456-0.079 7.199-0.237zm91.306 40.035c-1.899-3.378-3.905-6.199-6.015-8.468 2.109-4.167 3.561-8.809 4.352-13.926 0-0.159-0.157-0.396-0.474-0.712-0.475-0.527-0.712-0.631-0.712-0.315-1.476 4.535-3.323 8.888-5.539 13.055-2.109 3.375-4.536 6.673-7.278 9.891-4.958 5.749-10.338 10.152-16.141 13.214 1.635-1.899 2.533-3.665 2.69-5.302 0-0.159-0.158-0.396-0.475-0.711-0.369-0.316-0.633-0.476-0.791-0.476-1.266 0.476-2.453 1.449-3.561 2.928-0.792 0.792-1.847 1.979-3.165 3.561-0.95 0.843-1.899 1.661-2.848 2.453 0.315-0.317 0.051-0.896-0.791-1.74-0.791-0.952-1.425-1.268-1.899-0.952-3.375 2.269-5.697 3.721-6.963 4.352-0.792 0.316-1.53 0.634-2.215 0.952 0.527-0.477 0.792-0.791 0.792-0.952 0.315-0.315 0.051-0.791-0.792-1.422-0.791-0.791-1.346-1.187-1.663-1.187-0.475 0.157-3.692 0.711-9.652 1.661h-0.949c0.158-5e-3 0.236-0.085 0.236-0.238 0.159-0.157 0.079-0.316-0.236-0.474l-0.476-0.475c-1.266 0-4.166 0.396-8.703 1.187-1.106 0.157-2.214 0.236-3.322 0.236 0.316-0.315 0.079-0.871-0.712-1.663-0.844-0.844-1.504-1.266-1.978-1.266-3.692 0.527-6.911 0.792-9.652 0.792-1.266-0.159-2.533-0.344-3.798-0.555-1.001-0.951-1.661-1.503-1.978-1.663-0.158 0-0.317-0.079-0.475-0.235-1.108-0.316-3.111-1.348-6.013-3.086 0-0.212-0.159-0.475-0.475-0.791-2.27-0.791-5.566-2.717-9.89-5.774-4.167-2.689-7.623-4.457-10.366-5.303-0.949-0.316-3.508-0.078-7.674 0.713 0.316-0.161 0.712-0.317 1.187-0.477 0.792-0.476 1.266-1.106 1.425-1.897 0-0.16-0.159-0.316-0.476-0.476-0.158-0.315-0.315-0.477-0.475-0.477-1.74-0.474-5.038 0.477-9.89 2.85-3.533 1.952-6.33 2.533-8.387 1.742 0.475-0.688 0.87-1.266 1.187-1.742h0.238v-0.234c0.475 0 1.028-0.158 1.661-0.475l4.352-1.425c0.316-0.316 1.027-0.553 2.136-0.712 1.635-0.475 3.243-0.792 4.826-0.949 1.952-0.317 5.171-0.475 9.654-0.475 4.167 0 8.255 1.424 12.264 4.272 2.109 1.477 3.956 2.928 5.539 4.353 1.635 0 3.244-0.872 4.826-2.612h16.377v0.475c0.212 0.159 0.476 0.238 0.791 0.238-0.527 1.582-1.897 3.903-4.113 6.962v0.711h3.322c6.279-3.061 11.341-4.982 15.192-5.773h4.826l3.403-1.663c2.057-1.106 4.774-1.663 8.149-1.663 0 0.161-0.237 0.791-0.712 1.899-0.632 1.266-0.949 1.979-0.949 2.138 0.634 0 2.4-0.951 5.301-2.85 2.9-1.95 5.143-3.561 6.725-4.826 0 1.107-0.315 3.982-0.949 8.624 1.792-0.791 3.481-3.112 5.064-6.963 0.792-1.897 1.688-4.139 2.69-6.726h0.949c0 1.582 0.238 3.033 0.713 4.352 1.266-1.001 2.795-3.587 4.588-7.751 1.583-3.853 2.374-6.41 2.374-7.678 0.634 0.477 2.084 2.164 4.352 5.064 1.108-0.844 1.742-2.929 1.899-6.251 0.21-2.584 2.401-3.956 6.568-4.114v-8.466c1.108 2.268 1.978 3.639 2.61 4.114 0-0.476-0.317-1.768-0.949-3.877-0.634-1.899-0.951-3.191-0.951-3.877v-0.711l3.641 4.352h1.661v-8.624c-0.634-0.844-1.528-3.113-2.69-6.805 1.952 0.316 5.407 2.4 10.365 6.25 2.9 2.27 6.041 4.774 9.416 7.517v-13.767c0.476 0.316 1.293 1.135 2.454 2.453 1.266 1.74 2.452 3.191 3.561 4.352h2.452v-9.415c0.95 0.315 1.819 0.791 2.61 1.424 0.476 0.315 1.134 0.791 1.978 1.424-0.369-0.791-0.948-1.819-1.74-3.086-1.424-2.267-2.611-3.876-3.56-4.826 3.532 0 10.417 3.534 20.65 10.603 1.293 0.869 2.521 1.714 3.679 2.531 8.039 5.628 12.771 9.848 14.202 12.659-0.632-2.583-1.688-5.96-3.165-10.127-1.582-4.694-2.848-7.912-3.797-9.653v-0.948c2.059 4.008 5.986 11.077 11.789 21.205 4.483 9.123 6.25 16.113 5.301 20.967v-1.741c-0.016 0.807-0.095 1.781-0.236 2.928-0.159 2.584-0.658 6.197-1.502 10.841v-1.899c-1.583-5.485-2.85-9.522-3.799-12.105 0.477 0.16 0.555 0.08 0.238-0.235-0.159-0.161-0.317-0.316-0.477-0.476-0.474-1.424-0.818-2.294-1.027-2.61h-0.95c0 0.159 0.08 0.396 0.236 0.712-2.226-2.269-4.772-4.246-7.634-5.934-0.81-0.473-1.642-0.92-2.493-1.348-1.739-0.949-3.506-1.74-5.3-2.373-2.374-0.949-4.696-1.662-6.964-2.136-4.8-1.159-9.388-1.318-13.766-0.475-0.476 0.157-0.368 0.632 0.315 1.423 0.634 0.791 1.187 1.188 1.663 1.188h0.236c1.107 0.314 2.717 0.71 4.826 1.187h0.476c-3.693 0.791-6.594 1.449-8.703 1.978-4.324 1.106-7.859 2.717-10.603 4.828-0.315 0.315-0.159 0.87 0.476 1.661l-5.538 3.877c-3.218 2.531-5.224 4.851-6.015 6.96-0.475 1.583 0.08 2.798 1.663 3.642-0.638 0.472-1.191 1.025-1.665 1.658zm22.628-131.34c-0.313-0.624-0.47-1.019-0.475-1.187v0.95c0.158 0 0.316 0.078 0.475 0.237zm0.553 80.466c0.317 0.474 0.557 0.977 0.713 1.503v-1.029c-0.158-0.157-0.396-0.315-0.713-0.474zm-65.828 83.157c0.158 2.11 0.317 3.086 0.475 2.928 0-0.844 0.079-1.582 0.238-2.214 0.158 0.316 0.396 0.632 0.711 0.95 1.479 3.375 3.007 6.039 4.59 7.992 1.161 1.106 1.82 1.422 1.978 0.949l0.949-1.425c1.899 2.902 3.984 5.618 6.251 8.149 0.791 0.634 1.346 1.056 1.661 1.266 2.585 5.117 6.937 9.521 13.055 13.215 2.058 1.267 9.839 4.8 23.341 10.601h0.236c0.95 1.796 2.004 3.403 3.165 4.828-2.901-0.159-6.358 0.396-10.365 1.662-3.375-0.16-7.385 0.158-12.027 0.949-7.753 1.005-12.264 1.582-13.529 1.743-2.742 0.157-4.748 0.315-6.013 0.475-2.426 0.159-4.431 0.555-6.013 1.187-1.478 0.95-2.69 1.661-3.641 2.138-1.897 1.001-2.848 1.106-2.848 0.314 0-0.526-0.343-1.106-1.028-1.739-0.791-0.634-1.346-0.872-1.663-0.713-0.949 1.793-2.243 2.77-3.876 2.929 0.315-0.844 0.632-1.663 0.949-2.454 0.21-0.315-0.106-0.87-0.949-1.661-0.633-0.632-1.108-0.791-1.425-0.475-2.109 1.74-4.035 3.004-5.775 3.795-2.109 1.005-2.347 0.053-0.712-2.848 0.317-0.475 0.079-1.027-0.712-1.661-0.685-0.687-1.187-0.952-1.503-0.791-2.215 1.317-3.482 1.582-3.797 0.791-0.317-0.844 0.157-2.139 1.423-3.877 1.899-2.743 5.829-3.561 11.79-2.453 3.851 0.687 7.702 0.87 11.551 0.554 3.218-0.21 6.911-0.87 11.077-1.979 0.159 0.161 0.423 0.317 0.791 0.477 0.792 0.314 0.606-0.236-0.553-1.663-10.075-7.859-18.171-17.669-24.291-29.433-2.425-4.642-3.956-9.127-4.588-13.45-0.475-4.168 0.079-7.545 1.661-10.129 1.636-0.314 3.244-0.869 4.826-1.661 0.316-0.157 0.712-0.316 1.187-0.474l0.317 0.234c0.475 0.478 0.87 0.714 1.187 0.714h1.187c-0.949 2.056-1.344 4.219-1.187 6.489 0 2.262 0.633 4.188 1.899 5.771zm37.819-64.801c-0.632-0.475-0.792-0.475-0.475 0 1.108 1.425 1.661 3.508 1.661 6.251l0.792 0.475c-0.157-2.9-0.817-5.144-1.978-6.726zm-13.925 20.018c0.159 2.216 0.475 5.011 0.951 8.386 0.157 0 0.315 0.079 0.474 0.238h0.237c-0.632-3.534-0.949-6.251-0.949-8.15-1e-3 -0.157-0.238-0.316-0.713-0.474zm-4.588 14.637c0 0.158 0.079 0.238 0.236 0.238l0.475 0.234c1.583-1.582 2.058-4.456 1.425-8.622 0-0.159-0.158-0.315-0.475-0.477-0.317-0.315-0.396-0.315-0.238 0 0.16 2.06-0.317 4.936-1.423 8.627zm96.369 60.054c-0.315-0.317-0.554-0.475-0.711-0.475-1.478 2.848-1.715 5.721-0.712 8.623 0.474 1.319 1.266 2.454 2.373 3.401 1.318 1.266 2.61 1.741 3.877 1.423 0.315-0.159 0-0.632-0.95-1.423-1.318-0.632-2.295-1.371-2.928-2.215-0.475-0.791-0.792-1.818-0.951-3.084-0.159-1.796 0.081-3.561 0.713-5.304 1e-3 -0.314-0.237-0.63-0.711-0.946zm-26.032 22.628l-2.137-0.948c-0.475-0.161-0.896-0.396-1.266-0.713-0.317-0.688-0.792-1.187-1.425-1.504-0.315-0.157-0.475-0.157-0.475 0-0.158 0-0.158 0.158 0 0.475 0.475 1.32 1.451 2.452 2.928 3.403 1.583 1.107 2.689 1.266 3.324 0.475 0.16-0.318-0.158-0.714-0.949-1.188zm-3.876 1.899c-3.061-1.425-5.143-2.374-6.251-2.848-2.216-1.479-3.665-2.374-4.352-2.69-0.474-0.317-0.791-0.396-0.95-0.238l-0.236 0.238c0 0.157 0.079 0.316 0.236 0.474 0.95 1.795 3.032 3.64 6.249 5.539 1.479 0.844 2.612 1.345 3.403 1.503 1.266 0.475 2.399 0.475 3.401 0 0.315-0.158 0.159-0.58-0.477-1.266-0.522-0.476-0.864-0.712-1.023-0.712zm-6.013 0.475c-2.059-0.317-4.141-0.949-6.25-1.899-1.107-0.632-3.033-1.845-5.776-3.64-0.316-0.157-0.396-0.078-0.236 0.238 0 0.315 0.08 0.475 0.236 0.475 3.06 2.743 5.064 4.431 6.013 5.063 2.586 1.636 4.908 1.898 6.964 0.792 0.315 0-1e-3 -0.344-0.951-1.029zm-93.443-81.416c-0.686 0.475-1.74 1.266-3.165 2.373-1.266 1.003-2.479 1.662-3.64 1.979-0.157 0.159-0.157 0.316 0 0.475l0.475 0.476c3.06-0.95 5.407-2.558 7.042-4.827l-0.238-0.475c-0.157-1e-3 -0.314-1e-3 -0.474-1e-3z" fill="#9A4C00"/>
	<path d="m351.19 323.37c-0.292 0.496-0.595 0.995-0.91 1.503-2.426 5.117-2.507 9.681-0.236 13.689 1.582 3.06 2.374 5.326 2.374 6.804 0.159 2.374-1.266 3.903-4.273 4.59-0.686 0.315-1.423 0.553-2.214 0.711-1.108 0.159-2.058 0.314-2.849 0.476-3.219 1.266-7.093 2.293-11.632 3.085-7.543 1.158-13.081 2.058-16.615 2.688-3.218 0.634-5.696 1.108-7.438 1.425-2.9 0.475-5.378 0.631-7.437 0.475-2.902-0.159-5.169-0.317-6.806-0.475-3.058 0-5.222 0.553-6.487 1.661-0.475 0.527-1.688 1.819-3.639 3.877-2.059 1.636-3.666 2.109-4.828 1.422-0.476-0.475-0.871-0.948-1.187-1.422-1.583 1.478-3.508 1.793-5.775 0.949-0.317-0.157-0.634-0.315-0.951-0.475-1.792 1.952-4.192 2.271-7.2 0.95-1.318-0.476-2.295-1.187-2.927-2.137-1.952 1.423-3.561 1.741-4.826 0.95-1.425-0.95-2.058-2.137-1.899-3.561-1.001-2.585-1.504-4.933-1.504-7.04 0.158-3.22 1.689-5.224 4.59-6.015 1.792-0.632 4.06-0.95 6.804-0.95h6.961c2.584 0 5.143-0.237 7.676-0.713 1.318-0.315 3.243-0.896 5.774-1.74-0.632-0.316-1.187-0.712-1.662-1.187 0 0.157-0.079 0.235-0.235 0.235-6.911 0.633-12.132 1.214-15.667 1.743-1.582 0.314-3.35 0.63-5.3 0.948-5.274 1.268-9.206 1.979-11.79 2.139-4.483 0.315-7.702 0.631-9.654 0.949-3.216 0.686-6.355 1.82-9.414 3.402-1.899 0.949-3.509 0.949-4.828 0-0.474-0.316-0.791-0.712-0.949-1.187-0.634 0.475-1.187 0.87-1.661 1.187-0.792 0.315-2.085 0.396-3.877 0.235-0.474-0.158-0.95-0.475-1.425-0.949-0.474-0.476-0.711-0.871-0.711-1.187-1.952 0.791-3.877 1.026-5.776 0.711-2.426-0.159-3.403-1.292-2.927-3.401-0.95 0-1.899-0.316-2.85-0.95-2.109-1.106-2.769-3.112-1.978-6.015 0.476-2.107 1.927-3.718 4.352-4.826 2.27-0.949 4.432-1.266 6.489-0.949 3.375 0.633 7.965 0.949 13.768 0.949 5.115-0.157 9.045-0.079 11.788 0.238-4.641-2.902-9.046-6.752-13.212-11.552-4.537-5.171-8.335-10.866-11.394-17.091-2.531-5.645-4.035-10.629-4.509-14.953-0.527-3.853 0.026-6.911 1.661-9.18h-0.951c-0.315 0-0.896-0.396-1.74-1.187-0.792-0.632-1.029-1.106-0.712-1.423 0.474-0.529 0.87-1.029 1.187-1.504-1.423 0.157-3.005 0.316-4.747 0.475-4.378 0.475-7.753 0.977-10.126 1.503-0.159 0-0.396-0.078-0.712-0.237-2.584 0.16-5.089-0.104-7.517-0.791-0.95-0.792-1.661-1.345-2.137-1.662-1.792 0.159-3.401 0.238-4.826 0.238-3.533-0.316-6.829-1.029-9.89-2.137-0.317-0.159-0.791-0.739-1.423-1.742-1.001-0.95-1.239-1.423-0.712-1.423-0.685-0.315-1.266-0.711-1.741-1.187-3.218-1.952-5.854-3.324-7.912-4.115-0.158 0-0.396-0.159-0.711-0.475-0.37-0.317-0.448-0.477-0.238-0.477h0.712c-1.318-0.791-2.69-1.688-4.115-2.688-2.741-1.899-5.486-3.007-8.227-3.325-2.374-0.315-5.171-0.079-8.388 0.712-2.899 0.634-4.667 0.95-5.301 0.95-1.792 0.159-2.927-0.08-3.402-0.711-1.898 0.475-3.587 0.631-5.063 0.475-1.741-0.316-3.35-1.027-4.828-2.137-0.791-0.633-1.027-1.135-0.71-1.502-1.899 0-3.114-0.792-3.641-2.374v-0.713c-0.315 0-0.791-0.316-1.423-0.95-0.633-0.686-0.95-1.267-0.95-1.741 0-2.374 0.634-4.695 1.899-6.962v-0.236c-2.848-7.859 0.052-13.003 8.703-15.429 6.277-1.582 12.952-1.661 20.018-0.236 1.583-0.159 3.191-0.236 4.826-0.236 4.167 0.316 10.26 1.608 18.277 3.877v-0.476c0-0.687 0.317-1.663 0.95-2.929 0.475-1.266 0.711-2.321 0.711-3.165 0-1.424-0.315-2.452-0.949-3.086-0.475-0.791-1.187-1.345-2.136-1.661-9.811 1.108-17.538 1.424-23.183 0.949-8.493-0.633-15.798-3.138-21.916-7.517-0.95 0.633-2.058 0.95-3.324 0.95-1.635 0.21-3.244-0.106-4.826-0.95-0.475-0.158-1.056-0.633-1.74-1.424-0.791-0.633-1.108-1.187-0.95-1.662 0.317-0.843 0.633-2.61 0.95-5.301 0.21-1.635 0.632-2.927 1.266-3.877-1.001-13.346 0.923-26.031 5.775-38.057 3.217-7.543 6.357-13.24 9.416-17.09 4.483-5.644 9.864-9.02 16.141-10.127l0.238 0.237c1.897-2.109 3.165-3.482 3.797-4.115 1.318-1.634 2.295-3.323 2.928-5.063 0.315-1.108 0.711-2.717 1.187-4.827 0.475-2.268 0.87-3.876 1.187-4.826 1.159-3.061 2.769-5.618 4.826-7.675 2.428-2.584 5.012-3.877 7.753-3.877 4.483-0.316 8.651 1.451 12.502 5.301 2.426 2.585 3.798 5.143 4.114 7.675 0.159-0.95 0.317-1.82 0.476-2.611 0.315-2.27 0.553-3.64 0.71-4.115 0.476-1.899 1.108-3.112 1.899-3.639 2.9-1.425 6.699 0.104 11.394 4.589 10.286 9.653 14.769 19.463 13.451 29.433 3.534-1.266 6.751-1.503 9.652-0.712 0.476 0.159 0.95 0.475 1.425 0.95 0.791 0.792 1.029 1.345 0.712 1.661l-1.899 1.504c2.109 0.158 3.798 0.554 5.064 1.187 0.475 0.159 1.028 0.554 1.662 1.187 0.844 0.95 1.08 1.583 0.712 1.898-0.475 0.475-0.87 0.898-1.187 1.267 0.475 0.158 1.056 0.316 1.74 0.474 2.374 0.633 4.035 1.345 4.985 2.136 2.109 1.635 2.927 2.69 2.452 3.165-0.791 0.633-1.608 1.661-2.452 3.086 1.792-0.316 3.243-0.475 4.352-0.475 2.9-0.316 5.486 0 7.753 0.95 0.95 0.475 2.058 1.214 3.324 2.215 1.318 0.633 2.77 0.633 4.352 0 11.624-3.628 23.425-5.013 35.406-4.154 0.891 0.06 1.772 0.137 2.65 0.237 0.902 0.073 1.801 0.165 2.69 0.278 11.077 1.634 21.126 4.932 30.145 9.89 9.285 5.274 17.224 12.184 23.817 20.729 8.017 10.602 14.056 22.496 18.117 35.683 2.374 7.701 4.036 15.799 4.983 24.292 2.743 24.265-1.187 45.071-11.787 62.425 0 0.161-0.317 0.08-0.951-0.234-0.775 1.81-1.909 3.996-3.4 6.564-0.39 0.675-0.799 1.362-1.228 2.067zm-176.08-101.67c-2.743 0.158-5.143 0.237-7.2 0.237-0.688 0.158-1.346 0.316-1.978 0.474 0.315 0.211 0.553 0.396 0.711 0.555 1.318 0.949 2.216 2.215 2.69 3.798 0.791 1.478 0.95 3.086 0.474 4.825-0.315 1.479-0.87 2.535-1.661 3.165 7.226 0.952 12.607-1.555 16.141-7.516-0.158-0.949-0.238-1.741-0.238-2.374-0.157-1.107-0.66-1.819-1.502-2.136-1.899-0.527-4.379-0.87-7.437-1.028zm-49.61-5.064c4.483 1.16 9.443 1.899 14.875 2.215 5.486 0.317 13.529 0.634 24.132 0.95 2.269-0.475 4.589-0.791 6.963-0.95 3.532-0.157 6.671 0.08 9.414 0.713 2.109 0.633 3.956 2.084 5.539 4.352 1.952 2.532 1.875 4.458-0.237 5.776h-0.238c-0.949 4.641-3.613 7.357-7.991 8.148-0.949-0.157-1.821-0.316-2.612-0.475-5.327-1.424-8.861-1.739-10.601-0.948-2.585-0.476-5.645-1.108-9.179-1.899-8.016-1.794-16.113-0.607-24.29 3.561-7.067 3.375-12.054 7.963-14.954 13.768 1.266-0.477 2.797-1.108 4.589-1.899 3.85-1.635 6.804-2.533 8.861-2.69 0.159 0 0.423 0.157 0.791 0.475-3.746 2.426-7.781 4.615-12.104 6.567l-1.663 2.374c0.317 0 0.712-0.079 1.187-0.238 0.633-0.157 1.531-0.396 2.69-0.712l7.438-2.928c0.634-0.157 1.609-0.633 2.927-1.425 1.267-0.474 2.374-0.553 3.324-0.234 0.158 0 0.317 0.157 0.475 0.475 0.317 0.159 0.474 0.316 0.474 0.475-0.157 0.951-1.266 1.846-3.322 2.689-0.792 0.317-1.53 0.633-2.216 0.951-1.108 0.159-1.819 0.396-2.136 0.711l-4.352 1.425c-0.633 0.314-1.187 0.474-1.661 0.474v0.236h-0.238c-0.317 0.477-0.712 1.055-1.187 1.742-0.527-0.316-1.029-0.66-1.503-1.027l0.95 1.741c0.21-0.316 0.396-0.555 0.553-0.713 2.057 0.792 4.854 0.212 8.387-1.739 4.852-2.374 8.15-3.326 9.89-2.85 0.159 0 0.317 0.159 0.475 0.476 0.316 0.157 0.476 0.315 0.476 0.475-0.159 0.791-0.633 1.423-1.425 1.899-0.474 0.157-0.87 0.314-1.187 0.474 4.166-0.791 6.725-1.028 7.674-0.712 2.743 0.844 6.199 2.611 10.366 5.301 4.324 3.061 7.62 4.985 9.89 5.776 0.315 0.316 0.475 0.579 0.475 0.791 2.9 1.74 4.905 2.77 6.013 3.086 0.158 0.157 0.317 0.236 0.475 0.236 0.317 0.159 0.977 0.711 1.978 1.663 1.266 0.21 2.533 0.396 3.798 0.553 2.741 0 5.96-0.264 9.652-0.791 0.474 0 1.134 0.424 1.978 1.266 0.791 0.791 1.029 1.346 0.712 1.661 1.108 0 2.216-0.078 3.322-0.234 4.537-0.791 7.438-1.188 8.703-1.188l0.476 0.475c0.315 0.159 0.396 0.317 0.236 0.475 0 0.154-0.079 0.233-0.236 0.238h0.949c5.96-0.952 9.178-1.504 9.652-1.663 0.317 0 0.872 0.396 1.663 1.187 0.842 0.633 1.106 1.106 0.792 1.424 0 0.159-0.264 0.475-0.792 0.95 0.685-0.315 1.423-0.632 2.215-0.95 1.266-0.632 3.588-2.082 6.963-4.352 0.475-0.317 1.108 0 1.899 0.95 0.842 0.844 1.106 1.423 0.791 1.741 0.949-0.791 1.898-1.608 2.848-2.452 1.318-1.582 2.374-2.77 3.165-3.561 1.108-1.478 2.295-2.454 3.561-2.93 0.158 0 0.422 0.16 0.791 0.476 0.317 0.315 0.475 0.555 0.475 0.711-0.158 1.637-1.056 3.403-2.69 5.304 5.803-3.06 11.182-7.464 16.141-13.216 2.743-3.218 5.169-6.512 7.278-9.89 2.216-4.167 4.063-8.519 5.539-13.056 0-0.315 0.238-0.21 0.712 0.317 0.317 0.316 0.474 0.555 0.474 0.712-0.791 5.115-2.242 9.759-4.352 13.925-1.95 3.853-4.352 7.386-7.2 10.603-5.803 6.277-12.631 10.47-20.493 12.581-0.474 0.316-0.949 0.712-1.423 1.187-2.426 2.109-4.775 3.401-7.042 3.878-0.791 3.217-1.108 5.695-0.949 7.436 0.158 2.111 0.315 3.797 0.474 5.063-1.266-1.582-1.899-3.508-1.899-5.773-0.158-2.27 0.238-4.432 1.187-6.49h-1.187c-0.317 0-0.712-0.234-1.187-0.711l-0.317-0.236c-0.474 0.157-0.87 0.316-1.187 0.475-1.583 0.791-3.191 1.344-4.826 1.661-1.583 2.585-2.136 5.96-1.661 10.128 0.632 4.325 2.164 8.807 4.588 13.451 6.12 11.763 14.216 21.572 24.292 29.432 1.159 1.425 1.344 1.979 0.553 1.661-0.368-0.157-0.632-0.314-0.791-0.474-4.166 1.107-7.859 1.768-11.077 1.978-3.851 0.317-7.702 0.133-11.551-0.553-5.96-1.108-9.89-0.292-11.789 2.452-1.266 1.74-1.74 3.033-1.423 3.877 0.315 0.791 1.583 0.527 3.797-0.791 0.317-0.159 0.819 0.104 1.503 0.791 0.792 0.632 1.029 1.188 0.712 1.661-1.635 2.901-1.397 3.852 0.712 2.849 1.74-0.791 3.664-2.057 5.775-3.797 0.317-0.315 0.792-0.159 1.425 0.476 0.844 0.791 1.159 1.345 0.949 1.661-0.316 0.791-0.632 1.609-0.949 2.453 1.635-0.158 2.927-1.135 3.877-2.928 0.315-0.16 0.87 0.079 1.661 0.711 0.685 0.633 1.028 1.215 1.028 1.742 0 0.791 0.95 0.688 2.85-0.317 0.949-0.474 2.162-1.187 3.639-2.136 1.583-0.633 3.586-1.028 6.013-1.187 1.266-0.16 3.271-0.316 6.013-0.476 1.266-0.159 5.776-0.739 13.529-1.742 4.644-0.791 8.652-1.107 12.027-0.948 4.009-1.266 7.464-1.82 10.364-1.661-1.16-1.425-2.214-3.035-3.164-4.828h-0.238c-13.503-5.801-21.283-9.335-23.341-10.601-6.118-3.693-10.47-8.098-13.055-13.216-0.315-0.21-0.87-0.631-1.661-1.266-2.269-2.533-4.352-5.246-6.251-8.148l-0.949 1.423c-0.158 0.475-0.817 0.159-1.978-0.95-1.583-1.95-3.111-4.614-4.59-7.992-0.315-0.315-0.553-0.631-0.711-0.949v-1.187c0.158-0.317 0.475-0.238 0.949 0.237 0.527 0.314 0.87 0.631 1.029 0.949 1.106 2.426 1.819 3.956 2.136 4.59 0.317 0.791 0.712 1.582 1.187 2.373l0.949-1.664c0.159-0.157 0.581 0 1.267 0.478 0.315 0.313 0.632 0.631 0.949 0.949 1.74 2.585 3.587 5.012 5.539 7.278v-2.688c0-0.315 0.396-0.159 1.187 0.476 0.949 0.687 1.425 1.187 1.425 1.502 1.318 6.753 5.906 12.369 13.766 16.852 0.476 0.159 7.466 3.218 20.967 9.178-6.434-12.235-10.945-21.494-13.529-27.771-3.217-8.334-4.404-16.933-3.561-25.794 0.791-8.176 3.35-14.426 7.676-18.751 0.474-0.633 1.027-1.187 1.661-1.664-1.583-0.842-2.137-2.057-1.661-3.64 0.791-2.109 2.795-4.43 6.013-6.96l5.539-3.879c-0.634-0.791-0.791-1.346-0.475-1.659 2.741-2.111 6.277-3.722 10.602-4.829 2.109-0.527 5.01-1.188 8.703-1.979h-0.477c-2.109-0.475-3.718-0.87-4.825-1.187h-0.237c-0.476 0-1.027-0.396-1.662-1.187-0.685-0.792-0.791-1.266-0.315-1.424 4.379-0.842 8.966-0.686 13.766 0.477 2.271 0.474 4.59 1.187 6.964 2.136 1.794 0.633 3.56 1.424 5.3 2.373 0.852 0.428 1.684 0.875 2.493 1.348 2.863 1.686 5.408 3.664 7.634 5.934 0.688 0.475 1.267 1.107 1.741 1.898 0.159 0.159 0.317 0.314 0.477 0.476 0.314 0.315 0.236 0.396-0.236 0.235l-0.238-0.235c-0.315-0.316-0.658-0.712-1.027-1.187-1.581-1.425-3.428-2.797-5.537-4.117-0.697-0.464-1.424-0.911-2.176-1.344-2.303-1.325-4.848-2.485-7.636-3.482-3.691-1.266-7.148-1.978-10.364-2.137-1.005-0.159-2.059-0.236-3.165-0.236 0.948 0.316 1.74 0.632 2.373 0.95 0.368 0.159 0.711 0.315 1.026 0.476 1.425 1.478 1.82 2.294 1.187 2.453-2.583 0.474-4.826 0.95-6.725 1.423-1.793 0.315-3.322 0.632-4.587 0.95-3.218 0.791-5.962 1.926-8.229 3.401 0.791 0.632 0.948 1.106 0.474 1.423-3.217 2.271-5.934 4.353-8.149 6.251-2.267 2.109-3.718 3.48-4.352 4.114-0.632 0.952-1.106 1.504-1.423 1.662l1.423-0.236c0.476 0 1.029 0.317 1.663 0.951 0.791 0.686 1.027 1.106 0.711 1.267-1.74 1.266-3.269 2.716-4.588 4.352-2.69 3.165-4.616 7.41-5.776 12.738-1.423 6.752-1.423 13.582 0 20.493 0.844 3.69 2.216 7.62 4.115 11.787 0.949 2.111 2.873 5.882 5.775 11.313 1.478 3.062 3.56 7.49 6.25 13.292 2.111 3.693 4.537 6.725 7.28 9.099 0.159 0 0.396 0.159 0.711 0.476 0.161 0.211 0.316 0.396 0.476 0.554 0.477 0.475 0.951 0.87 1.424 1.187 0.844 0.791 1.003 1.188 0.475 1.188-0.949-0.317-1.898-0.713-2.849-1.188-2.743 2.057-6.196 3.165-10.364 3.326-5.486 0-9.573 0.182-12.264 0.553-2.109 0.317-3.72 0.713-4.826 1.187-1.637 0.634-2.612 1.74-2.929 3.323-0.157 0.845-0.236 2.216-0.236 4.116 0.158 0.791 0.158 1.609 0 2.453 0.475 0.791 1.187 0.712 2.136-0.237 0.21-0.159 1.266-1.609 3.165-4.352l0.238-0.236c0.315-0.316 0.87-0.078 1.661 0.713 1.001 0.791 1.423 1.422 1.266 1.897-0.158 0.159-0.317 0.396-0.474 0.711-0.687 1.004-0.606 2.139 0.236 3.402 0.791 1.266 1.899 1.188 3.324-0.237 0.632-0.475 1.213-1.026 1.74-1.661 0.159-0.844 0.475-1.742 0.951-2.69 0.315-0.315 0.87-0.079 1.661 0.712 0.949 0.791 1.344 1.451 1.187 1.979h-0.238c1.161 1.423 2.137 1.423 2.928 0l0.949-1.742c0.316-0.315 0.87-0.08 1.661 0.711 0.845 0.846 1.267 1.425 1.267 1.743-0.211 0.631 0.105 0.554 0.951-0.238 1.107-1.158 1.739-1.897 1.898-2.213 1.422-1.107 2.4-1.82 2.928-2.139 1.582-1.106 4.061-1.502 7.438-1.187 4.642 0.316 7.225 0.476 7.753 0.476 4.959-0.632 12.659-2.083 23.104-4.352 8.65-1.951 15.56-3.245 20.729-3.875 1.743-0.792 3.191-1.268 4.352-1.425h0.235c0.315-0.317 0.553-0.713 0.711-1.188 0.632-1.318 0.712-2.611 0.236-3.877-0.159-0.791-0.632-1.767-1.424-2.927-0.686-1.425-1.106-2.374-1.266-2.849-1.267-2.901-1.662-5.223-1.187-6.963 0.717-2.63 1.969-5.384 3.759-8.268 0.197-0.306 0.396-0.612 0.593-0.91 0.475-0.634 2.32-3.218 5.539-7.755 6.275-20.043 9.019-39.322 8.227-57.837-0.21-4.643-0.555-9.127-1.027-13.45-2.373-16.405-7.753-30.779-16.14-43.122-7.7-11.604-17.565-20.203-29.591-25.793-8.79-4.219-18.245-6.685-28.365-7.398-3.417-0.239-6.91-0.278-10.483-0.118-8.968 0.369-15.693 1.187-20.176 2.453-1.952 0.791-3.561 1.424-4.826 1.899-2.27 0.633-3.877 0.712-4.828 0.237-1.95-0.791-3.401-1.741-4.352-2.849-1.106-1.318-3.508-1.978-7.2-1.978-2.901 0.369-5.09 0.554-6.566 0.554-0.95 1.741-1.741 2.928-2.374 3.561-0.159 0.158-0.396 0.08-0.712-0.237-0.317-0.474-0.555-0.791-0.712-0.949-0.685-2.109-0.685-4.035 0-5.776 0.475-0.95 1.187-2.005 2.136-3.165-0.475-0.158-1.028-0.317-1.661-0.474-2.426-0.792-4.193-1.504-5.301-2.137-0.474-0.158-0.977-0.554-1.503-1.187-0.792-0.844-1.029-1.424-0.712-1.741 0.317-0.158 0.633-0.396 0.95-0.712h-0.476c-2.688-0.316-4.378-0.554-5.063-0.712-2.216-1.583-3.007-2.559-2.374-2.928l2.61-1.899h-1.899c-1.266 0.158-2.953 0.396-5.063 0.712-0.476 2.9-1.425 5.724-2.85 8.466-0.158 0.316-0.58 0.159-1.266-0.475-0.475-0.633-0.712-1.055-0.712-1.266 0-1.899 0.159-4.695 0.476-8.387 0.315-3.852 0.474-6.752 0.474-8.703-0.159-6.752-3.691-13.24-10.603-19.464-3.849-3.375-6.646-3.455-8.386-0.237-0.792 1.899-1.768 5.329-2.929 10.286-1.423 4.853-3.349 9.205-5.775 13.055l-0.474-0.237-0.238-0.475c0.158-1.16 0.712-3.402 1.662-6.725-4.958 0.95-8.651 1.345-11.077 1.187-0.158 0-0.317-0.237-0.475-0.711 2.428-1.318 6.199-1.82 11.315-1.503 0.158 0 0.315 0.08 0.475 0.237 0.158-0.791 0.422-1.661 0.791-2.611 0.317-0.949 0.553-1.925 0.712-2.927-0.159-0.158-0.502-0.553-1.029-1.187-3.323-11.077-8.123-15.243-14.399-12.501-5.012 2.374-8.308 6.145-9.89 11.314-1.637 5.117-2.77 8.415-3.403 9.89-1.74 3.061-4.221 4.985-7.438 5.777 0 0.157-0.079 0.237-0.236 0.237-5.803 2.742-10.709 7.648-14.718 14.716-2.901 4.958-5.539 11.525-7.912 19.702-4.06 13.978-6.409 25.872-7.041 35.683-0.159 0.159-0.317 0.159-0.476 0-0.158 0.95-0.315 1.927-0.475 2.928v0.238c0.475 0 0.87 0.079 1.187 0.236h2.69c-0.158-4e-3 -0.238-0.083-0.238-0.236-0.315-0.475-0.237-0.555 0.238-0.238s1.029 0.555 1.661 0.713h0.951c0.315 0.158 0.632 0.475 0.949 0.949h0.238c1.79 0.777 3.742 1.489 5.852 2.122zm62.586-97.082c-0.791 3.061-1.029 7.966-0.712 14.717 0.158 4.166 0.475 7.543 0.949 10.127 0.159 0.95 0.343 1.345 0.555 1.187 0.315-0.791 0.632-1.503 0.949-2.136 0.316-0.369 0.949-0.131 1.899 0.712 0.792 0.791 1.108 1.345 0.949 1.661-0.316 0.792-0.553 1.768-0.712 2.928 0.951-0.686 1.689-1.187 2.216-1.503 0.474-0.316 1.029-0.158 1.661 0.475 0.634 0.527 1.029 1.028 1.187 1.503 0 0.475 0.079 0.871 0.238 1.187 0.475 2.584 0.553 4.51 0.236 5.776 0 0.475-0.474 0.237-1.423-0.712l-0.95-4.589c-1.159 0.792-2.61 1.662-4.352 2.611-0.315 0.21-0.87-0.027-1.661-0.712-0.844-0.791-1.187-1.424-1.028-1.898 0.158-1.108 0.315-2.083 0.475-2.927l-0.712-0.712c-1.425-1.424-2.295-3.429-2.612-6.013-1.106-9.284-0.632-16.351 1.425-21.204 0.158-0.476 0.317-0.95 0.475-1.424l0.95 0.712v0.234h-2e-3zm-68.916 91.069c-0.791-1.267-0.87-1.899-0.236-1.899 3.375 0 6.435 1.214 9.178 3.64 0.158 0 0.396 0.238 0.712 0.712 0.158 0.317 0.236 0.554 0.236 0.712-1.106 0.633-3.349 0.475-6.725-0.475-1.107-0.475-2.162-1.372-3.165-2.69zm142.42 18.593c1.161 1.582 1.82 3.826 1.978 6.726l-0.792-0.475c0-2.743-0.553-4.826-1.661-6.251-0.316-0.475-0.157-0.475 0.475 0zm-51.508 38.295h0.475l0.238 0.475c-1.635 2.27-3.982 3.877-7.042 4.827l-0.475-0.476c-0.157-0.158-0.157-0.315 0-0.475 1.161-0.316 2.374-0.976 3.64-1.979 1.425-1.107 2.48-1.898 3.164-2.372zm93.443 81.416c0.95 0.686 1.267 1.029 0.95 1.029-2.058 1.106-4.38 0.844-6.964-0.792-0.948-0.633-2.953-2.32-6.013-5.063-0.157 0-0.236-0.159-0.236-0.475-0.159-0.316-0.08-0.396 0.236-0.238 2.743 1.795 4.669 3.008 5.776 3.64 2.11 0.949 4.193 1.581 6.251 1.899zm6.013-0.475c0.158 0 0.499 0.236 1.026 0.712 0.634 0.686 0.791 1.107 0.476 1.266-1.003 0.475-2.137 0.475-3.4 0-0.792-0.158-1.926-0.659-3.403-1.503-3.218-1.899-5.301-3.744-6.249-5.539-0.159-0.157-0.236-0.316-0.236-0.474l0.236-0.238c0.159-0.158 0.476-0.079 0.95 0.238 0.687 0.316 2.136 1.213 4.352 2.69 1.106 0.474 3.189 1.423 6.248 2.848zm3.876-1.899c0.791 0.475 1.106 0.87 0.95 1.188-0.634 0.791-1.741 0.633-3.324-0.475-1.477-0.951-2.453-2.083-2.928-3.403-0.159-0.316-0.159-0.475 0-0.475 0-0.157 0.159-0.157 0.475 0 0.633 0.317 1.107 0.819 1.425 1.504 0.367 0.317 0.791 0.554 1.266 0.713l2.136 0.948zm26.032-22.628c0.476 0.316 0.712 0.632 0.712 0.948-0.632 1.742-0.869 3.51-0.712 5.303 0.159 1.267 0.476 2.293 0.95 3.084 0.632 0.846 1.61 1.583 2.929 2.216 0.95 0.792 1.266 1.266 0.95 1.425-1.268 0.315-2.559-0.16-3.877-1.425-1.106-0.948-1.898-2.083-2.374-3.402-1.003-2.899-0.764-5.773 0.713-8.623 0.155-1e-3 0.392 0.156 0.709 0.474zm-96.369-60.054c1.106-3.691 1.583-6.567 1.423-8.624-0.158-0.317-0.079-0.317 0.238 0 0.317 0.159 0.475 0.316 0.475 0.475 0.633 4.169 0.158 7.042-1.425 8.624l-0.475-0.236c-0.157-1e-3 -0.236-0.081-0.236-0.239zm4.588-14.637c0.475 0.157 0.712 0.316 0.712 0.474 0 1.899 0.317 4.616 0.949 8.15h-0.237c-0.159-0.159-0.317-0.238-0.474-0.238-0.475-3.375-0.791-6.17-0.95-8.386zm-23.182 45.494c-0.159 0.634-0.238 1.371-0.238 2.216-0.158 0.158-0.317-0.818-0.475-2.93 0.159 0.319 0.397 0.557 0.713 0.714z" fill="#340202"/>
	<path d="m159.91 172.8c-0.158 0.949 0.081 1.847 0.712 2.689 0.475 0.633 1.215 0.871 2.216 0.712 0.791 0 1.423-0.317 1.899-0.95 1.266-1.318 1.661-2.452 1.187-3.402l-0.238-0.237h-1.425c-1.106 1e-3 -2.556 0.397-4.351 1.188zm-10.364 9.652v-3.639c0-5.274 1.292-8.651 3.877-10.127 2.743-1.582 5.803-2.058 9.178-1.424 3.165 0.633 5.724 2.242 7.676 4.826 0.475 0.633 0.553 0.95 0.236 0.95 0.475 1.107 0.555 2.4 0.238 3.876-0.475 1.425-1.425 2.875-2.848 4.352-1.794 1.741-4.22 2.928-7.28 3.561-3.692 0.527-6.408 0.871-8.148 1.029-0.317 0-0.74-0.265-1.267-0.792l-0.236-0.238c-0.793-0.316-1.267-1.107-1.426-2.374z"/>
	<path d="m159.91 172.8c1.794-0.792 3.245-1.187 4.352-1.187h1.425l0.238 0.237c0.474 0.95 0.079 2.083-1.187 3.402-0.476 0.633-1.108 0.95-1.899 0.95-1.001 0.159-1.742-0.08-2.216-0.712-0.632-0.843-0.87-1.741-0.713-2.69z" fill="#fff"/>
	<path d="m224.48 294.73c-0.316-0.157-0.555-0.396-0.712-0.712-0.159-1.266-0.316-2.953-0.474-5.064-0.159-1.74 0.158-4.219 0.949-7.437 2.269-0.476 4.616-1.766 7.042-3.875 0.475-0.477 0.949-0.872 1.423-1.188 7.861-2.11 14.69-6.303 20.493-12.58 2.848-3.218 5.248-6.752 7.2-10.603 2.109 2.269 4.115 5.09 6.015 8.468-4.326 4.324-6.885 10.575-7.676 18.752-0.844 8.86 0.343 17.459 3.561 25.793 2.583 6.278 7.095 15.533 13.529 27.771-13.504-5.961-20.492-9.019-20.967-9.178-7.859-4.483-12.449-10.101-13.766-16.853 0-0.315-0.476-0.815-1.425-1.502-0.791-0.634-1.187-0.791-1.187-0.476v2.688c-1.952-2.267-3.798-4.691-5.539-7.278-0.316-0.316-0.633-0.634-0.949-0.949-0.688-0.476-1.108-0.633-1.267-0.476l-0.949 1.663c-0.475-0.792-0.87-1.583-1.187-2.374-0.316-0.634-1.029-2.163-2.137-4.59-0.158-0.316-0.5-0.634-1.027-0.948-0.475-0.477-0.792-0.557-0.951-0.238 1e-3 0.157 1e-3 0.553 1e-3 1.186z" fill="#996"/>
</svg>