<?xml version="1.0" encoding="UTF-8"?>
<svg width="400" height="531.03" version="1.1" viewBox="0 0 400 531.03455" xmlns="http://www.w3.org/2000/svg">
 <defs>
  <filter id="a" x="-.049211" y="-.01587" width="1.0984" height="1.0317" color-interpolation-filters="sRGB">
   <feGaussianBlur stdDeviation="7.9376788"/>
  </filter>
  <filter id="t" x="-.014163" y="-.078577" width="1.0283" height="1.1572" color-interpolation-filters="sRGB">
   <feGaussianBlur stdDeviation="5.0965451"/>
  </filter>
  <filter id="u" x="-.014638" y="-.066593" width="1.0293" height="1.1332" color-interpolation-filters="sRGB">
   <feGaussianBlur stdDeviation="5.5360745"/>
  </filter>
  <filter id="v" x="-.012537" y="-.28026" width="1.0251" height="1.5605" color-interpolation-filters="sRGB">
   <feGaussianBlur stdDeviation="4.2029893"/>
  </filter>
  <filter id="w" x="-.013336" y="-.11981" width="1.0267" height="1.2396" color-interpolation-filters="sRGB">
   <feGaussianBlur stdDeviation="3.7794672"/>
  </filter>
  <filter id="m" x="-.025672" y="-.022532" width="1.0513" height="1.0451" color-interpolation-filters="sRGB">
   <feGaussianBlur stdDeviation="19.875446"/>
  </filter>
  <filter id="n" x="-.058241" y="-.015114" width="1.1165" height="1.0302" color-interpolation-filters="sRGB">
   <feGaussianBlur stdDeviation="7.5109386"/>
  </filter>
  <filter id="o" x="-.057902" y="-.015137" width="1.1158" height="1.0303" color-interpolation-filters="sRGB">
   <feGaussianBlur stdDeviation="7.5467356"/>
  </filter>
  <filter id="p" x="-.021689" y="-.026862" width="1.0434" height="1.0537" color-interpolation-filters="sRGB">
   <feGaussianBlur stdDeviation="13.617657"/>
  </filter>
  <filter id="q" x="-.026394" y="-.022004" width="1.0528" height="1.044" color-interpolation-filters="sRGB">
   <feGaussianBlur stdDeviation="3.338475"/>
  </filter>
  <filter id="r" x="-.026394" y="-.022004" width="1.0528" height="1.044" color-interpolation-filters="sRGB">
   <feGaussianBlur stdDeviation="3.338475"/>
  </filter>
  <filter id="s" x="-.024267" y="-.023739" width="1.0485" height="1.0475" color-interpolation-filters="sRGB">
   <feGaussianBlur stdDeviation="5.4668775"/>
  </filter>
 </defs>
 <g transform="translate(-8.446 -5.3091)">
  <g transform="matrix(.20624 0 0 .20624 -15.478 391.68)">
   <g transform="translate(-841.01 -691.37)">
    <g transform="translate(3.2926 1.531)">
     <g transform="translate(720.64 29.787)">
      <ellipse transform="rotate(90)" cx="1139.2" cy="-1563.1" rx="222.23" ry="191.93" fill="#b3b3b3"/>
      <path d="m1561.2 957.19c-54.853 1.2655-104.8 38.894-128.09 87.726-36.273 72.304-26.962 165.86 26.412 227.6 35.704 41.188 97.105 61.319 148.71 40.388 52.31-20.248 89.375-70.109 101.11-124.09 15.855-67.612-2.013-145.41-53.793-193.72-25.406-23.435-59.507-38.944-94.348-37.902z" fill="#f2f2f2" filter="url(#q)"/>
     </g>
     <g transform="translate(0 29.787)">
      <ellipse transform="rotate(90)" cx="1139.2" cy="-1563.1" rx="222.23" ry="191.93" fill="#b3b3b3"/>
      <path d="m1561.2 957.19c-54.853 1.2655-104.8 38.894-128.09 87.726-36.273 72.304-26.962 165.86 26.412 227.6 35.704 41.188 97.105 61.319 148.71 40.388 52.31-20.248 89.375-70.109 101.11-124.09 15.855-67.612-2.013-145.41-53.793-193.72-25.406-23.435-59.507-38.944-94.348-37.902z" fill="#f2f2f2" filter="url(#r)"/>
     </g>
    </g>
    <ellipse cx="1926.8" cy="-867.64" rx="308.57" ry="314.29" fill="#e6e6e6"/>
    <path d="m1925.2-1143.9c-110.6-0.2997-217.01 76.04-252.42 181.11-34.111 93.973-14.124 205.82 53.303 280.32 60.746 69.086 158.56 104.7 248.85 86.571 87.539-16.03 165.5-78.469 199.52-160.92 36.178-83.741 28.89-184.89-20.99-261.43-43.419-68.48-118.59-116.65-199.75-124.28-9.4311-0.9853-18.966-1.4428-28.519-1.3827z" fill="#f2f2f2" filter="url(#s)"/>
    <ellipse cx="1926.8" cy="34.128" rx="969.75" ry="1099" fill="#b3b3b3"/>
    <path d="m1916.8-1024.4c-204.74 2.7968-405.98 85.236-558.23 221.57-155.77 137.28-265.19 323.75-319.04 523.57-78.71 287.87-45.877 605.96 96.689 868.97 94.573 175.05 239.6 325.11 418.66 414.08 161.44 80.486 349.24 109.31 526.49 73.836 175.8-34.062 338.86-125.72 463.59-253.76 172.45-175.4 276.49-412.29 303.44-655.61 31.321-277.71-35.898-567.89-197.71-797.22-100.18-142.07-237.48-259.68-398.06-327.84-105.8-45.1-220.84-68.619-335.82-67.585z" fill="#f2f2f2" filter="url(#m)"/>
    <path d="m1895-178c0 168.78-29.161 330.65-81.068 450s-122.31 186.4-195.71 186.4c-229.07-9.4621-196.19-646.13-147.23-969.22 16.851-111.19 73.82-303.57 147.23-303.57 73.407 0 143.81 67.049 195.71 186.4 51.907 119.35 81.068 281.22 81.068 450z" fill="#e9afc6"/>
    <path transform="matrix(-1 0 0 1 3330.7 0)" d="m1708.8-778.19c-39.332 2.8956-72.603 29.037-96.352 59.074-52.691 64.759-81.741 145.01-102.53 224.99-46.74 182.68-48.497 375.28-16.223 560.56 18.024 96.754 47.833 193.3 102.69 276 23.516 33.516 54.237 65.134 94.365 77.433 26.85 7.0584 56.961-2.2374 75.316-22.889 31.162-31.046 45.309-73.649 57.77-114.72 25.568-91.705 31.559-187.56 34.525-282.39 3.0803-145.89-7.1102-291.7-24.804-436.41-11.423-86.848-26.23-174.37-60.252-255.62-12.04-27.598-25.978-54.647-45.941-77.418-5.0111-4.7133-11.381-9.0126-18.57-8.6152z" fill="#efc3d5" filter="url(#a)"/>
    <path d="m1895-178c0 168.78-29.161 330.65-81.068 450s-122.31 186.4-195.71 186.4c-229.07-9.4621-40.984-646.18-30.049-969.22 3.4399-101.63-43.358-303.57 30.049-303.57s143.81 67.049 195.71 186.4c51.907 119.35 81.068 281.22 81.068 450z" fill="#b3b3b3"/>
    <path d="m1985.2-178c0 168.78 29.161 330.65 81.068 450s122.31 186.4 195.71 186.4c229.07-9.4621 196.19-646.13 147.23-969.22-16.851-111.19-73.82-303.57-147.23-303.57-73.407 0-143.81 67.049-195.71 186.4-51.907 119.35-81.068 281.22-81.068 450z" fill="#e9afc6"/>
    <path d="m2258.2-778.25c-39.332 2.8956-72.603 29.037-96.352 59.074-52.691 64.759-81.741 145.01-102.53 224.99-46.74 182.68-48.497 375.28-16.223 560.56 18.024 96.754 47.833 193.3 102.69 276 23.516 33.516 54.237 65.134 94.365 77.433 26.85 7.0584 56.961-2.2374 75.316-22.889 31.162-31.046 45.309-73.649 57.77-114.72 25.568-91.705 31.559-187.56 34.525-282.39 3.0803-145.89-7.1102-291.7-24.804-436.41-11.423-86.848-26.23-174.37-60.252-255.62-12.04-27.598-25.978-54.647-45.941-77.418-5.0111-4.7133-11.381-9.0126-18.57-8.6152z" fill="#efc3d5" filter="url(#a)"/>
    <path d="m1985.2-178c0 168.78 29.161 330.65 81.068 450s122.31 186.4 195.71 186.4c229.07-9.4621 40.984-646.18 30.049-969.22-3.4399-101.63 43.358-303.57-30.049-303.57s-143.81 67.049-195.71 186.4c-51.907 119.35-81.068 281.22-81.068 450z" fill="#b3b3b3"/>
    <path d="m1621.5-775.76c-4.6933 9.6705-3.4896 20.845-5.5445 31.176-5.5172 68.45 10.222 136.43 9.8991 205.03 1.4872 98.653-15.012 196.32-28.028 293.78-24.484 168.16-55.883 336.4-53.867 506.89 1.3617 45.064 6.3687 91.93 28.423 132.16 11.496 18.124 33.454 30.491 55.18 26.457 33.627-3.7822 61.663-26.598 83.494-51.23 46.942-52.929 73.523-120.04 95.363-186.4 40.64-129.86 52.684-266.93 49.861-402.49-3.8386-132.61-25.556-266.03-75.956-389.4-22.762-53.19-53.047-105.19-98.271-142.12-17.386-13.234-38.381-23.536-60.387-24.146l-0.168 0.28711z" fill="#f2f2f2" filter="url(#o)"/>
    <path d="m2257.4-774.41c-39.023 3.8268-72.14 30.697-95.339 61.383-52.94 66.651-80.885 148.57-101.46 230.13-43.815 177.51-44.959 363.95-14.485 543.71 17.295 96.147 46.67 191.47 99.537 274.39 23.597 34.945 54.966 68.227 96.248 80.984 20.935 5.361 46.145 0.57883 59.358-17.845 20.944-26.676 25.446-61.232 29.796-93.829 8.7254-83.399 0.1243-167.37-8.4043-250.52-19.057-169.96-53.541-338.14-67.034-508.83-4.1743-54.219-4.6519-108.85 1.7518-162.92 4.7642-52.038 10.31-104.99 0.1755-156.68l-0.1445 0.0156z" fill="#f2f2f2" filter="url(#n)"/>
    <path d="m1926.8 1.8037a656.06 648.52 0 0 0 -627.66 460.39 793.98 508.81 0 0 0 -166.32 310.59 793.98 508.81 0 0 0 578.1 489.16 656.06 648.52 0 0 0 215.88 36.903 656.06 648.52 0 0 0 212.72 -35.861 793.98 508.81 0 0 0 581.26 -490.2 793.98 508.81 0 0 0 -167.22 -311.96 656.06 648.52 0 0 0 -626.76 -459.01z" fill="#b3b3b3"/>
    <path d="m1921.8 42.184c-187.87 0.78948-374.2 92.197-487.03 243.03-43.685 57.399-76.361 122.73-98.632 191.21-15.269 27.78-45.521 42.464-64.324 67.189-51.229 55.685-89.374 126.1-97.096 201.89-8.4491 86.763 25.995 173.8 81.823 239.33 69.822 83.252 165 141.28 264.83 181.72 69.858 27.951 143.3 44.675 216.27 62.156 74.53 21.581 152.36 35.321 230.07 28.309 62.783-4.466 123.96-20.701 184.5-37.213 75.602-16.68 151.12-37.024 221.09-70.652 92.529-42.572 179.31-103.06 240.52-185.43 48.811-66.611 76.775-151.58 62.926-234.24-11.914-76.735-53.73-146.86-108.9-200.85-16.777-16.928-35.343-32.41-49.751-51.485-13.333-25.345-17.754-54.412-31.903-79.261-83.619-183.07-263.4-318.52-462.47-347.86-33.701-5.3762-67.798-7.9827-101.94-7.8338z" fill="#f2f2f2" filter="url(#p)"/>
    <path d="m1553.2 387.47a114.18 96.788 67.179 0 0 -9.7361 1.034 114.18 96.788 67.179 0 0 -70.541 126.49 114.18 96.788 67.179 0 0 121.91 94.702 114.18 96.788 67.179 0 0 70.543 -126.49 114.18 96.788 67.179 0 0 -112.18 -95.736zm764.42 0a96.788 114.18 22.821 0 0 -112.18 95.736 96.788 114.18 22.821 0 0 70.543 126.49 96.788 114.18 22.821 0 0 121.92 -94.702 96.788 114.18 22.821 0 0 -70.543 -126.49 96.788 114.18 22.821 0 0 -9.7343 -1.034z" fill="#1a1a1a"/>
    <path d="m1821.2 819.54c-5.4419 6.3492-10.772 16.612-4.2969 24.111 18.017 10.138 37.847 17.299 56.797 25.733 16.775 7.2204 33.402 14.778 50.21 21.923v104.38c-29.087 16.457-58.173 32.914-87.26 49.371-6.8501 11.823 9.1629 25.852 20.451 19.424 26.859-15.844 54.196-30.811 81.274-46.272 29.444 16.127 58.073 34.043 88.098 48.924 12.608 0.6744 19.171-19.115 7.918-25.516-27.373-14.999-54.388-30.643-81.594-45.943v-104.38c36.301-15.789 72.602-31.577 108.9-47.367 6.9223-9.5018-3.0575-22.909-13.861-22.254-8.8699 1.5174-16.559 7.272-25.04 10.185-28.094 12.392-56.326 24.466-84.458 36.77-38.743-16.853-77.486-33.705-116.23-50.559l-0.5276 0.84952-0.3845 0.61923z" color="#000000" color-rendering="auto" fill="#de87aa" fill-rule="evenodd" image-rendering="auto" shape-rendering="auto" solid-color="#000000" style="block-progression:tb;isolation:auto;mix-blend-mode:normal;text-decoration-color:#000000;text-decoration-line:none;text-decoration-style:solid;text-indent:0;text-transform:none;white-space:normal"/>
    <path d="m2304.7 399.37c-42.308 0.9591-78.116 33.482-91.945 72.158-12.27 33.347-9.4603 73.411 13.572 101.6 23.124 28.887 68.516 33.327 98.631 13.043 49.259-29.099 71.498-98.345 43.371-149.16-12.705-22.302-37.555-38.307-63.629-37.639zm-757.54 0.0332c-37.644 0.19464-69.2 33.608-72.824 70.086-8.5891 52.428 24.444 110.92 76.699 126.5 32.75 9.9113 72.404-6.4628 86.412-38.207 27.895-54.683-1.0897-128.67-57.378-151.96-10.273-4.2566-21.561-6.6585-32.909-6.4229z" fill="#333" filter="url(#u)"/>
    <path d="m2305.4 421.37c-38.21 1.9743-69.375 35.074-76.055 71.602-5.242 25.325 0.5174 54.413 20.463 72.4 22.077 18.059 56.573 12.945 76.22-6.5113 30.482-26.837 42.885-74.936 22.783-111.43-8.8149-15.298-25.31-26.337-43.412-26.059zm-757.69 0.0352c-30.988 1.035-54.763 32.272-52.6 62.218-1.8855 42.262 28.785 85.853 71.559 93.145 29.477 3.1537 57.191-22.633 58.593-51.782 6.9541-43.188-20.72-90.858-64.009-102.13-4.4306-1.0483-8.9917-1.5241-13.543-1.4473z" fill="#4d4d4d" filter="url(#t)"/>
    <g transform="translate(-9.2783)" fill="#808080" filter="url(#w)">
     <path d="m1635.8 496.26c4.8233 20.705-1.652 39.909-14.463 42.893-12.811 2.9843-15.177-14.16-20-34.865-4.8232-20.705-10.277-37.13 2.5341-40.114 12.811-2.9843 27.106 11.381 31.929 32.086z"/>
     <path d="m2236.3 496.26c-4.8233 20.705 1.652 39.909 14.463 42.893 12.811 2.9843 15.177-14.16 20-34.865 4.8232-20.705 10.277-37.13-2.5341-40.114-12.811-2.9843-27.106 11.381-31.929 32.086z"/>
    </g>
    <g transform="translate(-2.2946 -30.313)" fill="#666" filter="url(#v)">
     <path d="m2314.5 530.59c-16.544 0.16741-22.126 26.123-7.8808 33.861 10.192 6.2204 25.188-2.1564 24.801-14.277 0.4891-9.3789-6.6793-20.168-16.92-19.584zm-771.63 2e-3c-16.628 0.19236-22.135 26.242-7.7579 33.938 10.342 6.1452 25.338-2.5392 24.686-14.732 0.3027-9.2623-6.8359-19.794-16.928-19.205z" fill="#666"/>
    </g>
   </g>
  </g>
 </g>
</svg>
