<?xml version="1.0" encoding="UTF-8"?>
<svg viewBox="0 0 500 500" xmlns="http://www.w3.org/2000/svg">
 <path d="m0 0v500h500v-500h-500z" fill="#fff"/>
 <path d="m129 4v1h3l-3-1z" fill="#7f7f7f"/>
 <path d="m174 4v1h4l-4-1z" fill="#a9cbe3"/>
 <path d="m127 5l1 1-1-1z" fill="#666"/>
 <path d="m236 454c3.393-3.685 18.028-10.877 22.485-6.589 4.4 4.233 0.29 16.635-5.669 17.591-3.159 0.507-6.999-2.835-9.816-4.002 2.231 3.795 7.548 5.735 8.678 10.093 0.661 2.548 0.011 5.453-0.722 7.907-5.428 18.185-24.533 9.444-36.956 5-17.312 15.055-40.336-17.417-48-29h-1c3.871 16.298 18.248 32.908 35 36.482 7.433 1.586 15.453 0.091 23 0.608 7.494 0.513 17.921 3.095 24.995-0.408 8.286-4.103 8.028-15.213 11.354-22.682 1.636-3.674 4.647-6.973 5.359-11 0.794-4.493-3.23-10.539-0.09-14.39 5.855-7.182 19.588-11.45 27.382-16.614 19.882-13.173 41.344-31.617 51-53.996 11.167 7.636 22.67 20.493 37 21.895 12.086 1.183 16.249-3.346 26-8.961 7.253-4.177 14.744-4.367 20.815-10.974 11.178-12.164 4.078-25.568 0.086-38.96-1.186-3.979-0.39-8.359-2.643-12-8.177-13.209-27.03-14.068-40.258-19 6.593-15.836 14.83-31.012 23.139-46 2.477-4.469 4.995-13.279 10.071-15.393 14.109-5.875 36.079 27.187 48.441 8.338 10.179-15.52 8.325-34.257 5.429-51.945-6.563-40.089-22.895-77.605-49.001-109-10.112-12.161-25.697-29.078-42.079-32v1c7.1 3.9527 15.363 8.7845 20.66 15.039 18.911 22.33 2.515 53.469-1.66 76.961h-4c0-17.932-1.627-34.956-7.692-52-4.778-13.427-12.463-25.686-17.308-39h-1c0.095 10.596 6.809 19.656 11.219 29 5.211 11.04 9.256 23.937 11.053 36 0.84 5.644 3.936 14.402 1.199 19.837-2.139 4.249-8.012 1.692-11.471 0.786-11.14-2.918-20.176-11.175-29-18.223-26.743-21.363-45.53-51.362-73-71.77-8.906-6.6163-20.922-15.654-32-17.63l4 3v2c-14.282 3.6951-28.409 6.853-42 12.862-9.401 4.1566-18.312 11.247-28 14.44-12.35 4.0697-27.136 2.2854-40 5.1227-22.579 4.9799-40.091 14.491-60 25.576-6.5038-27.318 10.43-75.158 37-87-14.923 22.121-29.433 49.545-30 77h1c19.303-33.041 39.454-74.764 79-85-17.713 21.76-53.132 38.057-60 68 7.939-3.702 13.57-12.012 20-17.83 19.829-17.942 50.09-44.537 79-39.17v2c-20.983 4.3425-40.893 17.018-58 29.425-6.487 4.7047-15.329 10.324-19 17.575 7.839-1.8421 14.796-8.125 22-11.752 21.115-10.632 46.84-24.232 71-24.248v-1c-15.365 0-28.931 2.4498-43 9 8.444-8.5344 27.25-14.416 39-16-4.304-8.2793-16.867-8.2804-25-7.2847-23.729 2.905-38.414 16.088-58 28.285l29-25.127 16-13.873c-11.121 0-22.693-0.39188-33 4.4931-18.136 8.5956-27.025 28.378-40 42.507l24-47c-33.063 2.8867-47.675 44.486-51.728 72-1.1978 8.1308-0.5599 17.061-2.5887 25-2.28 8.922-16.064 16.963-21.928 24-12.678 15.212-21.608 32.453-25.295 52-4.9313 26.148-3.7316 55.393 6.9645 80 5.6496 12.997 13.342 25.041 19 38 1.721 3.942 5.1021 8.604 5.3534 12.985 0.3422 5.965-11.802 12.966-14.412 19.015-3.5678 8.268-0.4407 16.761-2.3935 25-1.267 5.346-7.2346 8.966-9.5555 14-5.9081 12.815-0.284 30.06 7.1034 41 22.15 32.801 69.377 33.285 104.48 39.614 16.049 2.894 32.617 8.451 49 9.168 13.556 0.592 26.257-5.333 40-2.782z" fill="#010101"/>
 <path d="m160 5v1h4l-4-1z" fill="#2d353a"/>
 <path d="m181.33 5.6667l0.334 0.66668-0.334-0.66668z" fill="#aaa"/>
 <path d="m124 6l1 1-1-1z" fill="#8b9194"/>
 <path d="m155.67 6.3333l0.666 0.33332-0.666-0.33332m-24.667 0.66666l1 1-1-1z" fill="#666"/>
 <path d="m152 7l1 1-1-1z" fill="#8b9194"/>
 <path d="m166.67 7.3333l0.666 0.33332-0.666-0.33332z" fill="#295c69"/>
 <path d="m180 7l1 1-1-1m-30 1l1 1-1-1z" fill="#666"/>
 <path d="m161.67 8.3333l0.666 0.33332-0.666-0.33332z" fill="#327081"/>
 <path d="m89 92h-1c-2.822-27.286 18.707-54.298 30-77-8.238 2.2442-14.37 10.373-19.244 17-14.916 20.281-17.756 44.538-17.756 69 13-2.5139 26.202-14.082 39-18.936 20.566-7.7994 42.714-5.0763 63-11.524 23.534-7.4799 42.497-23.106 68-26.54-6.296-10.556-22.968-12.127-34-11.996-32.005 0.3788-60.498 22.986-88 35.996 4.876-6.7794 12.389-12.073 19-17.116 16.418-12.522 38.233-27.308 59-30.884v-2c-27.104 0-49.637 12.67-70 30.289-9.814 8.4913-18.435 19.269-29 26.711 9.56-26.113 38.113-50.266 60-66-10.451-4.0774-24.911 6.8629-31.285 14.004-18.356 20.563-36.99 43.242-47.715 68.996z" fill="#51bcd9"/>
 <path d="m179 8l1 1-1-1m-61 1l1 1-1-1z" fill="#7f7f7f"/>
 <path d="m157.67 9.3333l0.666 0.33332-0.666-0.33332z" fill="#327081"/>
 <path d="m177 9l1 1-1-1z" fill="#7f7f7f"/>
 <path d="m129 10l1 1-1-1z" fill="#666"/>
 <path d="m154.67 10.333l0.666 0.3334-0.666-0.3334z" fill="#3c8ca0"/>
 <path d="m115 11l1 1-1-1m29 0l1 1-1-1m-16 1l1 1-1-1z" fill="#666"/>
 <path d="m173 12l1 1-1-1z" fill="#aaa"/>
 <path d="m112 13l1 1-1-1z" fill="#8b9194"/>
 <path d="m141 13l1 1-1-1z" fill="#666"/>
 <path d="m127 14l1 1-1-1z" fill="#7f7f7f"/>
 <path d="m170 14l1 1-1-1z" fill="#666"/>
 <path d="m138 15l1 1-1-1m31 0l1 1-1-1z" fill="#aaa"/>
 <path d="m190 15v1h3l-3-1z" fill="#8b9194"/>
 <path d="m193 15v1h3l-3-1m10.667 0.3333l0.666 0.3334-0.666-0.3334z" fill="#404241"/>
 <path d="m205.67 15.333l0.666 0.3334-0.666-0.3334m-79.667 0.6667l1 1-1-1m11 0l1 1-1-1z" fill="#7f7f7f"/>
 <path d="m143 16l1 1-1-1z" fill="#295c69"/>
 <path d="m185.67 16.333l0.666 0.3334-0.666-0.3334z" fill="#7f7f7f"/>
 <path d="m210 16l1 1-1-1z" fill="#666"/>
 <path d="m107 17l1 1-1-1z" fill="#aaa"/>
 <path d="m136 17l1 1-1-1m30 0l1 1-1-1m15.667 0.3333l0.666 0.3334-0.666-0.3334z" fill="#666"/>
 <path d="m191 17v1h14l-14-1z" fill="#3c8ca0"/>
 <path d="m213 17l1 1-1-1m-107 1l1 1-1-1z" fill="#aaa"/>
 <path d="m125 18l1 1-1-1z" fill="#8b9194"/>
 <path d="m135 18l1 1-1-1z" fill="#666"/>
 <path d="m178.67 18.333l0.666 0.3334-0.666-0.3334z" fill="#404241"/>
 <path d="m187 18v1h3l-3-1z" fill="#327081"/>
 <path d="m105 19l1 1-1-1z" fill="#aaa"/>
 <path d="m134 19l1 1-1-1z" fill="#666"/>
 <path d="m175 19l1 1-1-1z" fill="#8b9194"/>
 <path d="m184.67 19.333l0.666 0.3334-0.666-0.3334z" fill="#3c8ca0"/>
 <path d="m104 20l1 1-1-1z" fill="#aaa"/>
 <path d="m114 20l1 1-1-1z" fill="#295c69"/>
 <path d="m124 20l1 1-1-1z" fill="#aaa"/>
 <path d="m133 20l1 1-1-1m29 0l1 1-1-1z" fill="#666"/>
 <path d="m203.67 20.333l0.666 0.3334-0.666-0.3334z" fill="#163139"/>
 <path d="m103 21l1 1-1-1z" fill="#aaa"/>
 <path d="m132 21l1 1-1-1z" fill="#666"/>
 <path d="m170 21l1 1-1-1m-68 1l1 1-1-1z" fill="#aaa"/>
 <path d="m131 22l1 1-1-1z" fill="#666"/>
 <path d="m168 22l1 1-1-1z" fill="#aaa"/>
 <path d="m112 23l1 1-1-1z" fill="#295c69"/>
 <path d="m130 23l1 1-1-1z" fill="#7f7f7f"/>
 <path d="m158 23l1 1-1-1z" fill="#666"/>
 <path d="m166 23l1 1-1-1z" fill="#aaa"/>
 <path d="m215 23v1h3l-3-1z" fill="#8b9194"/>
 <path d="m129 24l1 1-1-1m28 0l1 1-1-1z" fill="#aaa"/>
 <path d="m211.67 24.333l0.666 0.3334-0.666-0.3334z" fill="#8b9194"/>
 <path d="m208.67 25.333l0.666 0.3334-0.666-0.3334z" fill="#aaa"/>
 <path d="m99 26l1 1-1-1z" fill="#666"/>
 <path d="m103 26l1 1-1-1z" fill="#295c69"/>
 <path d="m161 26l1 1-1-1z" fill="#7f7f7f"/>
 <path d="m205.67 26.333l0.666 0.3334-0.666-0.3334z" fill="#aaa"/>
 <path d="m98 27l1 1-1-1z" fill="#8b9194"/>
 <path d="m120 27l1 1-1-1z" fill="#666"/>
 <path d="m153 27l1 1-1-1z" fill="#7f7f7f"/>
 <path d="m126 28l1 1-1-1z" fill="#666"/>
 <path d="m152 28l1 1-1-1z" fill="#aaa"/>
 <path d="m158 28l1 1-1-1z" fill="#666"/>
 <path d="m200 28l1 1-1-1z" fill="#8b9194"/>
 <path d="m119 29l1 1-1-1z" fill="#666"/>
 <path d="m125 29l1 1-1-1z" fill="#8b9194"/>
 <path d="m197 29l1 1-1-1z" fill="#666"/>
 <path d="m209.67 29.333l0.666 0.3334-0.666-0.3334z" fill="#a9cbe3"/>
 <path d="m211 29v1h3l-3-1z" fill="#7f7f7f"/>
 <path d="m214 29v1h3l-3-1z" fill="#404241"/>
 <path d="m217.67 29.333l0.666 0.3334-0.666-0.3334z" fill="#7f7f7f"/>
 <path d="m96 30l1 1-1-1m59 0l1 1-1-1z" fill="#666"/>
 <path d="m195 30l1 1-1-1z" fill="#7f7f7f"/>
 <path d="m205 30l1 1-1-1z" fill="#8b9194"/>
 <path d="m213 31v1h12l-12-1z" fill="#295c69"/>
 <path d="m118 31l1 1-1-1z" fill="#7f7f7f"/>
 <path d="m148 31l1 1-1-1z" fill="#666"/>
 <path d="m161 31l1 1-1-1z" fill="#295c69"/>
 <path d="m193 31l1 1-1-1z" fill="#aaa"/>
 <path d="m201 31l1 1-1-1m-54 1l1 1-1-1z" fill="#666"/>
 <path d="m152 32l1 1-1-1z" fill="#8b9194"/>
 <path d="m197.67 32.333l0.666 0.3334-0.666-0.3334z" fill="#525e66"/>
 <path d="m209.67 32.333l0.666 0.3334-0.666-0.3334z" fill="#3c8ca0"/>
 <path d="m227 32v1h4l-4-1z" fill="#a7dfeb"/>
 <path d="m94 33l1 1-1-1m23 0l1 1-1-1z" fill="#7f7f7f"/>
 <path d="m122 33l1 1-1-1z" fill="#8b9194"/>
 <path d="m146 33l1 1-1-1z" fill="#aaa"/>
 <path d="m174 33l1 1-1-1z" fill="#295c69"/>
 <path d="m188 33l1 1-1-1z" fill="#666"/>
 <path d="m145 34l1 1-1-1z" fill="#aaa"/>
 <path d="m186 34l1 1-1-1z" fill="#666"/>
 <path d="m191 34l1 1-1-1z" fill="#8b9194"/>
 <path d="m202.67 34.333l0.666 0.3334-0.666-0.3334z" fill="#327081"/>
 <path d="m116 35l1 1-1-1z" fill="#aaa"/>
 <path d="m148 35l1 1-1-1z" fill="#666"/>
 <path d="m184 35l1 1-1-1z" fill="#7f7f7f"/>
 <path d="m188.67 35.333l0.666 0.3334-0.666-0.3334z" fill="#525e66"/>
 <path d="m120 36l1 1-1-1z" fill="#666"/>
 <path d="m181 38h3l-1-2-2 2z" fill="#a9cbe3"/>
 <path d="m115 37l1 1-1-1m4 0l1 1-1-1m26 0l1 1-1-1z" fill="#aaa"/>
 <path d="m180.33 37.667l0.334 0.6666-0.334-0.6666z" fill="#404241"/>
 <path d="m91 38l1 1-1-1z" fill="#aaa"/>
 <path d="m246 40l3-1-3 1z" fill="#7f7f7f"/>
 <path d="m148 39l1 1-1-1z" fill="#295c69"/>
 <path d="m90 40l1 1-1-1z" fill="#aaa"/>
 <path d="m117 40l1 1-1-1m24 0l1 1-1-1z" fill="#7f7f7f"/>
 <path d="m162 40l1 1-1-1z" fill="#295c69"/>
 <path d="m181.67 41.333l0.666 0.3334-0.666-0.3334z" fill="#327081"/>
 <path d="m89 42l1 1-1-1z" fill="#aaa"/>
 <path d="m137 42l-1 2h2l-1-2z" fill="#8b9194"/>
 <path d="m144 42l1 1-1-1z" fill="#295c69"/>
 <path d="m257 43l1 1-1-1z" fill="#666"/>
 <path d="m114 44l1 1-1-1z" fill="#8b9194"/>
 <path d="m247 44v1h3l-3-1z" fill="#295c69"/>
 <path d="m259 44l1 1-1-1z" fill="#666"/>
 <path d="m243.67 45.333l0.666 0.3334-0.666-0.3334z" fill="#163139"/>
 <path d="m261 45l1 1-1-1z" fill="#8b9194"/>
 <path d="m110 46l1 1-1-1z" fill="#666"/>
 <path d="m153 46l1 1-1-1z" fill="#295c69"/>
 <path d="m87 47l1 1-1-1z" fill="#7f7f7f"/>
 <path d="m235.67 47.333l0.666 0.3334-0.666-0.3334z" fill="#163139"/>
 <path d="m246 47v1h3l-3-1z" fill="#525e66"/>
 <path d="m189 72l49 10.816 41-2.6868 21 1.8712c-6.011-11.09-19.127-19.206-29-26.627-3.909-2.9375-7.993-7.4564-13-8.2253-13.77-2.1144-31.66 5.3018-44 10.713-7.62 3.3415-20.512 6.8009-25 14.139z" fill="#a9cbe3"/>
 <path d="m109 48l1 1-1-1z" fill="#7f7f7f"/>
 <path d="m111 48l1 1-1-1z" fill="#8b9194"/>
 <path d="m231.67 48.333l0.666 0.3334-0.666-0.3334z" fill="#295c69"/>
 <path d="m242.67 48.333l0.666 0.3334-0.666-0.3334z" fill="#5f7686"/>
 <path d="m266 48l1 1-1-1z" fill="#7f7f7f"/>
 <path d="m86.333 49.667l0.3334 0.6666-0.3334-0.6666z" fill="#666"/>
 <path d="m124 49l1 1-1-1z" fill="#295c69"/>
 <path d="m228.67 49.333l0.666 0.3334-0.666-0.3334z" fill="#254856"/>
 <path d="m238.67 49.333l0.666 0.3334-0.666-0.3334z" fill="#698f75"/>
 <path d="m108.33 50.667l0.334 0.6666-0.334-0.6666z" fill="#666"/>
 <path d="m225.67 50.333l0.666 0.3334-0.666-0.3334z" fill="#163139"/>
 <path d="m234.67 50.333l0.666 0.3334-0.666-0.3334z" fill="#5f7686"/>
 <path d="m269 50l1 1-1-1z" fill="#666"/>
 <path d="m265 51l1 1-1-1m-179.67 1.6667l0.3334 0.6666-0.3334-0.6666m139.67 0.3333l1 1-1-1z" fill="#525e66"/>
 <path d="m84.333 55.667l0.3334 0.6666-0.3334-0.6666z" fill="#666"/>
 <path d="m105 55v3l2-3h-2z" fill="#0d1767"/>
 <path d="m278 56l1 1-1-1z" fill="#7f7f7f"/>
 <path d="m273 57l1 1-1-1z" fill="#525e66"/>
 <path d="m145 58l1 1-1-1z" fill="#295c69"/>
 <path d="m395 151c7.665-1.318 8.788-12.62 10.373-19 4.031-16.221 7.088-47.011-6.467-59.7-5.272-4.9345-13.03-10.708-19.906-13.051-2.113-0.7199-6.293-1.9927-7.879 0.358-3.193 4.7315 7.442 20.756 9.57 25.393 8.546 18.616 19.264 45.189 14.309 66z" fill="#51bcd9"/>
 <path d="m83.333 59.667l0.3334 0.6666-0.3334-0.6666z" fill="#404241"/>
 <path d="m282 59l1 1-1-1m101 0l1 1-1-1z" fill="#7f7f7f"/>
 <path d="m208 60l1 1-1-1z" fill="#525e66"/>
 <path d="m277 60l1 1-1-1z" fill="#5f7686"/>
 <path d="m385 60l1 1-1-1m-17 1v6h1l-1-6z" fill="#7f7f7f"/>
 <path d="m387 61l1 1-1-1z" fill="#aaa"/>
 <path d="m84.333 62.667l0.3334 0.6666-0.3334-0.6666z" fill="#327081"/>
 <path d="m133 62l1 1-1-1z" fill="#295c69"/>
 <path d="m370.33 62.667l0.334 0.6666-0.334-0.6666z" fill="#163139"/>
 <path d="m82.333 63.667l0.3334 0.6666-0.3334-0.6666z" fill="#404241"/>
 <path d="m281 63l1 1-1-1z" fill="#5f7686"/>
 <path d="m287 63l1 1-1-1z" fill="#aaa"/>
 <path d="m390 63l1 1-1-1z" fill="#666"/>
 <path d="m93.333 64.667l0.3334 0.6666-0.3334-0.6666z" fill="#163139"/>
 <path d="m288 64l1 1-1-1m1 1l1 1-1-1z" fill="#666"/>
 <path d="m129 66v2h2l-2-2m61 0l1 1-1-1z" fill="#295c69"/>
 <path d="m81 67v3h1l-1-3z" fill="#666"/>
 <path d="m92.333 67.667l0.3334 0.6666-0.3334-0.6666z" fill="#295c69"/>
 <path d="m287 68l1 1-1-1z" fill="#525e66"/>
 <path d="m369 68l1 1-1-1z" fill="#7f7f7f"/>
 <path d="m190 69l1 1-1-1z" fill="#525e66"/>
 <path d="m399 69l1 1-1-1z" fill="#7f7f7f"/>
 <path d="m370 70l1 1-1-1z" fill="#666"/>
 <path d="m80.333 71.667l0.3334 0.6666-0.3334-0.6666z" fill="#aaa"/>
 <path d="m91.333 71.667l0.3334 0.6666-0.3334-0.6666z" fill="#254856"/>
 <path d="m178 71v1h4l-4-1z" fill="#3c8ca0"/>
 <path d="m82 72v3h1l-1-3z" fill="#327081"/>
 <path d="m167 72v1h7l-7-1z" fill="#163139"/>
 <path d="m193 72v1h4l-4-1z" fill="#5f7686"/>
 <path d="m291 72l1 1-1-1z" fill="#525e66"/>
 <path d="m371 72l1 1-1-1z" fill="#666"/>
 <path d="m403 72l1 1-1-1z" fill="#aaa"/>
 <path d="m80 73v3h1l-1-3z" fill="#525e66"/>
 <path d="m157 73v1h3l-3-1z" fill="#295c69"/>
 <path d="m200 73v1h3l-3-1z" fill="#404241"/>
 <path d="m404 73l1 1-1-1z" fill="#666"/>
 <path d="m149 74v1h3l-3-1z" fill="#327081"/>
 <path d="m173 74v1h4l-4-1z" fill="#163139"/>
 <path d="m177 74v1h15l-15-1z" fill="#295c69"/>
 <path d="m206 74v1h3l-3-1z" fill="#525e66"/>
 <path d="m372 74l1 1-1-1m33 0l1 1-1-1z" fill="#666"/>
 <path d="m90.333 75.667l0.3334 0.6666-0.3334-0.6666z" fill="#254856"/>
 <path d="m143 75v1h3l-3-1z" fill="#3c8ca0"/>
 <path d="m166 75v1h3l-3-1z" fill="#295c69"/>
 <path d="m150 78v2c52.84 4.6076 83.772 64.642 95.127 110 3.883 15.512 5.209 31.256 7.793 47 1.186 7.229 2.027 14.719 10.08 17 4.85-10.197 5.576-20.667 9.615-31 3.461-8.855 10.004-17.401 11.2-27 5.441-43.688-22.121-98.708-63.815-115.55-23.218-9.3769-46.25-3.4754-70-2.4529z" fill="#51bcd9"/>
 <path d="m198.67 75.333l0.666 0.3334-0.666-0.3334z" fill="#3c8ca0"/>
 <path d="m200 75v1h3l-3-1z" fill="#254856"/>
 <path d="m211 75v1h3l-3-1z" fill="#5f7686"/>
 <path d="m139.67 76.333l0.666 0.3334-0.666-0.3334z" fill="#295c69"/>
 <path d="m158 76v1h3l-3-1z" fill="#163139"/>
 <path d="m205.67 76.333l0.666 0.3334-0.666-0.3334z" fill="#295c69"/>
 <path d="m215.67 76.333l0.666 0.3334-0.666-0.3334m79.333-0.3333l1 1-1-1z" fill="#525e66"/>
 <path d="m373 76l1 1-1-1z" fill="#666"/>
 <path d="m135.67 77.333l0.666 0.3334-0.666-0.3334z" fill="#254856"/>
 <path d="m153 77v1h3l-3-1z" fill="#295c69"/>
 <path d="m210.67 77.333l0.666 0.3334-0.666-0.3334z" fill="#163139"/>
 <path d="m219.67 77.333l0.666 0.3334-0.666-0.3334z" fill="#5f7686"/>
 <path d="m301 77l1 1-1-1z" fill="#666"/>
 <path d="m79 78v3h1l-1-3z" fill="#8b9194"/>
 <path d="m131.67 78.333l0.666 0.3334-0.666-0.3334z" fill="#163139"/>
 <path d="m223.67 78.333l0.666 0.3334-0.666-0.3334z" fill="#698f75"/>
 <path d="m302 78l1 1-1-1m72 0l1 1-1-1z" fill="#7f7f7f"/>
 <path d="m81 79v5h1l-1-5z" fill="#3c8ca0"/>
 <path d="m89.333 79.667l0.3334 0.6666-0.3334-0.6666m38.334-0.3334l0.666 0.3334-0.666-0.3334z" fill="#295c69"/>
 <path d="m303 79l1 1-1-1z" fill="#aaa"/>
 <path d="m124.67 80.333l0.666 0.3334-0.666-0.3334z" fill="#163139"/>
 <path d="m152 80v1h3l-3-1z" fill="#327081"/>
 <path d="m275 80v1h7l-7-1z" fill="#2d353a"/>
 <path d="m282.67 80.333l0.666 0.3334-0.666-0.3334z" fill="#5f7686"/>
 <path d="m299 80l1 1-1-1z" fill="#525e66"/>
 <path d="m375 80l1 1-1-1z" fill="#7f7f7f"/>
 <path d="m79.333 81.667l0.3334 0.6666-0.3334-0.6666z" fill="#404241"/>
 <path d="m121.67 81.333l0.666 0.3334-0.666-0.3334z" fill="#163139"/>
 <path d="m135 81v1h4l-4-1z" fill="#8a9309"/>
 <path d="m139 81v1h7l-7-1z" fill="#a9b209"/>
 <path d="m156.67 81.333l0.666 0.3334-0.666-0.3334z" fill="#254856"/>
 <path d="m263 81v1h6l-6-1z" fill="#2d353a"/>
 <path d="m257 82v1h36c-10.725-4.8148-24.667-1-36-1z" fill="#010101"/>
 <path d="m287 81v1h3l-3-1z" fill="#404241"/>
 <path d="m407.67 81.333l0.666 0.3334-0.666-0.3334z" fill="#525e66"/>
 <path d="m413 81l1 1-1-1z" fill="#aaa"/>
 <path d="m118.67 82.333l0.666 0.3334-0.666-0.3334z" fill="#163139"/>
 <path d="m130.67 82.333l0.666 0.3334-0.666-0.3334z" fill="#6d7406"/>
 <path d="m31 207c5.3663-1.53 8.877-3.898 13 1-8.0657-1.919-12.549 0.332-13 9 7.903-1.851 14.722-7.617 20 2-6.0163-3.37-17.774-4.93-18.601 5.004-1.82 21.858 15.328 46.861 23.601 65.996 4.2268 9.776 5.7479 21.983 18 17-2.9556-10.854-17.315-23.238-13.723-35.996 2.9119-10.342 13.068-7.395 18.719-1.964 9.912 9.526 15.224 22.66 18.004 35.96 8.122-3.073 17.726-11.195 26-4l-20 3v2l31 11v1c-10.604-4.091-21.497-7.841-33-7.996-14.014-0.189-29.804-1.905-42 6.785-23.834 16.983-8.0497 53.849 10 68.885 31.829 26.516 81.996 8.852 104.1-20.674 8.55-11.418 17.627-26.475 18.895-41-7.626 0.964-16.004 1.795-22-4l49-12v1c-13.899 3.516-10.002 19.957-8.421 31 3.53 24.645 8.951 52.316-12.583 70.787-21.216 18.198-25.118-10.375-42.996-15.486-8.655-2.474-14.757 1.499-23 3.246-13.599 2.882-27.461 5.174-41 0.782-12.735-4.132-22.969-11.128-31.7-21.329-4.4812-5.236-7.5992-15.904-14.3-18-2.4055 5.582-7.0951 10.863-7.8673 17-4.8406 38.468 42.503 52.964 71.867 58.8 25.503 5.069 50.976 13.328 77 15.11 40.747 2.791 81.779-13.082 114-37.285 11.518-8.652 21.8-18.811 31.285-29.625 3.274-3.733 8.372-7.809 9.238-13 1.388-8.321-13.401-22.139-17.712-29-14.506-23.086-29.606-49.18-35.811-76h1c4.987 11.796 14.675 22.962 28 23l-3-30c19.442 19.851 40.912 41.243 70 45 6.611-38.417 43.168-67.98 39.169-108-1.307-13.083-6.444-35.866-21.169-40 8.274 22.423 24.658 55.876-1 74-5.163-20.718-4.706-42.598-11.951-63-2.949-8.305-4.63-18.662-15.049-19 2.204 8.059 6.947 15.087 9.331 23 7.331 24.329 5.758 55.717-17.331 71-6.879-26 1.465-53.403-6.59-80-3.018-9.964-9.398-24.382-20.41-27 4.072 17.144 14.828 31.607 14.821 50-5e-3 11.827-7.581 24.479-10.448 36-2.276 9.152-4.661 15.436-10.503 22.998-2.065 2.673-4.955 6.875-8.476 3.706-4.292-3.862-4.268-12.389-4.394-17.704-0.275-11.55-1.782-23.54-3.289-35-5.827-44.312-28.749-105.67-81.711-110 3.297 5.4997 9.352 8.7672 14 13.09 7.748 7.2055 14.632 15.09 20.484 23.91 13.223 19.931 23.438 47.836 18.512 72-2.012 9.869-7.882 17.651-11.021 27-2.091 6.223-1.703 12.913-4.244 19-2.628 6.296-7.987 10.759-10.731 17-16.213-12.492-15.381-44.263-18.275-63-3.989-25.832-15.464-50.185-31.1-71-9.751-12.981-21.308-24.266-35.625-32.135-26.865-14.764-54.919-8.6318-80 6.3356-40.17 23.972-64.969 62.71-65 109.8z" fill="#e7f30b"/>
 <path d="m149 82v1h3l-3-1z" fill="#8a9309"/>
 <path d="m161.67 82.333l0.666 0.3334-0.666-0.3334z" fill="#327081"/>
 <path d="m251 82v1h6l-6-1z" fill="#2d353a"/>
 <path d="m291 83v1l4-1h-4z" fill="#163139"/>
 <path d="m295 82v1h5l-5-1z" fill="#525e66"/>
 <path d="m376 82l1 1-1-1z" fill="#7f7f7f"/>
 <path d="m407 82c2.135 15.854 5.227 29.828 2.704 46-1.372 8.792-5.681 16.484-7.704 25l9 5c5.338-10.135 11.297-19.938 16.769-30 2.053-3.775 5.963-8.482 5.74-13-0.343-6.96-9.384-15.749-13.509-21-3.762-4.7896-6.885-10.279-13-12z" fill="#a9cbe3"/>
 <path d="m127.67 83.333l0.666 0.3334-0.666-0.3334z" fill="#a9b209"/>
 <path d="m155.67 83.333l0.666 0.3334-0.666-0.3334z" fill="#6d7406"/>
 <path d="m164.67 83.333l0.666 0.3334-0.666-0.3334z" fill="#327081"/>
 <path d="m239 83v1h6l-6-1z" fill="#2d353a"/>
 <path d="m257 83v1h6l-6-1z" fill="#163139"/>
 <path d="m263 83v1h7l-7-1z" fill="#295c69"/>
 <path d="m270 83v1h15l-15-1z" fill="#3c8ca0"/>
 <path d="m285 83v1h6l-6-1z" fill="#295c69"/>
 <path d="m306 83l1 1-1-1z" fill="#666"/>
 <path d="m405.33 83.667l0.334 0.6666-0.334-0.6666z" fill="#327081"/>
 <path d="m88.333 84.667l0.3334 0.6666-0.3334-0.6666z" fill="#295c69"/>
 <path d="m159.67 84.333l0.666 0.3334-0.666-0.3334z" fill="#494d03"/>
 <path d="m167.67 84.333l0.666 0.3334-0.666-0.3334m83 0l0.666 0.3334-0.666-0.3334z" fill="#327081"/>
 <path d="m249 85l17 9.9992 18 7.6108 34-1.61c-10.86-22.824-47.534-19.985-69-16z" fill="#51bcd9"/>
 <path d="m299.67 84.333l0.666 0.3334-0.666-0.3334z" fill="#295c69"/>
 <path d="m307 84l1 1-1-1m70 0l1 1-1-1z" fill="#aaa"/>
 <path d="m238.67 85.333l0.666 0.3334-0.666-0.3334z" fill="#6d7406"/>
 <path d="m308 85l1 1-1-1z" fill="#aaa"/>
 <path d="m78 86v3h1l-1-3z" fill="#a9cbe3"/>
 <path d="m309 86l1 1-1-1m69 0l1 1-1-1z" fill="#aaa"/>
 <path d="m310 87l1 1-1-1z" fill="#666"/>
 <path d="m406 87v3h1l-1-3z" fill="#295c69"/>
 <path d="m80 88v13h1l-1-13z" fill="#163139"/>
 <path d="m87 88v3h1l-1-3z" fill="#3c8ca0"/>
 <path d="m307 88l1 1-1-1z" fill="#295c69"/>
 <path d="m311 88l1 1-1-1z" fill="#666"/>
 <path d="m78 89v3h1l-1-3z" fill="#7f7f7f"/>
 <path d="m312 89l1 1-1-1z" fill="#666"/>
 <path d="m408.33 89.667l0.334 0.6666-0.334-0.6666z" fill="#404241"/>
 <path d="m420 89l1 1-1-1m-107 1l1 1-1-1z" fill="#666"/>
 <path d="m380 90l1 1-1-1m41 0l1 1-1-1z" fill="#7f7f7f"/>
 <path d="m182 91l1 1-1-1z" fill="#295c69"/>
 <path d="m314 91l1 1-1-1z" fill="#666"/>
 <path d="m422 91l1 1-1-1z" fill="#aaa"/>
 <path d="m78 92v3h1l-1-3z" fill="#404241"/>
 <path d="m178 92l1 1-1-1z" fill="#6d7406"/>
 <path d="m315 92l1 1-1-1m66 0l1 1-1-1z" fill="#666"/>
 <path d="m418 92l1 1-1-1z" fill="#525e66"/>
 <path d="m316 93l1 1-1-1z" fill="#aaa"/>
 <path d="m407 93v3h1l-1-3z" fill="#163139"/>
 <path d="m409 93v3h1l-1-3z" fill="#5f7686"/>
 <path d="m317 94l1 1-1-1z" fill="#aaa"/>
 <path d="m188 95l1 1-1-1z" fill="#295c69"/>
 <path d="m261 95l1 1-1-1z" fill="#6d7406"/>
 <path d="m318 95l1 1-1-1z" fill="#aaa"/>
 <path d="m425 95l1 1-1-1z" fill="#666"/>
 <path d="m97 96l1 1-1-1z" fill="#6d7406"/>
 <path d="m319 96l1 1-1-1m107 0l1 1-1-1m-106 1l1 1-1-1z" fill="#aaa"/>
 <path d="m383 97l1 1-1-1z" fill="#666"/>
 <path d="m422 97l1 1-1-1z" fill="#525e66"/>
 <path d="m321 98l1 1-1-1z" fill="#aaa"/>
 <path d="m92 99l1 1-1-1z" fill="#6d7406"/>
 <path d="m428 99l1 1-1-1z" fill="#666"/>
 <path d="m408 100v15h1l-1-15z" fill="#163139"/>
 <path d="m429 100l1 1-1-1z" fill="#aaa"/>
 <path d="m77 101v4h1l-1-4z" fill="#a9cbe3"/>
 <path d="m81.667 101.33l0.6666 0.334-0.6666-0.334m230.33-0.333v1h4l-4-1z" fill="#295c69"/>
 <path d="m425 101l1 1-1-1z" fill="#525e66"/>
 <path d="m299 102v1h4l-4-1z" fill="#3c8ca0"/>
 <path d="m410 102v20h1l-1-20z" fill="#2d353a"/>
 <path d="m86 103l1 1-1-1m107 0l1 1-1-1z" fill="#6d7406"/>
 <path d="m277.67 103.33l0.666 0.334-0.666-0.334z" fill="#295c69"/>
 <path d="m286 103v1h7l-7-1z" fill="#3c8ca0"/>
 <path d="m294 105c9.897 12.641 26.229 15 41 15-6.089-15.393-26.272-21.215-41-15z" fill="#a9cbe3"/>
 <path d="m309 103v1h12l-12-1z" fill="#525e66"/>
 <path d="m431 103l1 1-1-1z" fill="#7f7f7f"/>
 <path d="m251 104l1 1-1-1z" fill="#295c69"/>
 <path d="m277 104c6.521 9.294 14.626 17.178 20.55 27 12.733 21.108 19.22 45.709 22.165 70 1.411 11.643 1.348 23.366 2.455 35 0.47 4.942 0.142 10.415 4.83 13 6.648-10.6 8.448-19.378 12.356-31 2.72-8.09 7.343-15.589 9.126-24 3.983-18.783-2.909-47.45-16.092-61.621-6.467-6.952-18.2-10.73-26.39-15.379-8.74-4.961-18.968-11.496-29-13z" fill="#51bcd9"/>
 <path d="m427 104l1 1-1-1z" fill="#5f7686"/>
 <path d="m75 106l1 1-1-1z" fill="#aaa"/>
 <path d="m294 106l1 1-1-1z" fill="#5f7686"/>
 <path d="m386.33 106.67l0.334 0.666-0.334-0.666z" fill="#8b9194"/>
 <path d="m433 106l1 1-1-1z" fill="#666"/>
 <path d="m74 107l1 1-1-1z" fill="#aaa"/>
 <path d="m73 108l1 1-1-1z" fill="#8b9194"/>
 <path d="m330 108l1 1-1-1z" fill="#666"/>
 <path d="m430 108l1 1-1-1z" fill="#525e66"/>
 <path d="m72 109l1 1-1-1z" fill="#666"/>
 <path d="m259 109l1 1-1-1z" fill="#6d7406"/>
 <path d="m331 109l1 1-1-1m104 0l1 1-1-1m-364 1l1 1-1-1z" fill="#666"/>
 <path d="m300 110l1 1-1-1z" fill="#525e66"/>
 <path d="m332 110l1 1-1-1z" fill="#666"/>
 <path d="m390.33 110.67l0.334 0.666-0.334-0.666z" fill="#163139"/>
 <path d="m70 111l1 1-1-1z" fill="#666"/>
 <path d="m333 111l1 1-1-1z" fill="#8b9194"/>
 <path d="m432 111l1 1-1-1z" fill="#525e66"/>
 <path d="m334 112l1 1-1-1z" fill="#aaa"/>
 <path d="m437 112l1 1-1-1z" fill="#7f7f7f"/>
 <path d="m283 113l4 4-4-4z" fill="#494d03"/>
 <path d="m330 113l1 1-1-1z" fill="#525e66"/>
 <path d="m335 113l1 1-1-1z" fill="#aaa"/>
 <path d="m72 114l1 1-1-1z" fill="#6d7406"/>
 <path d="m259 114l1 1-1-1z" fill="#295c69"/>
 <path d="m263 114l1 1-1-1z" fill="#6d7406"/>
 <path d="m336 114l1 1-1-1m103 1l1 1-1-1z" fill="#aaa"/>
 <path d="m287 116l7 10-7-10z" fill="#010101"/>
 <path d="m311 116l1 1-1-1z" fill="#525e66"/>
 <path d="m333 116l1 1-1-1z" fill="#5f7686"/>
 <path d="m389.33 117.67l0.334 0.666-0.334-0.666z" fill="#aaa"/>
 <path d="m392.33 117.67l0.334 0.666-0.334-0.666z" fill="#327081"/>
 <path d="m440 117l1 1-1-1z" fill="#666"/>
 <path d="m316 119l1 1-1-1z" fill="#5f7686"/>
 <path d="m390 120v3h1l-1-3z" fill="#404241"/>
 <path d="m407 120v4h1l-1-4z" fill="#163139"/>
 <path d="m442 120l1 1-1-1z" fill="#aaa"/>
 <path d="m264 121l1 1-1-1z" fill="#295c69"/>
 <path d="m268 121l1 1-1-1z" fill="#6d7406"/>
 <path d="m330 121v1h5l-5-1z" fill="#295c69"/>
 <path d="m435 121c-2.949 8.718-6.77 17.419-12.039 25-2.633 3.788-8.697 8.363-9.395 13.039-0.786 5.258 5.054 13.097 6.984 17.961 2.239 5.642 2.807 13.139 9.45 15 7.515-6.158 19.903-4.692 26.396-13.326 3.146-4.183 0.378-12.147-0.965-16.674-4.331-14.594-11.04-27.312-17.431-41h-3m-111 1c4.549 8.293 22.943 14.643 32 16-6.227-12.778-19.261-16-32-16z" fill="#51bcd9"/>
 <path d="m443 122l1 1-1-1z" fill="#666"/>
 <path d="m345 123l1 1-1-1z" fill="#8b9194"/>
 <path d="m390 123v3h1l-1-3z" fill="#aaa"/>
 <path d="m393 123v3h1l-1-3z" fill="#254856"/>
 <path d="m212 124l1 1-1-1z" fill="#6d7406"/>
 <path d="m319 124l1 1-1-1z" fill="#295c69"/>
 <path d="m429 124l1 1-1-1z" fill="#525e66"/>
 <path d="m56 125l1 1-1-1z" fill="#666"/>
 <path d="m55 126l1 1-1-1z" fill="#7f7f7f"/>
 <path d="m294 126c3.042 9.612 9.079 18.408 12.564 28 6.435 17.713 9.843 37.246 11.35 56 0.851 10.584-1.255 32.64 7.086 40-4.488-14.352-3.76-29.198-5.17-44-1.438-15.098-4.477-29.448-8.545-44-3.289-11.77-8.082-27.498-17.285-36z" fill="#010101"/>
 <path d="m349 126l1 1-1-1z" fill="#aaa"/>
 <path d="m409.33 126.67l0.334 0.666-0.334-0.666z" fill="#3d3d3d"/>
 <path d="m54 127l1 1-1-1z" fill="#aaa"/>
 <path d="m350 127l1 1-1-1z" fill="#666"/>
 <path d="m391 127v3h1l-1-3z" fill="#525e66"/>
 <path d="m406.33 127.67l0.334 0.666-0.334-0.666z" fill="#163139"/>
 <path d="m446 127l1 1-1-1z" fill="#aaa"/>
 <path d="m394 128v3h1l-1-3z" fill="#327081"/>
 <path d="m409.33 128.67l0.334 0.666-0.334-0.666z" fill="#698f75"/>
 <path d="m447 129l1 1-1-1z" fill="#7f7f7f"/>
 <path d="m354 130l1 1-1-1z" fill="#aaa"/>
 <path d="m51 131l1 1-1-1z" fill="#7f7f7f"/>
 <path d="m270 131l1 1-1-1z" fill="#295c69"/>
 <path d="m355 131l1 1-1-1z" fill="#666"/>
 <path d="m405.33 131.67l0.334 0.666-0.334-0.666z" fill="#295c69"/>
 <path d="m448 131l1 1-1-1z" fill="#666"/>
 <path d="m351 132l1 1-1-1z" fill="#295c69"/>
 <path d="m408.33 132.67l0.334 0.666-0.334-0.666z" fill="#525e66"/>
 <path d="m392 133v3h1l-1-3z" fill="#7f7f7f"/>
 <path d="m424 133l1 1-1-1z" fill="#525e66"/>
 <path d="m449 133l1 1-1-1m-400 1l1 1-1-1z" fill="#666"/>
 <path d="m337 134v2l2-2h-2z" fill="#8a9309"/>
 <path d="m359 134l1 1-1-1m-311 1l1 1-1-1z" fill="#8b9194"/>
 <path d="m334 135l1 1-1-1z" fill="#295c69"/>
 <path d="m404.33 135.67l0.334 0.666-0.334-0.666z" fill="#163139"/>
 <path d="m342 136l1 1-1-1z" fill="#6d7406"/>
 <path d="m363 137l1 1-1-1z" fill="#8b9194"/>
 <path d="m46 138l1 1-1-1z" fill="#666"/>
 <path d="m395 138v12h1l-1-12z" fill="#3c8ca0"/>
 <path d="m50 139l1 1-1-1z" fill="#6d7406"/>
 <path d="m351.67 140.33l0.666 0.334-0.666-0.334z" fill="#254856"/>
 <path d="m367 140l1 1-1-1z" fill="#666"/>
 <path d="m393 140v3h1l-1-3z" fill="#404241"/>
 <path d="m406.33 140.67l0.334 0.666-0.334-0.666z" fill="#698f75"/>
 <path d="m420 140l1 1-1-1z" fill="#525e66"/>
 <path d="m44 141l1 1-1-1z" fill="#666"/>
 <path d="m350.33 141.67l0.334 0.666-0.334-0.666z" fill="#295c69"/>
 <path d="m351 141c2.748 11.699 10.882 21.784 13.576 34 4.572 20.739 1.424 42.072 1.424 63 9.911-1.666 13.614-18.595 15.334-27 4.817-23.537 0.21-68.432-30.334-70z" fill="#51bcd9"/>
 <path d="m370 142l1 1-1-1z" fill="#666"/>
 <path d="m419 142l1 1-1-1z" fill="#525e66"/>
 <path d="m425 142l1 1-1-1z" fill="#295c69"/>
 <path d="m454 142l1 1-1-1z" fill="#aaa"/>
 <path d="m372 143l1 1-1-1z" fill="#8b9194"/>
 <path d="m405 143l1 1-1-1z" fill="#525e66"/>
 <path d="m42 144l1 1-1-1m413 0l1 1-1-1z" fill="#aaa"/>
 <path d="m376 145v1h3l-3-1m-335 1l1 1-1-1z" fill="#7f7f7f"/>
 <path d="m380.67 146.33l0.666 0.334-0.666-0.334z" fill="#8b9194"/>
 <path d="m392.33 146.67l0.334 0.666-0.334-0.666z" fill="#666"/>
 <path d="m456 146l1 1-1-1z" fill="#aaa"/>
 <path d="m281.33 147.67l0.334 0.666-0.334-0.666z" fill="#494d03"/>
 <path d="m373 147v1h4l-4-1z" fill="#a9b209"/>
 <path d="m384.67 147.33l0.666 0.334-0.666-0.334z" fill="#8b9194"/>
 <path d="m40 148l1 1-1-1z" fill="#7f7f7f"/>
 <path d="m388.67 148.33l0.666 0.334-0.666-0.334z" fill="#8b9194"/>
 <path d="m421 148l1 1-1-1z" fill="#295c69"/>
 <path d="m44 149l1 1-1-1z" fill="#6d7406"/>
 <path d="m415 149l1 1-1-1z" fill="#525e66"/>
 <path d="m457 149l1 1-1-1z" fill="#8b9194"/>
 <path d="m39 150l1 1-1-1z" fill="#7f7f7f"/>
 <path d="m282.33 150.67l0.334 0.666-0.334-0.666z" fill="#494d03"/>
 <path d="m402 150l1 1-1-1z" fill="#525e66"/>
 <path d="m395 151v1h4l-4-1z" fill="#163139"/>
 <path d="m38 152l1 1-1-1z" fill="#7f7f7f"/>
 <path d="m382 152v1h5l-5-1m70.333 0.667l0.334 0.666-0.334-0.666z" fill="#3c8ca0"/>
 <path d="m306.33 153.67l0.334 0.666-0.334-0.666z" fill="#a9b209"/>
 <path d="m383 153c10.079 24.622 12.695 48.848 16 75 7.852-2.324 10.407-13.836 12.116-21 4.904-20.558-3.271-53.794-28.116-54z" fill="#51bcd9"/>
 <path d="m390.67 153.33l0.666 0.334-0.666-0.334z" fill="#295c69"/>
 <path d="m37 154l1 1-1-1z" fill="#aaa"/>
 <path d="m394 154v1h3l-3-1z" fill="#3c8ca0"/>
 <path d="m280.33 155.67l0.334 0.666-0.334-0.666m64 0l0.334 0.666-0.334-0.666z" fill="#327081"/>
 <path d="m384 155v3h1l-1-3z" fill="#8a9309"/>
 <path d="m401.67 155.33l0.666 0.334-0.666-0.334z" fill="#494d03"/>
 <path d="m453.33 155.67l0.334 0.666-0.334-0.666z" fill="#3c8ca0"/>
 <path d="m307.33 156.67l0.334 0.666-0.334-0.666z" fill="#a9b209"/>
 <path d="m411 156l1 1-1-1z" fill="#525e66"/>
 <path d="m284.33 157.67l0.334 0.666-0.334-0.666z" fill="#6d7406"/>
 <path d="m413 157l1 1-1-1z" fill="#295c69"/>
 <path d="m121 158v1h8l-8-1z" fill="#6d7406"/>
 <path d="m345.33 158.67l0.334 0.666-0.334-0.666z" fill="#327081"/>
 <path d="m385.33 158.67l0.334 0.666-0.334-0.666z" fill="#669356"/>
 <path d="m454.33 158.67l0.334 0.666-0.334-0.666z" fill="#3c8ca0"/>
 <path d="m35 159l1 1-1-1z" fill="#aaa"/>
 <path d="m117.67 159.33l0.666 0.334-0.666-0.334z" fill="#494d03"/>
 <path d="m114 161v1c14.397-1.819 20.921 5.471 34 8-6.022-11.166-23.211-13.041-34-9z" fill="#010101"/>
 <path d="m131.67 159.33l0.666 0.334-0.666-0.334z" fill="#8a9309"/>
 <path d="m281.33 159.67l0.334 0.666-0.334-0.666m131 0l0.334 0.666-0.334-0.666z" fill="#327081"/>
 <path d="m461.33 160.67l0.334 0.666-0.334-0.666z" fill="#525e66"/>
 <path d="m117 161v1h3l-3-1m9 0v1h3l-3-1z" fill="#8a9309"/>
 <path d="m285.33 161.67l0.334 0.666-0.334-0.666z" fill="#6d7406"/>
 <path d="m346.33 161.67l0.334 0.666-0.334-0.666z" fill="#327081"/>
 <path d="m348.33 161.67l0.334 0.666-0.334-0.666z" fill="#6d7406"/>
 <path d="m358.33 161.67l0.334 0.666-0.334-0.666z" fill="#a9b209"/>
 <path d="m386.33 161.67l0.334 0.666-0.334-0.666z" fill="#8a9309"/>
 <path d="m34 162l1 1-1-1z" fill="#8b9194"/>
 <path d="m114.67 162.33l0.666 0.334-0.666-0.334z" fill="#8a9309"/>
 <path d="m311.33 162.67l0.334 0.666-0.334-0.666z" fill="#163139"/>
 <path d="m282.33 163.67l0.334 0.666-0.334-0.666z" fill="#295c69"/>
 <path d="m377.33 163.67l0.334 0.666-0.334-0.666z" fill="#3c8ca0"/>
 <path d="m387 163v3h1l-1-3z" fill="#669356"/>
 <path d="m414 163l1 1-1-1z" fill="#295c69"/>
 <path d="m462 163l1 1-1-1z" fill="#8b9194"/>
 <path d="m359.33 164.67l0.334 0.666-0.334-0.666z" fill="#a9b209"/>
 <path d="m33.333 165.67l0.3334 0.666-0.3334-0.666z" fill="#525e66"/>
 <path d="m138 165l1 1-1-1z" fill="#6d7406"/>
 <path d="m347.33 165.67l0.334 0.666-0.334-0.666z" fill="#327081"/>
 <path d="m349.33 165.67l0.334 0.666-0.334-0.666z" fill="#494d03"/>
 <path d="m456.33 165.67l0.334 0.666-0.334-0.666z" fill="#327081"/>
 <path d="m145 166l1 1-1-1z" fill="#6d7406"/>
 <path d="m286 166v3h1l-1-3z" fill="#8a9309"/>
 <path d="m310 166v3h1l-1-3z" fill="#6d7406"/>
 <path d="m362.33 166.67l0.334 0.666-0.334-0.666z" fill="#163139"/>
 <path d="m378.33 166.67l0.334 0.666-0.334-0.666z" fill="#3c8ca0"/>
 <path d="m388 166v3h1l-1-3z" fill="#669356"/>
 <path d="m463.33 166.67l0.334 0.666-0.334-0.666z" fill="#525e66"/>
 <path d="m36.333 167.67l0.3334 0.666-0.3334-0.666z" fill="#a9b209"/>
 <path d="m238.33 167.67l0.334 0.666-0.334-0.666z" fill="#163139"/>
 <path d="m360 167v3h1l-1-3z" fill="#6d7406"/>
 <path d="m381.33 167.67l0.334 0.666-0.334-0.666z" fill="#494d03"/>
 <path d="m32.333 168.67l0.3334 0.666-0.3334-0.666z" fill="#666"/>
 <path d="m350.33 168.67l0.334 0.666-0.334-0.666z" fill="#8a9309"/>
 <path d="m117 169v1h9l-9-1z" fill="#393c03"/>
 <path d="m126 169v1h3l-3-1z" fill="#8a9309"/>
 <path d="m148 169l-2 1v1l2-2z" fill="#393c03"/>
 <path d="m348 169v3h1l-1-3z" fill="#295c69"/>
 <path d="m379.33 169.67l0.334 0.666-0.334-0.666z" fill="#327081"/>
 <path d="m389.33 169.67l0.334 0.666-0.334-0.666z" fill="#669356"/>
 <path d="m464.33 169.67l0.334 0.666-0.334-0.666z" fill="#666"/>
 <path d="m103 193h3c0.482-3.216 1.318-6.126 2.905-9 11.295-20.449 29.884-4.008 44.095 2-5.909-12.407-29.797-21.97-41.985-13.347-6.764 4.786-7.951 12.635-8.015 20.347z" fill="#010101"/>
 <path d="m283 170v4h1l-1-4z" fill="#3c8ca0"/>
 <path d="m311.33 170.67l0.334 0.666-0.334-0.666z" fill="#6d7406"/>
 <path d="m363.33 170.67l0.334 0.666-0.334-0.666z" fill="#163139"/>
 <path d="m457.33 170.67l0.334 0.666-0.334-0.666z" fill="#3c8ca0"/>
 <path d="m361.33 171.67l0.334 0.666-0.334-0.666z" fill="#6d7406"/>
 <path d="m382.33 171.67l0.334 0.666-0.334-0.666z" fill="#494d03"/>
 <path d="m407.67 171.33l0.666 0.334-0.666-0.334z" fill="#6d7406"/>
 <path d="m31.333 172.67l0.3334 0.666-0.3334-0.666z" fill="#666"/>
 <path d="m408 172v3h1l-1-3z" fill="#295c69"/>
 <path d="m287 173v6h1l-1-6z" fill="#6d7406"/>
 <path d="m351 173v3h1l-1-3z" fill="#8a9309"/>
 <path d="m380 173v3h1l-1-3z" fill="#327081"/>
 <path d="m390 173v3h1l-1-3z" fill="#669356"/>
 <path d="m465.33 173.67l0.334 0.666-0.334-0.666z" fill="#666"/>
 <path d="m34.333 174.67l0.3334 0.666-0.3334-0.666m82.667-0.667v1h11l-11-1z" fill="#a9b209"/>
 <path d="m128.67 174.33l0.666 0.334-0.666-0.334m183.67 0.334l0.334 0.666-0.334-0.666z" fill="#494d03"/>
 <path d="m364.33 174.67l0.334 0.666-0.334-0.666m93.667-0.667v3h1l-1-3z" fill="#295c69"/>
 <path d="m132.67 175.33l0.666 0.334-0.666-0.334z" fill="#6d7406"/>
 <path d="m315.33 175.67l0.334 0.666-0.334-0.666z" fill="#295c69"/>
 <path d="m383 175v3h1l-1-3z" fill="#6d7406"/>
 <path d="m30.333 176.67l0.3334 0.666-0.3334-0.666z" fill="#7f7f7f"/>
 <path d="m114 176l1 1-1-1z" fill="#6d7406"/>
 <path d="m241.33 176.67l0.334 0.666-0.334-0.666z" fill="#163139"/>
 <path d="m362.33 176.67l0.334 0.666-0.334-0.666z" fill="#494d03"/>
 <path d="m391.33 176.67l0.334 0.666-0.334-0.666z" fill="#669356"/>
 <path d="m420.33 176.67l0.334 0.666-0.334-0.666z" fill="#163139"/>
 <path d="m466 176l1 1-1-1z" fill="#8b9194"/>
 <path d="m284 177v4h1l-1-4z" fill="#163139"/>
 <path d="m349 177v4h1l-1-4z" fill="#295c69"/>
 <path d="m381 177v3h1l-1-3z" fill="#254856"/>
 <path d="m409 177l1 1-1-1z" fill="#295c69"/>
 <path d="m33 178v3h1l-1-3m206.33 0.667l0.334 0.666-0.334-0.666m122.67-0.667v3h1l-1-3z" fill="#8a9309"/>
 <path d="m391.33 178.67l0.334 0.666-0.334-0.666z" fill="#a9b209"/>
 <path d="m410 178l1 1-1-1z" fill="#163139"/>
 <path d="m287 179v9h1l-1-9z" fill="#393c03"/>
 <path d="m313.33 179.67l0.334 0.666-0.334-0.666z" fill="#494d03"/>
 <path d="m365 179v6h1l-1-6z" fill="#295c69"/>
 <path d="m467.33 179.67l0.334 0.666-0.334-0.666z" fill="#525e66"/>
 <path d="m144 180l1 1-1-1z" fill="#6d7406"/>
 <path d="m316 180v3h1l-1-3z" fill="#327081"/>
 <path d="m384 180v4h1l-1-4z" fill="#393c03"/>
 <path d="m392 180v3h1l-1-3z" fill="#698f75"/>
 <path d="m460 180c-7.466 2.033-13.416 8.181-21 10.64-3.113 1.01-8.988 0.086-11.397 2.133-2.365 2.011-2.313 9.204-1 11.793 1.398 2.755 5.754 2.648 8.397 3.009 6.373 0.87 23.665 0.517 27.958-5.303 3.096-4.197-2.312-17.273-2.958-22.272z" fill="#a9cbe3"/>
 <path d="m284 181v12h1l-1-12z" fill="#295c69"/>
 <path d="m349 181v8h1l-1-8z" fill="#3c8ca0"/>
 <path d="m352 181v8h1l-1-8z" fill="#a9b209"/>
 <path d="m460 181v3h1l-1-3z" fill="#5f7686"/>
 <path d="m29 182v3h1l-1-3z" fill="#666"/>
 <path d="m32 182v3h1l-1-3z" fill="#494d03"/>
 <path d="m240.33 182.67l0.334 0.666-0.334-0.666m170.67-0.667v3h1l-1-3z" fill="#8a9309"/>
 <path d="m152 183l1 1-1-1z" fill="#6d7406"/>
 <path d="m243.33 183.67l0.334 0.666-0.334-0.666z" fill="#163139"/>
 <path d="m453 183l1 1-1-1m15 0v3h1l-1-3z" fill="#525e66"/>
 <path d="m153.33 184.67l0.334 0.666-0.334-0.666z" fill="#a9b209"/>
 <path d="m363 184v6h1l-1-6m-49 1v4h1l-1-4z" fill="#6d7406"/>
 <path d="m393 185v3h1l-1-3z" fill="#698f75"/>
 <path d="m450 185l1 1-1-1z" fill="#525e66"/>
 <path d="m241.33 186.67l0.334 0.666-0.334-0.666z" fill="#6d7406"/>
 <path d="m382 186v19h1l-1-19z" fill="#3c8ca0"/>
 <path d="m385 186v5h1l-1-5z" fill="#6d7406"/>
 <path d="m461 186v3h1l-1-3z" fill="#5f7686"/>
 <path d="m28 187v6h1l-1-6z" fill="#666"/>
 <path d="m317 187v3h1l-1-3m95 0v4h1l-1-4z" fill="#254856"/>
 <path d="m421.33 187.67l0.334 0.666-0.334-0.666z" fill="#6d7406"/>
 <path d="m469 187v3h1l-1-3z" fill="#aaa"/>
 <path d="m102 188v4h1l-1-4z" fill="#494d03"/>
 <path d="m287 188v4h1l-1-4z" fill="#a9b209"/>
 <path d="m31 189v5h1l-1-5z" fill="#6d7406"/>
 <path d="m106 189v3h1l-1-3z" fill="#8a9309"/>
 <path d="m349 189v4h1l-1-4z" fill="#295c69"/>
 <path d="m363 190v5h1l-1-5z" fill="#a9b209"/>
 <path d="m394 190v7h1l-1-7z" fill="#669356"/>
 <path d="m242.33 191.67l0.334 0.666-0.334-0.666z" fill="#494d03"/>
 <path d="m315 191v3h1l-1-3z" fill="#6d7406"/>
 <path d="m366 191v6h1l-1-6z" fill="#295c69"/>
 <path d="m385 191v6h1l-1-6z" fill="#393c03"/>
 <path d="m412 191v5h1l-1-5z" fill="#669356"/>
 <path d="m434 191v1h3l-3-1z" fill="#404241"/>
 <path d="m462 191v3h1l-1-3z" fill="#5f7686"/>
 <path d="m318.33 192.67l0.334 0.666-0.334-0.666z" fill="#295c69"/>
 <path d="m351 192v3h1l-1-3z" fill="#494d03"/>
 <path d="m422 192v3h1l-1-3z" fill="#6d7406"/>
 <path d="m426 192l1 1-1-1z" fill="#525e66"/>
 <path d="m31 194v4h1l-1-4z" fill="#a9b209"/>
 <path d="m286 194v3h1l-1-3z" fill="#6d7406"/>
 <path d="m348.33 194.67l0.334 0.666-0.334-0.666z" fill="#163139"/>
 <path d="m425 194v12h1l-1-12z" fill="#525e66"/>
 <path d="m470 194v3h1l-1-3z" fill="#666"/>
 <path d="m246.33 195.67l0.334 0.666-0.334-0.666z" fill="#295c69"/>
 <path d="m422 195v4h1l-1-4z" fill="#a9b209"/>
 <path d="m27 196v5h1l-1-5z" fill="#a9cbe3"/>
 <path d="m413 196l-1 7h1v-7z" fill="#698f75"/>
 <path d="m463.33 196.67l0.334 0.666-0.334-0.666z" fill="#5f7686"/>
 <path d="m243 197v3h1l-1-3z" fill="#6d7406"/>
 <path d="m366 197v16h1l-1-16z" fill="#163139"/>
 <path d="m395 197v6h1l-1-6z" fill="#669356"/>
 <path d="m316 198v6h1l-1-6z" fill="#8a9309"/>
 <path d="m247 199v3h1l-1-3z" fill="#327081"/>
 <path d="m285.33 199.67l0.334 0.666-0.334-0.666z" fill="#8a9309"/>
 <path d="m319 199v5h1l-1-5z" fill="#163139"/>
 <path d="m385 199v6h1l-1-6z" fill="#393c03"/>
 <path d="m464 200v3h1l-1-3z" fill="#525e66"/>
 <path d="m471 200v3h1l-1-3z" fill="#666"/>
 <path d="m27 201v12h1l-1-12z" fill="#7f7f7f"/>
 <path d="m244 203v3h1l-1-3z" fill="#494d03"/>
 <path d="m412 203l-8 24c6.146-4.758 11.187-16.334 8-24z" fill="#010101"/>
 <path d="m37 204v1h5l-5-1z" fill="#494d03"/>
 <path d="m248.33 204.67l0.334 0.666-0.334-0.666z" fill="#3c8ca0"/>
 <path d="m458.67 204.33l0.666 0.334-0.666-0.334z" fill="#3d3d3d"/>
 <path d="m385 205v4h1l-1-4z" fill="#a9b209"/>
 <path d="m396 205v8h1l-1-8z" fill="#669356"/>
 <path d="m462 205v1h3l-3-1z" fill="#295c69"/>
 <path d="m472.33 205.67l0.334 0.666-0.334-0.666z" fill="#a9cbe3"/>
 <path d="m36 206v1h4l-4-1z" fill="#6d7406"/>
 <path d="m248 206v3h1l-1-3z" fill="#163139"/>
 <path d="m317 206v7h1l-1-7m105 0v7h1l-1-7z" fill="#6d7406"/>
 <path d="m426.67 206.33l0.666 0.334-0.666-0.334z" fill="#5f7686"/>
 <path d="m451.67 206.33l0.666 0.334-0.666-0.334z" fill="#3d3d3d"/>
 <path d="m459.67 206.33l0.666 0.334-0.666-0.334z" fill="#3c8ca0"/>
 <path d="m418 238c17.064 2.938 26.822 16.433 45 15 3.61-15.791 3.268-30.935 2-47l-25 3.91-13.397 0.118-2.074 8.972-6.529 19z" fill="#51bcd9"/>
 <path d="m465 206v5h1l-1-5z" fill="#3c8ca0"/>
 <path d="m42.667 207.33l0.6666 0.334-0.6666-0.334z" fill="#6d7406"/>
 <path d="m430 207l-5 3 5-3z" fill="#3c8ca0"/>
 <path d="m431 207v1h4l-4-1z" fill="#8b9194"/>
 <path d="m445.67 207.33l0.666 0.334-0.666-0.334z" fill="#525e66"/>
 <path d="m455.67 207.33l0.666 0.334-0.666-0.334z" fill="#327081"/>
 <path d="m472 207v3h1l-1-3z" fill="#7f7f7f"/>
 <path d="m450 208v1h3l-3-1z" fill="#254856"/>
 <path d="m320 209v4h1l-1-4m90.333 0.667l0.334 0.666-0.334-0.666z" fill="#295c69"/>
 <path d="m436 209v1h4l-4-1z" fill="#163139"/>
 <path d="m446 209v1h3l-3-1z" fill="#3c8ca0"/>
 <path d="m245 210v3h1l-1-3z" fill="#6d7406"/>
 <path d="m381.33 210.67l0.334 0.666-0.334-0.666z" fill="#254856"/>
 <path d="m412 210v3h1l-1-3z" fill="#6d7406"/>
 <path d="m472.33 210.67l0.334 0.666-0.334-0.666z" fill="#404241"/>
 <path d="m384 211v3h1l-1-3z" fill="#6d7406"/>
 <path d="m249.33 212.67l0.334 0.666-0.334-0.666z" fill="#295c69"/>
 <path d="m363 212v9h1l-1-9z" fill="#a9b209"/>
 <path d="m27 213v4h1l-1-4z" fill="#a9cbe3"/>
 <path d="m320 213v4h1l-1-4z" fill="#163139"/>
 <path d="m366 213v8h1l-1-8m14.333 1.667l0.334 0.666-0.334-0.666z" fill="#295c69"/>
 <path d="m343.33 215.67l0.334 0.666-0.334-0.666z" fill="#8a9309"/>
 <path d="m408.33 215.67l0.334 0.666-0.334-0.666z" fill="#163139"/>
 <path d="m421.33 215.67l0.334 0.666-0.334-0.666z" fill="#6d7406"/>
 <path d="m424 215v6h1l-1-6z" fill="#3c8ca0"/>
 <path d="m466 215v5h1l-1-5z" fill="#295c69"/>
 <path d="m473 215v3h1l-1-3z" fill="#a9cbe3"/>
 <path d="m246.33 216.67l0.334 0.666-0.334-0.666z" fill="#494d03"/>
 <path d="m318 216v8h1l-1-8z" fill="#6d7406"/>
 <path d="m383.33 216.67l0.334 0.666-0.334-0.666z" fill="#a9b209"/>
 <path d="m397 216v6h1l-1-6z" fill="#669356"/>
 <path d="m36 217l1 1-1-1z" fill="#6d7406"/>
 <path d="m246 218v3h1l-1-3z" fill="#8a9309"/>
 <path d="m379.33 218.67l0.334 0.666-0.334-0.666z" fill="#163139"/>
 <path d="m473 218v4h1l-1-4z" fill="#7f7f7f"/>
 <path d="m342.33 219.67l0.334 0.666-0.334-0.666z" fill="#8a9309"/>
 <path d="m250 220v5h1l-1-5z" fill="#163139"/>
 <path d="m466 220v13h1l-1-13z" fill="#3c8ca0"/>
 <path d="m28.333 221.67l0.3334 0.666-0.3334-0.666z" fill="#404241"/>
 <path d="m275.33 221.67l0.334 0.666-0.334-0.666z" fill="#a9b209"/>
 <path d="m321 221v4h1l-1-4z" fill="#3c8ca0"/>
 <path d="m363 221v9h1l-1-9z" fill="#6d7406"/>
 <path d="m366 221v6h1l-1-6z" fill="#3c8ca0"/>
 <path d="m397.33 222.67l0.334 0.666-0.334-0.666z" fill="#8a9309"/>
 <path d="m473 222v14h1l-1-14z" fill="#404241"/>
 <path d="m28.333 223.67l0.3334 0.666-0.3334-0.666z" fill="#7f7f7f"/>
 <path d="m247 223v3h1l-1-3z" fill="#6d7406"/>
 <path d="m341.33 223.67l0.334 0.666-0.334-0.666z" fill="#8a9309"/>
 <path d="m274 224v3h1l-1-3z" fill="#494d03"/>
 <path d="m398 224l1 1-1-1z" fill="#2d353a"/>
 <path d="m28.333 225.67l0.3334 0.666-0.3334-0.666z" fill="#a9cbe3"/>
 <path d="m271.33 225.67l0.334 0.666-0.334-0.666z" fill="#163139"/>
 <path d="m321 225v4h1l-1-4z" fill="#295c69"/>
 <path d="m32 226v3h1l-1-3z" fill="#494d03"/>
 <path d="m251 226v3h1l-1-3z" fill="#327081"/>
 <path d="m403 226l-1 3 1-3z" fill="#494d03"/>
 <path d="m319 227v10h1l-1-10z" fill="#6d7406"/>
 <path d="m340.33 227.67l0.334 0.666-0.334-0.666z" fill="#8a9309"/>
 <path d="m248.33 228.67l0.334 0.666-0.334-0.666z" fill="#494d03"/>
 <path d="m336 228v6h1l-1-6z" fill="#295c69"/>
 <path d="m378 228l1 1-1-1z" fill="#6d7406"/>
 <path d="m400.67 228.33l0.666 0.334-0.666-0.334z" fill="#0d1767"/>
 <path d="m29 229v3h1l-1-3z" fill="#525e66"/>
 <path d="m130 229v1h4l-4-1z" fill="#393c03"/>
 <path d="m121 241c5.806-1.307 11.479-6.503 17.001-6.773 13.695-0.669 25.805 17.861 26.999 29.773 6.093-14.938-12.348-30.889-25-34.072-8.683-2.184-17.948 1.623-19 11.072z" fill="#010101"/>
 <path d="m138.67 229.33l0.666 0.334-0.666-0.334z" fill="#a9b209"/>
 <path d="m270 229v3h1l-1-3z" fill="#254856"/>
 <path d="m321 229v4h1l-1-4z" fill="#163139"/>
 <path d="m400.67 229.33l0.666 0.334-0.666-0.334z" fill="#a9b209"/>
 <path d="m363 230v8h1l-1-8z" fill="#393c03"/>
 <path d="m33.333 231.67l0.3334 0.666-0.3334-0.666m305.67-0.667v3h1l-1-3z" fill="#6d7406"/>
 <path d="m273 232v3h1l-1-3z" fill="#8a9309"/>
 <path d="m365 232v5h1l-1-5z" fill="#163139"/>
 <path d="m419.33 232.67l0.334 0.666-0.334-0.666z" fill="#327081"/>
 <path d="m466 233v4h1l-1-4z" fill="#295c69"/>
 <path d="m134 234l1 1-1-1z" fill="#666"/>
 <path d="m128 242c18.332 5.977 27.317 30.618 6 40 5.389 19.143 25.444 5.482 30.696-6 5.302-11.592-4.811-29.605-13.697-36.471-8.114-6.27-17.742-7.57-22.999 2.471z" fill="#fff"/>
 <path d="m140.67 234.33l0.666 0.334-0.666-0.334z" fill="#666"/>
 <path d="m249.33 234.67l0.334 0.666-0.334-0.666z" fill="#8a9309"/>
 <path d="m252 234v3h1l-1-3z" fill="#295c69"/>
 <path d="m269 234v5h1l-1-5z" fill="#3c8ca0"/>
 <path d="m30.333 235.67l0.3334 0.666-0.3334-0.666m113.67-0.667l1 1-1-1z" fill="#666"/>
 <path d="m34.333 236.67l0.3334 0.666-0.3334-0.666z" fill="#494d03"/>
 <path d="m131 236l1 1-1-1z" fill="#666"/>
 <path d="m146 236l1 1-1-1z" fill="#7f7f7f"/>
 <path d="m272 236v3h1l-1-3z" fill="#494d03"/>
 <path d="m473.33 236.67l0.334 0.666-0.334-0.666m-324.33 1.333l1 1-1-1z" fill="#aaa"/>
 <path d="m250.33 238.67l0.334 0.666-0.334-0.666z" fill="#8a9309"/>
 <path d="m322 238v3h1l-1-3m45 0v1h3l-3-1m51 0v1h4l-4-1z" fill="#295c69"/>
 <path d="m120 239l2 3-2-3z" fill="#8a9309"/>
 <path d="m472 239l1 1-1-1z" fill="#aaa"/>
 <path d="m31.333 240.67l0.3334 0.666-0.3334-0.666z" fill="#8b9194"/>
 <path d="m35.333 240.67l0.3334 0.666-0.3334-0.666z" fill="#494d03"/>
 <path d="m127 240v2l2-2h-2z" fill="#696d33"/>
 <path d="m253 240v3h1l-1-3z" fill="#327081"/>
 <path d="m320 240v4h1l-1-4z" fill="#393c03"/>
 <path d="m153 241l1 1-1-1z" fill="#666"/>
 <path d="m365.67 241.33l0.666 0.334-0.666-0.334z" fill="#8a9309"/>
 <path d="m465 241v3h1l-1-3z" fill="#327081"/>
 <path d="m127 242c3.193 4.684 9.482 5.961 12.892 11.015 7.332 10.868 3.533 28.786-11.892 23.985 2.041-3.755 6.477-4.928 8.106-9.019 2.515-6.313-2.273-22.712-11.789-17.78-4.208 2.182-3.236 11.035-2.741 14.799 1.88 14.324 8.036 22.383 20.424 30l-5 1v1c14.809-2e-3 28.687-10.459 35-24h-6c-5.354 15.754-23.886 26.993-33 8 16.157-1.799 15.676-22.909 7.215-32.786-3.277-3.825-8.499-5.123-13.215-6.214z" fill="#010101"/>
 <path d="m129 242l1 1-1-1m25 0l1 1-1-1z" fill="#666"/>
 <path d="m251.33 242.67l0.334 0.666-0.334-0.666z" fill="#a9b209"/>
 <path d="m409 242l1 1-1-1z" fill="#6d7406"/>
 <path d="m126 243l3 2v-1l-3-1z" fill="#163139"/>
 <path d="m132 243l1 1-1-1m23 0l1 1-1-1z" fill="#666"/>
 <path d="m270 243l1 1-1-1z" fill="#6d7406"/>
 <path d="m415 243v1h3l-3-1m5.667 0.333l0.666 0.334-0.666-0.334z" fill="#a9cbe3"/>
 <path d="m422.67 243.33l0.666 0.334-0.666-0.334z" fill="#666"/>
 <path d="m433 243l1 1-1-1z" fill="#295c69"/>
 <path d="m32 244l1 1-1-1z" fill="#7f7f7f"/>
 <path d="m135 244l1 1-1-1z" fill="#666"/>
 <path d="m426 244l1 1-1-1z" fill="#8b9194"/>
 <path d="m125 245l-1 4c11.802 2.138 19.945 19.758 5 24 0.876 5.246 8.432 7.381 11.825 2.566 9.041-12.83-1.874-29.956-15.825-30.566z" fill="#698f75"/>
 <path d="m130.67 245.33l0.666 0.334-0.666-0.334z" fill="#2d353a"/>
 <path d="m137 245l1 1-1-1z" fill="#7f7f7f"/>
 <path d="m407 245l1 1-1-1z" fill="#6d7406"/>
 <path d="m33 246v3h1l-1-3z" fill="#7f7f7f"/>
 <path d="m431 246l1 1-1-1m37 0l1 1-1-1z" fill="#666"/>
 <path d="m158 247l1 1-1-1z" fill="#7f7f7f"/>
 <path d="m140 248l1 1-1-1z" fill="#666"/>
 <path d="m325 251l4-3-4 3z" fill="#163139"/>
 <path d="m412 248l1 1-1-1m55 0l1 1-1-1z" fill="#666"/>
 <path d="m126.67 249.33l0.666 0.334-0.666-0.334z" fill="#525e66"/>
 <path d="m436 249l1 1-1-1z" fill="#666"/>
 <path d="m160 250l1 1-1-1m251 0l1 1-1-1m55 0l1 1-1-1z" fill="#7f7f7f"/>
 <path d="m34 251l1 1-1-1z" fill="#aaa"/>
 <path d="m142 251l1 1-1-1z" fill="#666"/>
 <path d="m439 251l1 1-1-1z" fill="#aaa"/>
 <path d="m39.333 252.67l0.3334 0.666-0.3334-0.666z" fill="#494d03"/>
 <path d="m161 252l1 1-1-1z" fill="#aaa"/>
 <path d="m410 252l1 1-1-1z" fill="#7f7f7f"/>
 <path d="m441 252l1 1-1-1z" fill="#666"/>
 <path d="m465 252l1 1-1-1z" fill="#aaa"/>
 <path d="m35 253l1 1-1-1z" fill="#7f7f7f"/>
 <path d="m127.67 253.33l0.666 0.334-0.666-0.334z" fill="#404241"/>
 <path d="m143 253l1 1-1-1z" fill="#666"/>
 <path d="m451.67 253.33l0.666 0.334-0.666-0.334z" fill="#327081"/>
 <path d="m458 253v1h3l-3-1z" fill="#3c8ca0"/>
 <path d="m121 254v3h1l-1-3z" fill="#494d03"/>
 <path d="m126 254l1 1-1-1z" fill="#aaa"/>
 <path d="m127 258l3-4-3 4z" fill="#fff"/>
 <path d="m162 254l1 1-1-1z" fill="#666"/>
 <path d="m409 254l1 1-1-1z" fill="#aaa"/>
 <path d="m36 255l1 1-1-1m427 0l1 1-1-1z" fill="#666"/>
 <path d="m129 256l1 1-1-1z" fill="#8b9194"/>
 <path d="m165.33 256.67l0.334 0.666-0.334-0.666z" fill="#6d7406"/>
 <path d="m449 256v1h3l-3-1z" fill="#666"/>
 <path d="m460.67 256.33l0.666 0.334-0.666-0.334m-334.67 0.667l1 1-1-1z" fill="#7f7f7f"/>
 <path d="m128 257l1 1-1-1z" fill="#aaa"/>
 <path d="m145.33 257.67l0.334 0.666-0.334-0.666z" fill="#525e66"/>
 <path d="m454 257v1h4l-4-1z" fill="#a9cbe3"/>
 <path d="m37 258l1 1-1-1z" fill="#aaa"/>
 <path d="m164 259v4h1l-1-4z" fill="#404241"/>
 <path d="m38 260l1 1-1-1z" fill="#aaa"/>
 <path d="m137 260v4h1l-1-4z" fill="#5f7686"/>
 <path d="m143 260v4h1l-1-4z" fill="#254856"/>
 <path d="m146 260v3h1l-1-3z" fill="#8b9194"/>
 <path d="m312 260v3h1l-1-3z" fill="#6d7406"/>
 <path d="m405 261l1 1-1-1z" fill="#666"/>
 <path d="m39 262l1 1-1-1z" fill="#7f7f7f"/>
 <path d="m68 263v1h5l-5-1z" fill="#a9b209"/>
 <path d="m146 263v4h1l-1-4z" fill="#404241"/>
 <path d="m404 263l1 1-1-1m-364 1l1 1-1-1z" fill="#7f7f7f"/>
 <path d="m121 264v7h1l-1-7z" fill="#393c03"/>
 <path d="m165 264l1 1-1-1z" fill="#7f7f7f"/>
 <path d="m75 265l1 1-1-1z" fill="#6d7406"/>
 <path d="m165 265l1 5h1l-2-5z" fill="#010101"/>
 <path d="m403 265l1 1-1-1m-362 1l1 1-1-1z" fill="#7f7f7f"/>
 <path d="m146.33 267.67l0.334 0.666-0.334-0.666z" fill="#8b9194"/>
 <path d="m165.33 267.67l0.334 0.666-0.334-0.666z" fill="#404241"/>
 <path d="m402 267l1 1-1-1z" fill="#aaa"/>
 <path d="m42 268l1 1-1-1z" fill="#7f7f7f"/>
 <path d="m68 269v2c12.172 2.902 19.536 23.18 7 30 2.5584 8.1 13.578 4.276 20 4-2.2608-15.378-8.8534-35.207-27-36z" fill="#fff"/>
 <path d="m73.667 269.33l0.6666 0.334-0.6666-0.334z" fill="#8b9194"/>
 <path d="m142 269v4h1l-1-4z" fill="#254856"/>
 <path d="m401 269l1 1-1-1z" fill="#aaa"/>
 <path d="m43 270l1 1-1-1z" fill="#7f7f7f"/>
 <path d="m317 270c5.085 33.922 49.713 49.22 77 61 9.36 4.041 19.743 10.077 30 11-0.462-22.355-15.912-25.774-34-31.67-14.676-4.783-29.47-9.643-43-17.192-11.049-6.165-18.944-17.982-30-23.138z" fill="#51bcd9"/>
 <path d="m70.667 271.33l0.6666 0.334-0.6666-0.334z" fill="#aaa"/>
 <path d="m78 271l1 1-1-1z" fill="#8b9194"/>
 <path d="m145 271l1 1-1-1z" fill="#666"/>
 <path d="m44 272l1 1-1-1z" fill="#7f7f7f"/>
 <path d="m59 272v3h1l-1-3z" fill="#8a9309"/>
 <path d="m65 275h1l3-2c-2.4122-1.355-3.4324-0.649-4 2z" fill="#254856"/>
 <path d="m171 272l2 2v-2h-2z" fill="#8a9309"/>
 <path d="m66 273c2.8761 8.535 16.464 14.629 5 23v2c9.0787 4.869 11.545-4.214 9.686-12-1.5523-6.499-8.3042-12.068-14.686-13z" fill="#698f75"/>
 <path d="m74 273l1 1-1-1z" fill="#aaa"/>
 <path d="m144 273l1 1-1-1z" fill="#666"/>
 <path d="m45 274l1 1-1-1m30 0l1 1-1-1z" fill="#aaa"/>
 <path d="m128 274v3h1l-1-3z" fill="#254856"/>
 <path d="m165.33 274.67l0.334 0.666-0.334-0.666z" fill="#666"/>
 <path d="m293 274l1 1-1-1z" fill="#6d7406"/>
 <path d="m60 275l1 5h1l-2-5z" fill="#a9b209"/>
 <path d="m46 276l1 1-1-1z" fill="#aaa"/>
 <path d="m142 276l1 1-1-1z" fill="#8b9194"/>
 <path d="m316.33 276.67l0.334 0.666-0.334-0.666z" fill="#6d7406"/>
 <path d="m397 276l1 1-1-1z" fill="#666"/>
 <path d="m77 277l1 1-1-1z" fill="#7f7f7f"/>
 <path d="m84 277l1 1-1-1z" fill="#8b9194"/>
 <path d="m141 277l1 1-1-1m23 0l1 1-1-1z" fill="#666"/>
 <path d="m47 278l1 1-1-1z" fill="#aaa"/>
 <path d="m131 278v1h7l-7-1z" fill="#5f7686"/>
 <path d="m140 278l1 1-1-1m23 0l1 1-1-1m233 0l1 1-1-1z" fill="#666"/>
 <path d="m68 282h1l3-2-4 2z" fill="#3d3d3d"/>
 <path d="m78 279l1 1-1-1z" fill="#666"/>
 <path d="m139 279l1 1-1-1z" fill="#8b9194"/>
 <path d="m162 279l1 1-1-1z" fill="#aaa"/>
 <path d="m69 280l3 3-3-3z" fill="#fff"/>
 <path d="m137 280l1 1-1-1z" fill="#666"/>
 <path d="m161 280l1 1-1-1z" fill="#aaa"/>
 <path d="m320.33 280.67l0.334 0.666-0.334-0.666z" fill="#163139"/>
 <path d="m395 280l1 1-1-1m-315.67 1.667l0.3334 0.666-0.3334-0.666z" fill="#666"/>
 <path d="m126 281l1 1-1-1z" fill="#6d7406"/>
 <path d="m133 283l3-1-3 1z" fill="#7f7f7f"/>
 <path d="m62 282v3h1l-1-3z" fill="#6d7406"/>
 <path d="m69 282l1 1-1-1z" fill="#7f7f7f"/>
 <path d="m164 282l1 1-1-1z" fill="#6d7406"/>
 <path d="m394 282l1 1-1-1m-306 1l1 1-1-1m70 1l1 1-1-1z" fill="#666"/>
 <path d="m333 284l1 1-1-1z" fill="#295c69"/>
 <path d="m393 284l1 1-1-1m-304 1l1 1-1-1z" fill="#666"/>
 <path d="m157 285l1 1-1-1z" fill="#7f7f7f"/>
 <path d="m296.67 285.33l0.666 0.334-0.666-0.334z" fill="#295c69"/>
 <path d="m316.33 285.67l0.334 0.666-0.334-0.666z" fill="#8a9309"/>
 <path d="m156 286l1 1-1-1z" fill="#aaa"/>
 <path d="m296 286c1.966 11.028 9.56 21.512 15.139 31 13.164 22.389 24.995 46.965 46.861 62.279 9.563 6.697 38.462 20.549 44 1.721-24.561-13.62-45.381-29.331-63.562-51-13.296-15.848-21.216-38.104-42.438-44z" fill="#51bcd9"/>
 <path d="m392 286l1 1-1-1m-340 1l1 1-1-1z" fill="#666"/>
 <path d="m90 287l2 6h1l-3-6z" fill="#2d353a"/>
 <path d="m136 287l1 1-1-1z" fill="#666"/>
 <path d="m155 287l1 1-1-1z" fill="#aaa"/>
 <path d="m337 287l1 1-1-1z" fill="#295c69"/>
 <path d="m76 288v4h1l-1-4z" fill="#525e66"/>
 <path d="m81 288v8h1l-1-8z" fill="#a9cbe3"/>
 <path d="m154 288l1 1-1-1z" fill="#aaa"/>
 <path d="m391 288l1 1-1-1m-338 1l1 1-1-1z" fill="#666"/>
 <path d="m153 289l1 1-1-1z" fill="#7f7f7f"/>
 <path d="m310 289v1h6l-6-1z" fill="#a9b209"/>
 <path d="m320.15 290.18c-3.787 1.554-2.605 6.065-1.243 8.824 3.831 7.759 9.288 15.103 14.469 22 14.533 19.347 33.189 36.936 53.625 49.946 8.6 5.475 16.622 12.096 27 7.525 9.517-4.191 21.901-22.319 10.606-31.477-7.507-6.087-20.654-8.859-29.606-12.443-15.099-6.045-30.408-13.609-44-22.554-7.785-5.124-15.189-10.651-22-17.032-2.161-2.024-5.408-6.202-8.851-4.789z" fill="#a9cbe3"/>
 <path d="m340 289l1 1-1-1z" fill="#295c69"/>
 <path d="m156 290l1 1-1-1z" fill="#6d7406"/>
 <path d="m390 290l1 1-1-1m-336 1l1 1-1-1m88 0l1 1-1-1m8 0l1 1-1-1z" fill="#666"/>
 <path d="m144 292v1h4l-4-1z" fill="#7f7f7f"/>
 <path d="m389 292l1 1-1-1m-334 1l1 1-1-1z" fill="#666"/>
 <path d="m93 293v3h1l-1-3z" fill="#010101"/>
 <path d="m316.33 293.67l0.334 0.666-0.334-0.666z" fill="#404241"/>
 <path d="m70 297l3-1-3 1z" fill="#525e66"/>
 <path d="m138 295v1h3l-3-1z" fill="#6d7406"/>
 <path d="m93 296v3h1l-1-3z" fill="#7f7f7f"/>
 <path d="m137 297v1h6l-6-1z" fill="#393c03"/>
 <path d="m143.67 297.33l0.666 0.334-0.666-0.334z" fill="#a9b209"/>
 <path d="m57 298l1 1-1-1z" fill="#aaa"/>
 <path d="m111 298v1h9l-9-1z" fill="#6d7406"/>
 <path d="m386 299l1 1-1-1z" fill="#aaa"/>
 <path d="m94.333 300.67l0.3334 0.666-0.3334-0.666z" fill="#a9cbe3"/>
 <path d="m112 300v1h3l-3-1z" fill="#6d7406"/>
 <path d="m115 300v1h8l-8-1z" fill="#a9b209"/>
 <path d="m383.33 300.67l0.334 0.666-0.334-0.666z" fill="#494d03"/>
 <path d="m74.333 301.67l0.3334 0.666-0.3334-0.666z" fill="#aaa"/>
 <path d="m103 301l1 1-1-1z" fill="#6d7406"/>
 <path d="m320 301l1 1-1-1z" fill="#525e66"/>
 <path d="m59 302l1 1-1-1z" fill="#7f7f7f"/>
 <path d="m96 302v3h1l-1-3z" fill="#8a9309"/>
 <path d="m338 303l1 1-1-1z" fill="#5f7686"/>
 <path d="m378.67 303.33l0.666 0.334-0.666-0.334z" fill="#a9b209"/>
 <path d="m384.33 303.67l0.334 0.666-0.334-0.666z" fill="#aaa"/>
 <path d="m60 304l1 1-1-1z" fill="#666"/>
 <path d="m74.333 305.67l0.3334 0.666-0.3334-0.666z" fill="#8a9309"/>
 <path d="m89 305v1h3l-3-1z" fill="#aaa"/>
 <path d="m81 306v1h7l-7-1z" fill="#404241"/>
 <path d="m323 306l1 1-1-1z" fill="#525e66"/>
 <path d="m342 306l1 1-1-1z" fill="#5f7686"/>
 <path d="m387.67 306.33l0.666 0.334-0.666-0.334z" fill="#aaa"/>
 <path d="m61 307l1 1-1-1z" fill="#8b9194"/>
 <path d="m72.667 307.33l0.6666 0.334-0.6666-0.334z" fill="#494d03"/>
 <path d="m391.67 307.33l0.666 0.334-0.666-0.334z" fill="#aaa"/>
 <path d="m110.67 308.33l0.666 0.334-0.666-0.334z" fill="#a9b209"/>
 <path d="m345 308l1 1-1-1z" fill="#525e66"/>
 <path d="m394 308v1h3l-3-1z" fill="#7f7f7f"/>
 <path d="m62.333 309.67l0.3334 0.666-0.3334-0.666z" fill="#aaa"/>
 <path d="m79 309v1h4l-4-1z" fill="#6d7406"/>
 <path d="m83 309v1h5l-5-1m9 0v1h8l-8-1z" fill="#a9b209"/>
 <path d="m113 309v1h3l-3-1m98.667 0.333l0.666 0.334-0.666-0.334z" fill="#6d7406"/>
 <path d="m325 309l1 1-1-1z" fill="#5f7686"/>
 <path d="m398.67 309.33l0.666 0.334-0.666-0.334z" fill="#8b9194"/>
 <path d="m73.667 310.33l0.6666 0.334-0.6666-0.334z" fill="#494d03"/>
 <path d="m107 310v1h3l-3-1m10.667 0.333l0.666 0.334-0.666-0.334z" fill="#6d7406"/>
 <path d="m323 310l1 1-1-1z" fill="#295c69"/>
 <path d="m348 310l1 1-1-1z" fill="#525e66"/>
 <path d="m390.67 310.33l0.666 0.334-0.666-0.334z" fill="#163139"/>
 <path d="m402.67 310.33l0.666 0.334-0.666-0.334z" fill="#a9cbe3"/>
 <path d="m70.667 311.33l0.6666 0.334-0.6666-0.334m42 0l0.666 0.334-0.666-0.334z" fill="#8a9309"/>
 <path d="m121.67 311.33l0.666 0.334-0.666-0.334z" fill="#a9b209"/>
 <path d="m393.67 311.33l0.666 0.334-0.666-0.334z" fill="#254856"/>
 <path d="m405.67 311.33l0.666 0.334-0.666-0.334z" fill="#aaa"/>
 <path d="m67.667 312.33l0.6666 0.334-0.6666-0.334m57 0l0.666 0.334-0.666-0.334z" fill="#a9b209"/>
 <path d="m327 312l1 1-1-1m24 0l1 1-1-1z" fill="#525e66"/>
 <path d="m408 312l1 1-1-1m-348 1l1 1-1-1z" fill="#666"/>
 <path d="m209 313v5h1l-1-5z" fill="#a9b209"/>
 <path d="m325 313l1 1-1-1z" fill="#295c69"/>
 <path d="m354 314l1 1-1-1z" fill="#5f7686"/>
 <path d="m413 314l1 1-1-1z" fill="#aaa"/>
 <path d="m57 315l1 1-1-1z" fill="#8b9194"/>
 <path d="m329 315l1 1-1-1z" fill="#525e66"/>
 <path d="m56 316l1 1-1-1z" fill="#666"/>
 <path d="m132 316v2h2l-2-2z" fill="#8a9309"/>
 <path d="m208 356l-2-39c-12.432 2.922-14.022 20.51-18.061 31-1.63 4.232-5.032 10.651 0.289 13.817 6.197 3.688 13.923-4.443 19.772-5.817z" fill="#370101"/>
 <path d="m188.67 318.33l0.666 0.334-0.666-0.334z" fill="#6d7406"/>
 <path d="m361 318l1 1-1-1z" fill="#525e66"/>
 <path d="m419 318l1 1-1-1z" fill="#7f7f7f"/>
 <path d="m184 319v1h3l-3-1z" fill="#8a9309"/>
 <path d="m332 319l1 1-1-1z" fill="#525e66"/>
 <path d="m420 319l1 1-1-1z" fill="#666"/>
 <path d="m170.33 320.67l0.334 0.666-0.334-0.666m1.667-0.667v1h9l-9-1z" fill="#a9b209"/>
 <path d="m421 320l1 1-1-1m-370 1l1 1-1-1m371 0l1 1-1-1z" fill="#666"/>
 <path d="m50 322l1 1-1-1m373 0l1 1-1-1z" fill="#aaa"/>
 <path d="m175 323v1h3l-3-1z" fill="#494d03"/>
 <path d="m190 323v1l2 2h1l-3-3z" fill="#8a9309"/>
 <path d="m335 323l1 1-1-1z" fill="#525e66"/>
 <path d="m179 324v1h10l-10-1z" fill="#6d7406"/>
 <path d="m209 328v6h1l-1-6z" fill="#a9b209"/>
 <path d="m340 329l1 1-1-1z" fill="#525e66"/>
 <path d="m385 330l1 1-1-1z" fill="#5f7686"/>
 <path d="m426.33 332.67l0.334 0.666-0.334-0.666z" fill="#aaa"/>
 <path d="m47.333 333.67l0.3334 0.666-0.3334-0.666z" fill="#6d7406"/>
 <path d="m45.333 334.67l0.3334 0.666-0.3334-0.666z" fill="#404241"/>
 <path d="m321 334l1 1-1-1m102.33 0.667l0.334 0.666-0.334-0.666z" fill="#295c69"/>
 <path d="m426.33 334.67l0.334 0.666-0.334-0.666z" fill="#525e66"/>
 <path d="m44.333 338.67l0.3334 0.666-0.3334-0.666z" fill="#a9cbe3"/>
 <path d="m404 338l1 1-1-1z" fill="#5f7686"/>
 <path d="m210 339v3h1l-1-3z" fill="#8a9309"/>
 <path d="m414.67 339.33l0.666 0.334-0.666-0.334z" fill="#3c8ca0"/>
 <path d="m44 340v7h1l-1-7z" fill="#7f7f7f"/>
 <path d="m409 340l1 1-1-1z" fill="#5f7686"/>
 <path d="m351 341l1 1-1-1z" fill="#525e66"/>
 <path d="m414 342l1 1-1-1z" fill="#5f7686"/>
 <path d="m323 343l1 1-1-1z" fill="#6d7406"/>
 <path d="m353 343l1 1-1-1z" fill="#525e66"/>
 <path d="m327 344l1 1-1-1z" fill="#295c69"/>
 <path d="m419 344l1 1-1-1z" fill="#5f7686"/>
 <path d="m211 346v3h1l-1-3z" fill="#8a9309"/>
 <path d="m325 346l1 1-1-1z" fill="#6d7406"/>
 <path d="m424 346l1 1-1-1z" fill="#5f7686"/>
 <path d="m430 346l1 1-1-1z" fill="#7f7f7f"/>
 <path d="m44 347v3h1l-1-3z" fill="#a9cbe3"/>
 <path d="m47 347v3h1l-1-3z" fill="#494d03"/>
 <path d="m48.333 351.67l0.3334 0.666-0.3334-0.666z" fill="#6d7406"/>
 <path d="m432.33 351.67l0.334 0.666-0.334-0.666z" fill="#666"/>
 <path d="m45 352v3h1l-1-3z" fill="#404241"/>
 <path d="m212 352v4h1l-1-4z" fill="#6d7406"/>
 <path d="m365 354l1 1-1-1z" fill="#525e66"/>
 <path d="m44 355l1 1-1-1z" fill="#aaa"/>
 <path d="m49.333 355.67l0.3334 0.666-0.3334-0.666z" fill="#494d03"/>
 <path d="m428 355v7h1l-1-7z" fill="#525e66"/>
 <path d="m433 355v7h1l-1-7z" fill="#7f7f7f"/>
 <path d="m43 356l1 1-1-1z" fill="#8b9194"/>
 <path d="m332 356l1 1-1-1z" fill="#6d7406"/>
 <path d="m42 357l1 1-1-1m-1 1l1 1-1-1z" fill="#666"/>
 <path d="m193 385h-1l-1-7c-9.344 4.861-19.385 30.489-2.996 33.638 6.524 1.254 12.002-5.67 14.672-10.638 7.238-13.466 5.334-28.448 5.324-43-11.41 1.762-14.918 17.185-15 27z" fill="#d30901"/>
 <path d="m40 359l1 1-1-1z" fill="#666"/>
 <path d="m46.667 359.33l0.6666 0.334-0.6666-0.334z" fill="#6d7406"/>
 <path d="m208 359v9h1l-1-9z" fill="#740701"/>
 <path d="m371 359l1 1-1-1z" fill="#525e66"/>
 <path d="m39 360l1 1-1-1z" fill="#aaa"/>
 <path d="m213 360v7h1l-1-7z" fill="#6d7406"/>
 <path d="m154 392c5.004 2.571 9.953 4.904 13.896 9.04 5.068 5.316 6.892 12.34 15.104 12.96-2.815-5.351-7.207-11.682-6.772-18 0.876-12.716 15.987-17.434 17.772-29l-11.91-3.669-7.525 7.669-20.565 21z" fill="#d30901"/>
 <path d="m375 362l1 1-1-1z" fill="#5f7686"/>
 <path d="m37 363l1 1-1-1z" fill="#666"/>
 <path d="m427.33 364.67l0.334 0.666-0.334-0.666z" fill="#3d3d3d"/>
 <path d="m379 365l1 1-1-1z" fill="#525e66"/>
 <path d="m432 365l1 1-1-1z" fill="#666"/>
 <path d="m426 367l1 1-1-1z" fill="#525e66"/>
 <path d="m341.33 368.67l0.334 0.666-0.334-0.666z" fill="#8a9309"/>
 <path d="m53 370l1 1-1-1z" fill="#6d7406"/>
 <path d="m429 371l1 1-1-1m-396 1v3h1l-1-3z" fill="#666"/>
 <path d="m343.67 373.33l0.666 0.334-0.666-0.334z" fill="#8b9194"/>
 <path d="m391 373l1 1-1-1z" fill="#5f7686"/>
 <path d="m208 374v8h1l-1-8z" fill="#740701"/>
 <path d="m342 374l1 1-1-1z" fill="#7f7f7f"/>
 <path d="m345 374l1 1-1-1z" fill="#aaa"/>
 <path d="m420 374l1 1-1-1z" fill="#525e66"/>
 <path d="m427 374l1 1-1-1z" fill="#aaa"/>
 <path d="m394 375l3 2v-1l-3-1z" fill="#254856"/>
 <path d="m426 375l1 1-1-1m-85 1l1 1-1-1z" fill="#aaa"/>
 <path d="m417 376l1 1-1-1z" fill="#5f7686"/>
 <path d="m425 376l1 1-1-1z" fill="#aaa"/>
 <path d="m36 377v10h1l-1-10z" fill="#6d7406"/>
 <path d="m396 377v1l6 2-6-3z" fill="#163139"/>
 <path d="m424 377l1 1-1-1z" fill="#aaa"/>
 <path d="m350 378l1 1-1-1z" fill="#666"/>
 <path d="m339 379l1 1-1-1z" fill="#7f7f7f"/>
 <path d="m351 379l1 1-1-1z" fill="#8b9194"/>
 <path d="m421 379l1 1-1-1z" fill="#666"/>
 <path d="m158 380l1 1-1-1z" fill="#6d7406"/>
 <path d="m407.67 380.33l0.666 0.334-0.666-0.334z" fill="#525e66"/>
 <path d="m33 382v4h1l-1-4z" fill="#7f7f7f"/>
 <path d="m213 382v3h1l-1-3z" fill="#8a9309"/>
 <path d="m337 382l1 1-1-1m18 0l1 1-1-1m60 0l1 1-1-1z" fill="#666"/>
 <path d="m412.67 383.33l0.666 0.334-0.666-0.334z" fill="#aaa"/>
 <path d="m330 384l1 1-1-1z" fill="#6d7406"/>
 <path d="m409.67 384.33l0.666 0.334-0.666-0.334z" fill="#aaa"/>
 <path d="m335 385l1 1-1-1z" fill="#666"/>
 <path d="m359 385l1 1-1-1z" fill="#8b9194"/>
 <path d="m405.67 385.33l0.666 0.334-0.666-0.334z" fill="#a9cbe3"/>
 <path d="m398 386l1 1-1-1z" fill="#295c69"/>
 <path d="m404 386l1 1-1-1z" fill="#7f7f7f"/>
 <path d="m212.33 387.67l0.334 0.666-0.334-0.666z" fill="#8a9309"/>
 <path d="m403 387l1 1-1-1z" fill="#666"/>
 <path d="m37.333 388.67l0.3334 0.666-0.3334-0.666z" fill="#8a9309"/>
 <path d="m333 388l1 1-1-1z" fill="#8b9194"/>
 <path d="m364 388l1 1-1-1z" fill="#7f7f7f"/>
 <path d="m402 388l1 1-1-1m-36 1l1 1-1-1z" fill="#666"/>
 <path d="m378 389v1h3l-3-1z" fill="#327081"/>
 <path d="m401 389l1 1-1-1z" fill="#666"/>
 <path d="m206.33 390.67l0.334 0.666-0.334-0.666z" fill="#740701"/>
 <path d="m385 390v1h5l-5-1z" fill="#295c69"/>
 <path d="m400 390l1 1-1-1z" fill="#666"/>
 <path d="m330 392l1 1-1-1z" fill="#aaa"/>
 <path d="m372 392l1 1-1-1m25 0l1 1-1-1z" fill="#666"/>
 <path d="m35.333 393.67l0.3334 0.666-0.3334-0.666z" fill="#a9cbe3"/>
 <path d="m329 393l1 1-1-1z" fill="#666"/>
 <path d="m151 394v1h3l-3-1z" fill="#8a9309"/>
 <path d="m393 394l1 1-1-1z" fill="#666"/>
 <path d="m89.667 395.33l0.6666 0.334-0.6666-0.334z" fill="#a9b209"/>
 <path d="m129.67 395.33l0.666 0.334-0.666-0.334z" fill="#494d03"/>
 <path d="m380 395v1h4l-4-1z" fill="#a9cbe3"/>
 <path d="m384 395v1h5l-5-1z" fill="#7f7f7f"/>
 <path d="m389.67 395.33l0.666 0.334-0.666-0.334z" fill="#a9cbe3"/>
 <path d="m36 396l1 1-1-1z" fill="#666"/>
 <path d="m93.667 396.33l0.6666 0.334-0.6666-0.334z" fill="#6d7406"/>
 <path d="m123 396v1h3l-3-1z" fill="#a9b209"/>
 <path d="m98 397v1h4l-4-1z" fill="#6d7406"/>
 <path d="m102 397v1h4l-4-1m12 0v1h6l-6-1m21.667 0.333l0.666 0.334-0.666-0.334z" fill="#a9b209"/>
 <path d="m160 397l1 1-1-1z" fill="#6d7406"/>
 <path d="m131.67 398.33l0.666 0.334-0.666-0.334z" fill="#8a9309"/>
 <path d="m125.67 399.33l0.666 0.334-0.666-0.334z" fill="#494d03"/>
 <path d="m163 399l1 1-1-1z" fill="#6d7406"/>
 <path d="m324 399l1 1-1-1z" fill="#aaa"/>
 <path d="m94 400v1h3l-3-1m26.667 0.333l0.666 0.334-0.666-0.334z" fill="#8a9309"/>
 <path d="m323 400l1 1-1-1z" fill="#aaa"/>
 <path d="m101 401v1h10l-10-1z" fill="#6d7406"/>
 <path d="m111 401v1h4l-4-1z" fill="#a9b209"/>
 <path d="m322 401l1 1-1-1z" fill="#8b9194"/>
 <path d="m321 402l1 1-1-1m-1 1l1 1-1-1m-280 1l1 1-1-1m279 0l1 1-1-1m-1 1l1 1-1-1z" fill="#666"/>
 <path d="m41 406l1 1-1-1z" fill="#aaa"/>
 <path d="m45 406l1 1-1-1z" fill="#6d7406"/>
 <path d="m317 406l1 1-1-1z" fill="#7f7f7f"/>
 <path d="m316 407l1 1-1-1m-1 1l1 1-1-1m-1 1l1 1-1-1z" fill="#aaa"/>
 <path d="m44 410l1 1-1-1z" fill="#666"/>
 <path d="m187 412v1h4l-4-1z" fill="#740701"/>
 <path d="m53 413l1 1-1-1z" fill="#6d7406"/>
 <path d="m149 415l3-1-3 1z" fill="#a9b209"/>
 <path d="m309 413l1 1-1-1z" fill="#666"/>
 <path d="m150 414v1l7 2-7-3z" fill="#010101"/>
 <path d="m298 414l1 1-1-1z" fill="#6d7406"/>
 <path d="m308 414l1 1-1-1z" fill="#7f7f7f"/>
 <path d="m48 415l1 1-1-1z" fill="#aaa"/>
 <path d="m176 415l1 1-1-1z" fill="#6d7406"/>
 <path d="m49 416l1 1-1-1z" fill="#aaa"/>
 <path d="m187.67 416.33l0.666 0.334-0.666-0.334z" fill="#8a9309"/>
 <path d="m50 417l1 1-1-1z" fill="#aaa"/>
 <path d="m156 417l4 2-4-2z" fill="#393c03"/>
 <path d="m180 417v1h4l-4-1z" fill="#6d7406"/>
 <path d="m51 418l1 1-1-1z" fill="#aaa"/>
 <path d="m303 418l1 1-1-1z" fill="#7f7f7f"/>
 <path d="m52 419l1 1-1-1z" fill="#aaa"/>
 <path d="m159 419c8.556 26.794 64.395 31.25 74 3-15.64 5.691-35.248 21.16-53 13.467-8.418-3.649-12.588-13.362-21-16.467z" fill="#010101"/>
 <path d="m161 419l1 1-1-1m130 0l1 1-1-1m-132 2l1 1-1-1m129 0l1 1-1-1z" fill="#6d7406"/>
 <path d="m299 421l1 1-1-1m-242 2l1 1-1-1m3 2l1 1-1-1z" fill="#7f7f7f"/>
 <path d="m292 426l1 1-1-1z" fill="#8b9194"/>
 <path d="m289 428l1 1-1-1z" fill="#aaa"/>
 <path d="m68 429l1 1-1-1z" fill="#666"/>
 <path d="m70 430l1 1-1-1z" fill="#7f7f7f"/>
 <path d="m72 431l1 1-1-1z" fill="#aaa"/>
 <path d="m284 431l1 1-1-1z" fill="#7f7f7f"/>
 <path d="m210.67 432.33l0.666 0.334-0.666-0.334z" fill="#494d03"/>
 <path d="m77.667 433.33l0.6666 0.334-0.6666-0.334z" fill="#525e66"/>
 <path d="m207.67 433.33l0.666 0.334-0.666-0.334z" fill="#494d03"/>
 <path d="m281 433l1 1-1-1z" fill="#aaa"/>
 <path d="m80 434l1 1-1-1z" fill="#8b9194"/>
 <path d="m100 434v1h3l-3-1z" fill="#8a9309"/>
 <path d="m203.67 434.33l0.666 0.334-0.666-0.334z" fill="#6d7406"/>
 <path d="m279 434l1 1-1-1z" fill="#7f7f7f"/>
 <path d="m83.667 435.33l0.6666 0.334-0.6666-0.334z" fill="#404241"/>
 <path d="m105 435v1h3l-3-1z" fill="#494d03"/>
 <path d="m179.67 435.33l0.666 0.334-0.666-0.334m17.333-0.333v1h3l-3-1z" fill="#a9b209"/>
 <path d="m86.667 436.33l0.6666 0.334-0.6666-0.334z" fill="#525e66"/>
 <path d="m111.67 436.33l0.666 0.334-0.666-0.334m70.333-0.333v1h7l-7-1z" fill="#6d7406"/>
 <path d="m189 436v1h6l-6-1z" fill="#393c03"/>
 <path d="m116 437v1h3l-3-1z" fill="#6d7406"/>
 <path d="m274 437l1 1-1-1z" fill="#aaa"/>
 <path d="m93.667 438.33l0.6666 0.334-0.6666-0.334z" fill="#666"/>
 <path d="m121.67 438.33l0.666 0.334-0.666-0.334z" fill="#6d7406"/>
 <path d="m272 438l1 1-1-1z" fill="#7f7f7f"/>
 <path d="m98.667 439.33l0.6666 0.334-0.6666-0.334z" fill="#404241"/>
 <path d="m126.67 439.33l0.666 0.334-0.666-0.334z" fill="#8a9309"/>
 <path d="m206 439v1h3l-3-1z" fill="#6d7406"/>
 <path d="m270 439l1 1-1-1m-168 1v1h3l-3-1z" fill="#666"/>
 <path d="m130.67 440.33l0.666 0.334-0.666-0.334z" fill="#8a9309"/>
 <path d="m183 440v1h4l-4-1z" fill="#6d7406"/>
 <path d="m187 440v1h5l-5-1m8 0v1h8l-8-1z" fill="#393c03"/>
 <path d="m268 440l1 1-1-1z" fill="#666"/>
 <path d="m106 441v1h3l-3-1z" fill="#aaa"/>
 <path d="m134 441v1h3l-3-1z" fill="#8a9309"/>
 <path d="m112.67 442.33l0.666 0.334-0.666-0.334z" fill="#aaa"/>
 <path d="m114 442v1h3l-3-1z" fill="#525e66"/>
 <path d="m138 442v1h3l-3-1z" fill="#6d7406"/>
 <path d="m119 443v1h3l-3-1z" fill="#aaa"/>
 <path d="m142 443v1h3l-3-1z" fill="#6d7406"/>
 <path d="m124 444v1h4l-4-1z" fill="#7f7f7f"/>
 <path d="m128 444v1h3l-3-1z" fill="#404241"/>
 <path d="m147.67 444.33l0.666 0.334-0.666-0.334z" fill="#a9b209"/>
 <path d="m238.67 444.33l0.666 0.334-0.666-0.334z" fill="#494d03"/>
 <path d="m131 445v1h4l-4-1z" fill="#666"/>
 <path d="m151.67 445.33l0.666 0.334-0.666-0.334z" fill="#8a9309"/>
 <path d="m255.67 445.33l0.666 0.334-0.666-0.334z" fill="#327081"/>
 <path d="m237 452c0.933 3.254 2.468 5.004 5.019 7.27 2.71 2.406 7.458 7.412 11.602 6.022 4.882-1.639 10.13-16.238 4.061-18.939-2.94-1.308-8.722 1.34-11.682 2.125-3.155 0.838-6.055 2.14-9 3.522z" fill="#51bcd9"/>
 <path d="m136.67 446.33l0.666 0.334-0.666-0.334z" fill="#7f7f7f"/>
 <path d="m138.67 446.33l0.666 0.334-0.666-0.334z" fill="#404241"/>
 <path d="m155 446v1h3l-3-1z" fill="#6d7406"/>
 <path d="m231.67 446.33l0.666 0.334-0.666-0.334z" fill="#494d03"/>
 <path d="m252.67 446.33l0.666 0.334-0.666-0.334z" fill="#327081"/>
 <path d="m142.67 447.33l0.666 0.334-0.666-0.334z" fill="#aaa"/>
 <path d="m144 447v1h3l-3-1z" fill="#666"/>
 <path d="m160.67 447.33l0.666 0.334-0.666-0.334m67 0l0.666 0.334-0.666-0.334z" fill="#6d7406"/>
 <path d="m249.67 447.33l0.666 0.334-0.666-0.334z" fill="#3c8ca0"/>
 <path d="m263.33 447.67l0.334 0.666-0.334-0.666z" fill="#525e66"/>
 <path d="m149 448v1h3l-3-1z" fill="#7f7f7f"/>
 <path d="m165.67 448.33l0.666 0.334-0.666-0.334z" fill="#6d7406"/>
 <path d="m223 448v1h3l-3-1z" fill="#494d03"/>
 <path d="m155.67 449.33l0.666 0.334-0.666-0.334z" fill="#525e66"/>
 <path d="m170.67 449.33l0.666 0.334-0.666-0.334z" fill="#494d03"/>
 <path d="m172 449v1h3l-3-1z" fill="#a9b209"/>
 <path d="m217 449v1h3l-3-1z" fill="#8a9309"/>
 <path d="m159.67 450.33l0.666 0.334-0.666-0.334z" fill="#666"/>
 <path d="m177 450v1h6l-6-1m33 0v1h4l-4-1z" fill="#6d7406"/>
 <path d="m260 450v5h1l-1-5z" fill="#295c69"/>
 <path d="m162 451l1 1-1-1z" fill="#666"/>
 <path d="m187 451v1h4l-4-1z" fill="#393c03"/>
 <path d="m191 451v1h12l-12-1z" fill="#6d7406"/>
 <path d="m203 451v1h4l-4-1z" fill="#393c03"/>
 <path d="m237.67 451.33l0.666 0.334-0.666-0.334z" fill="#3c8ca0"/>
 <path d="m264.33 451.67l0.334 0.666-0.334-0.666z" fill="#404241"/>
 <path d="m165 452c3.274 13.941 18.241 29.476 32 33.356 5.962 1.681 14.005 3.515 18-2.356l-22.325-26.062-27.675-4.938z" fill="#51bcd9"/>
 <path d="m168 452v1h3l-3-1z" fill="#327081"/>
 <path d="m236.33 452.67l0.334 0.666-0.334-0.666z" fill="#295c69"/>
 <path d="m174 453v1h3l-3-1z" fill="#327081"/>
 <path d="m221 453v1h6l-6-1z" fill="#525e66"/>
 <path d="m227 453v1h5l-5-1z" fill="#8b9194"/>
 <path d="m194 458c8.667 15.215 19.963 30.77 39 30.996 5.476 0.065 12.326 1.152 15.772-4.105 8.093-12.347-2.926-25.898-14.772-30.693-9.851-3.988-29.984 1.411-40 3.802z" fill="#a9cbe3"/>
 <path d="m182.67 454.33l0.666 0.334-0.666-0.334z" fill="#295c69"/>
 <path d="m213 454v1h4l-4-1z" fill="#5f7686"/>
 <path d="m235 454l8 8 1-1-9-7z" fill="#163139"/>
 <path d="m189 455v1h3l-3-1z" fill="#295c69"/>
 <path d="m206 455v1h3l-3-1z" fill="#404241"/>
 <path d="m199.67 456.33l0.666 0.334-0.666-0.334z" fill="#3d3d3d"/>
 <path d="m201 456v1h3l-3-1z" fill="#5f7686"/>
 <path d="m165.33 457.67l0.334 0.666-0.334-0.666z" fill="#aaa"/>
 <path d="m194.67 457.33l0.666 0.334-0.666-0.334z" fill="#5f7686"/>
 <path d="m258 459l1 1-1-1z" fill="#295c69"/>
 <path d="m166 460l1 1-1-1z" fill="#7f7f7f"/>
 <path d="m263 461l1 1-1-1m-96 1l1 1-1-1z" fill="#8b9194"/>
 <path d="m256 462l1 1-1-1z" fill="#295c69"/>
 <path d="m244 463l1 1-1-1z" fill="#5f7686"/>
 <path d="m261 464l1 1-1-1z" fill="#8b9194"/>
 <path d="m260 466l1 1-1-1z" fill="#aaa"/>
 <path d="m170 467l1 1-1-1m89 1l1 1-1-1m-88 1l1 1-1-1z" fill="#7f7f7f"/>
 <path d="m258.33 470.67l0.334 0.666-0.334-0.666z" fill="#aaa"/>
 <path d="m173 472l1 1-1-1z" fill="#8b9194"/>
 <path d="m251 475v3h1l-1-3z" fill="#5f7686"/>
 <path d="m176 476l1 1-1-1z" fill="#aaa"/>
 <path d="m177 477l1 1-1-1z" fill="#8b9194"/>
 <path d="m256.33 477.67l0.334 0.666-0.334-0.666z" fill="#aaa"/>
 <path d="m178 478l1 1-1-1m1 1l1 1-1-1m1 1l1 1-1-1m1 1l1 1-1-1z" fill="#666"/>
 <path d="m255.33 481.67l0.334 0.666-0.334-0.666z" fill="#a9cbe3"/>
 <path d="m182 482l1 1-1-1z" fill="#8b9194"/>
 <path d="m183 483l1 1-1-1m71.333 1.667l0.334 0.666-0.334-0.666z" fill="#aaa"/>
 <path d="m186 485l1 1-1-1z" fill="#666"/>
 <path d="m196.67 485.33l0.666 0.334-0.666-0.334z" fill="#3c8ca0"/>
 <path d="m217 485l1 1-1-1m31 0l1 1-1-1z" fill="#525e66"/>
 <path d="m199 486v1h3l-3-1z" fill="#327081"/>
 <path d="m219 486l1 1-1-1z" fill="#525e66"/>
 <path d="m189 487l1 1-1-1z" fill="#7f7f7f"/>
 <path d="m191 488l1 1-1-1z" fill="#666"/>
 <path d="m225.67 488.33l0.666 0.334-0.666-0.334m19.333-0.333l1 1-1-1z" fill="#5f7686"/>
 <path d="m252 488l1 1-1-1z" fill="#7f7f7f"/>
 <path d="m193 489l1 1-1-1z" fill="#666"/>
 <path d="m229 489v1h6l-6-1z" fill="#525e66"/>
 <path d="m235 489v1h10l-10-1z" fill="#8b9194"/>
 <path d="m251 489l1 1-1-1z" fill="#666"/>
 <path d="m195.67 490.33l0.666 0.334-0.666-0.334z" fill="#525e66"/>
 <path d="m250 490l1 1-1-1z" fill="#7f7f7f"/>
 <path d="m198.67 491.33l0.666 0.334-0.666-0.334z" fill="#666"/>
 <path d="m202 492v1h3l-3-1z" fill="#8b9194"/>
 <path d="m205 492v1h9l-9-1z" fill="#404241"/>
 <path d="m214.67 492.33l0.666 0.334-0.666-0.334z" fill="#7f7f7f"/>
 <path d="m216 492v1h6l-6-1z" fill="#a9cbe3"/>
 <path d="m222 492v1h3l-3-1z" fill="#7f7f7f"/>
 <path d="m225.67 492.33l0.666 0.334-0.666-0.334z" fill="#404241"/>
 <path d="m246 492l1 1-1-1z" fill="#666"/>
 <path d="m229 493v1h3l-3-1z" fill="#a9cbe3"/>
 <path d="m232 493v1h3l-3-1z" fill="#7f7f7f"/>
 <path d="m235 493v1h7l-7-1z" fill="#404241"/>
 <path d="m242 493v1h3l-3-1z" fill="#8b9194"/>
</svg>
