<?xml version="1.0" encoding="UTF-8"?>
<!DOCTYPE svg  PUBLIC '-//W3C//DTD SVG 1.1//EN'  'http://www.w3.org/Graphics/SVG/1.1/DTD/svg11.dtd'>
<svg width="717pt" height="610pt" version="1.1" viewBox="0 0 717 610" xmlns="http://www.w3.org/2000/svg">
 <path d="m421.05 33.07c16.81-21.98 47.97-31 74.1-22.17 40.68 17.23 81.43 34.35 121.94 52 28.01 11.66 43.89 44.87 38.09 74.2-5.78 20.87-17.37 39.75-23.28 60.51 13.49 6.58 27.49 12.79 39.4 22.04 10.49 15.73-2.93 38.55-21.14 39.66 8.04 26.21 12.55 53.09 13.15 80.5 20.19-0.15 44.07 9.29 49.26 30.94 3.6 21.18-16.34 34.73-32.66 43.18 13.3 11.11 23.9 34.31 7.79 47.83-25.52 19.07-59.7 9.72-88.98 8.77-67.63 48.88-155.25 57.91-236.24 54-62.89-4.92-128.41-21.52-176.58-64.44-30.62-26.56-48.67-66.06-52.06-106.14-15.82 13.46-31.55 27.06-47.08 40.86-1.86 1.35-5.01 5.24-6.95 1.48-11.07-12.85-23.34-24.92-33.03-38.81 21.3-13.86 42.72-27.63 63.41-42.36-33.03 5.49-66.05 10.99-99.2 15.77 0.71-18.71-3.26-37.13-4.17-55.76 32.23 1.28 64.54 2.44 96.63 4.44-29.4-14.06-58.77-28.34-88.53-41.65 7.11-16.21 11.42-33.68 19.92-49.21 35.24 25.18 70.24 50.82 106.06 75.13 0.34-2.17 0.69-4.33 0.99-6.5-12.67-11.89-18.19-30.86-13.48-47.66 12.43 8.85 25.65 16.96 40.42 21.28 36.77-55.34 94.69-93.98 157.06-114.88-13.44-18.2 11.77-35.34 28.63-33.88 12.65 3.32 25.15 7.12 37.32 11.89 10.99-19.77 15.44-42.79 29.21-61.02m12.84 19.84l-0.72 0.27c-3.58 8.22-7.19 16.44-10.48 24.78-3.67 7.71-7.07 15.59-9.72 23.7 67.39 25.72 133.42 55.11 198.86 85.24 4.02-7.61 6.28-16.05 10.29-23.69 3.43-8.71 7.97-17 10.62-25.98 7.49-21.61-5.37-47.15-26.27-55.7-38.26-15.89-76.23-32.5-114.43-48.51-20.45-10.43-47.77-0.06-58.15 19.89m-90.89 80.03c-60.16 17.72-116.51 53.27-153.14 104.81 1.26 0.08 2.52 0.16 3.78 0.23 4.01 1.29 8.15 2.05 12.27 2.96 15.27 4.38 30.96 7.24 46.7 9.25 23.06 6.34 47.71 9.09 70.42 17.79 31.59 9.2 63.29 30.14 70.94 64.1-15.76-21.71-37.59-39.76-63.55-47.55-52.39-14.4-108.03-13.31-159.27-32.72 4.57 10.21 14.73 16.4 23.79 22.25 31.1 16.71 66.44 23.25 100.41 30.75-44.71 0.22-92.28-3.8-130.31-29.87 8.16 14.57 24.27 22.03 39.31 27.74 34.33 12.31 70.88 16.24 107.06 18.63-44.78 6.2-93.62 5-135.37-14.41 37.91 39.41 98.84 28.87 148.08 35.85-45.44 8.02-94.71 10.46-138.02-7.85-12.88-4.84-23.28-14.62-28.62-27.37-4.51 24.52-3.99 50.59 3.52 74.46 9.5 37.49 38.69 67.67 71.99 86.03 69.55 37.12 152.1 41.78 228.92 31.94 37.17-6.03 74.89-15.39 107.27-35.25-10.56-1.97-20.91-6.39-31.69-6.56-16.27-3.72-32.55-8-49.1-10.01-8.43 7.12-20.22 22.56-31.38 13.62-5.62-10.95 9.19-14.74 15.28-20.45 24.25-20.28 12.5-58.99-10.5-75.07-9.74-3.38-5.91-21.61 5.34-15.77 12.27 6.17 20.09 18.21 27.29 29.42 49.34-11.11 97.64-27.44 147.57-36.02-0.24-10.26-1.2-20.5-1.06-30.77-1.48-0.02-4.44-0.07-5.92-0.1-0.02 8.66-0.02 17.32-0.02 25.99-8.33 0.03-16.67 0.01-25 0.01 0.04-8.67 0.04-17.33 0-25.99-9.34-0.05-18.67-0.05-28 0.01-4.99-0.03-10-0.05-14.97-0.06-0.06-8.32-0.06-16.63-0.01-24.94 22.95-0.02 45.91-0.13 68.86 0.13-2.72-12.44-6.49-24.8-11.68-36.41-80.48-29.05-158.72-63.88-236.34-99.76-7.37-3.68-14.72-8.85-22.62-10.78-3.18-2.42-6.6-5.05-10.73-5.35l0.78-0.2c-3.61-2.36-7.79-5.3-12.28-2.71m309.76 222.7c-51.39 10.44-101.83 25.14-152.71 37.6 0.71 5.49 2.22 10.89 2.22 16.47 54.76 4.87 111.98 10.04 165.33-6.11 13.51-5.85 33-14.29 30.76-31.65-7.65-16.42-29.43-20.88-45.6-16.31m10.49 64.69c-53.17 12.64-108.16 6.99-162.09 3.77-1.36 3.41-2.71 6.87-3.14 10.56 56.16 11.39 113.6 29.91 171.04 21.36 21.02-4.47 9.79-31.3-5.81-35.69z"/>
 <path d="m433.89 52.91c10.38-19.95 37.7-30.32 58.15-19.89 38.2 16.01 76.17 32.62 114.43 48.51 20.9 8.55 33.76 34.09 26.27 55.7-3.64-6.63-6.5-13.68-10.65-20.02 6.95-7.97-2.91-16.76-9.51-20.88-11.79-6.25-26.42-12.99-39.8-7.7-29.42-13.38-59.49-25.37-89.16-38.22-16.08-6.99-34.22-4.74-49.73 2.5z" fill="#c3996b"/>
 <path d="m433.89 52.91c15.51-7.24 33.65-9.49 49.73-2.5 29.67 12.85 59.74 24.84 89.16 38.22-3.34 5.46-0.16 11.72 4.39 15.25 12.51 9.94 28.66 16.74 44.92 13.33 4.15 6.34 7.01 13.39 10.65 20.02-2.65 8.98-7.19 17.27-10.62 25.98-66.49-28.38-133.28-56.12-199.43-85.25 3.29-8.34 6.9-16.56 10.48-24.78l0.72-0.27z" fill="#a87c4f"/>
 <path d="m412.97 101.66c2.65-8.11 6.05-15.99 9.72-23.7 66.15 29.13 132.94 56.87 199.43 85.25-4.01 7.64-6.27 16.08-10.29 23.69-65.44-30.13-131.47-59.52-198.86-85.24z" fill="#8a5d3b"/>
 <path d="m572.78 88.63c13.38-5.29 28.01 1.45 39.8 7.7 6.6 4.12 16.46 12.91 9.51 20.88-16.26 3.41-32.41-3.39-44.92-13.33-4.55-3.53-7.73-9.79-4.39-15.25z" fill="#fff"/>
 <path d="m343 132.94c4.49-2.59 8.67 0.35 12.28 2.71l-0.78 0.2c-18.38 5.09-37.65 9.05-54.56 18.14 21.65-4.77 43.3-9.66 65.29-12.79 7.9 1.93 15.25 7.1 22.62 10.78-28.1 3.46-55.5 11.08-81.99 20.95-0.16 0.54-0.47 1.63-0.63 2.18-8.02-14.72-33.87-6.65-28.66 10.65-29.7 13.66-57.97 31.1-82.93 52.22-1.26-0.07-2.52-0.15-3.78-0.23 36.63-51.54 92.98-87.09 153.14-104.81z" fill="#d0ecf4"/>
 <path d="m299.94 153.99c16.91-9.09 36.18-13.05 54.56-18.14 4.13 0.3 7.55 2.93 10.73 5.35-21.99 3.13-43.64 8.02-65.29 12.79z" fill="#feffff"/>
 <path d="m305.86 172.93c26.49-9.87 53.89-17.49 81.99-20.95 77.62 35.88 155.86 70.71 236.34 99.76 5.19 11.61 8.96 23.97 11.68 36.41-22.95-0.26-45.91-0.15-68.86-0.13-0.05 8.31-0.05 16.62 0.01 24.94 4.97 0.01 9.98 0.03 14.97 0.06-0.02 8.65-0.01 17.3 0.03 25.96 9.32 0.03 18.64 0.04 27.97 0.02 8.33 0 16.67 0.02 25-0.01 0-8.67 0-17.33 0.02-25.99 1.48 0.03 4.44 0.08 5.92 0.1-0.14 10.27 0.82 20.51 1.06 30.77-49.93 8.58-98.23 24.91-147.57 36.02-7.2-11.21-15.02-23.25-27.29-29.42-11.25-5.84-15.08 12.39-5.34 15.77 23 16.08 34.75 54.79 10.5 75.07-6.09 5.71-20.9 9.5-15.28 20.45 11.16 8.94 22.95-6.5 31.38-13.62 16.55 2.01 32.83 6.29 49.1 10.01-21.6 8.95-44.71 15.02-68.14 15.8-26.75-5.03-48.02-24.73-74.25-31.42-19.07-5.55-33.14 12.97-51.77 11.28-16.45-2.2-29.57-13.76-45.25-18.13-10.64-4.17-18.87 6.33-29.19 4.6-14.41-4.7-19.87-21.1-33.11-27.41-11.48-5.14-23.22 8.09-33.8 0.2-15.07-8.3-28.49-19.32-40.98-31.08-7.51-23.87-8.03-49.94-3.52-74.46 5.34 12.75 15.74 22.53 28.62 27.37 43.31 18.31 92.58 15.87 138.02 7.85-49.24-6.98-110.17 3.56-148.08-35.85 41.75 19.41 90.59 20.61 135.37 14.41-36.18-2.39-72.73-6.32-107.06-18.63-15.04-5.71-31.15-13.17-39.31-27.74 38.03 26.07 85.6 30.09 130.31 29.87-33.97-7.5-69.31-14.04-100.41-30.75-9.06-5.85-19.22-12.04-23.79-22.25 51.24 19.41 106.88 18.32 159.27 32.72 25.96 7.79 47.79 25.84 63.55 47.55-7.65-33.96-39.35-54.9-70.94-64.1-22.71-8.7-47.36-11.45-70.42-17.79 8.57-12.76 18.51-26.99 16.93-43.11-3.05-8.74-14.97-6.68-21.49-3.18-16.76 8.61-31.06 21.89-42.14 37.04-4.12-0.91-8.26-1.67-12.27-2.96 24.96-21.12 53.23-38.56 82.93-52.22 7.86 15.16 35.99 8.2 28.66-10.65 0.16-0.55 0.47-1.64 0.63-2.18m149.15 118.09c-0.05 8.32-0.05 16.64 0 24.97 1.75 0 5.25 0.01 7 0.02-0.05 8.65-0.05 17.31 0 25.97 12 0.05 23.99 0.05 36 0 8.32 0.08 16.64 0.04 24.98 0 0-8.98 0.01-17.96 0.02-26.94 2.65-0.03 5.31-0.05 7.98-0.08 0.05-7.98 0.03-15.96 0-23.94-25.33-0.04-50.66-0.04-75.98 0z" fill="#5bc9e1"/>
 <path d="m276.57 185.76c-5.21-17.3 20.64-25.37 28.66-10.65 7.33 18.85-20.8 25.81-28.66 10.65z" fill="#fff"/>
 <path d="m248.05 203.9c6.52-3.5 18.44-5.56 21.49 3.18 1.58 16.12-8.36 30.35-16.93 43.11-15.74-2.01-31.43-4.87-46.7-9.25 11.08-15.15 25.38-28.43 42.14-37.04z" fill="#fff"/>
 <path d="m455.01 291.02c25.32-0.04 50.65-0.04 75.98 0 0.03 7.98 0.05 15.96 0 23.94-2.67 0.03-5.33 0.05-7.98 0.08-0.01 8.98-0.02 17.96-0.02 26.94-8.34 0.04-16.66 0.08-24.98 0 0-8.66-0.01-17.31-0.03-25.96-11.99-0.06-23.98-0.04-35.97-0.01-1.75-0.01-5.25-0.02-7-0.02-0.05-8.33-0.05-16.65 0-24.97z"/>
 <path d="m581.99 313.02c9.33-0.06 18.66-0.06 28-0.01 0.04 8.66 0.04 17.32 0 25.99-9.33 0.02-18.65 0.01-27.97-0.02-0.04-8.66-0.05-17.31-0.03-25.96z" fill="#fff"/>
 <path d="m462.01 316.01c11.99-0.03 23.98-0.05 35.97 0.01 0.02 8.65 0.03 17.3 0.03 25.96-12.01 0.05-24 0.05-36 0-0.05-8.66-0.05-17.32 0-25.97z" fill="#fff"/>
 <path d="m652.76 355.64c16.17-4.57 37.95-0.11 45.6 16.31 2.24 17.36-17.25 25.8-30.76 31.65-53.35 16.15-110.57 10.98-165.33 6.11 0-5.58-1.51-10.98-2.22-16.47 50.88-12.46 101.32-27.16 152.71-37.6m18.88 7.69c-5.97 0.76-4.62 10.86 1.38 9.78 10.69 3.06 7.82-14.36-1.38-9.78m-66.5 14.8c-5.69 2.68 1.31 7.04 5.01 5.99 17.34-0.86 41.92 0.47 53.24-14.72-18.93-6.52-40.66 0.79-58.25 8.73z" fill="#f6921e"/>
 <path d="m671.64 363.33c9.2-4.58 12.07 12.84 1.38 9.78-6 1.08-7.35-9.02-1.38-9.78z" fill="#fff"/>
 <path d="m605.14 378.13c17.59-7.94 39.32-15.25 58.25-8.73-11.32 15.19-35.9 13.86-53.24 14.72-3.7 1.05-10.7-3.31-5.01-5.99z" fill="#fff"/>
 <path d="m161 381.99c12.49 11.76 25.91 22.78 40.98 31.08 10.58 7.89 22.32-5.34 33.8-0.2 13.24 6.31 18.7 22.71 33.11 27.41 10.32 1.73 18.55-8.77 29.19-4.6 15.68 4.37 28.8 15.93 45.25 18.13 18.63 1.69 32.7-16.83 51.77-11.28 26.23 6.69 47.5 26.39 74.25 31.42 23.43-0.78 46.54-6.85 68.14-15.8 10.78 0.17 21.13 4.59 31.69 6.56-32.38 19.86-70.1 29.22-107.27 35.25-76.82 9.84-159.37 5.18-228.92-31.94-33.3-18.36-62.49-48.54-71.99-86.03z" fill="#00aeef"/>
 <path d="m663.25 420.33c15.6 4.39 26.83 31.22 5.81 35.69-57.44 8.55-114.88-9.97-171.04-21.36 0.43-3.69 1.78-7.15 3.14-10.56 53.93 3.22 108.92 8.87 162.09-3.77m-40.54 25.01c7.4 10.96 30.82 7.86 40.36 1.62-8.76-9.73-28.36-5.9-40.36-1.62z" fill="#f05a28"/>
 <path d="m622.71 445.34c12-4.28 31.6-8.11 40.36 1.62-9.54 6.24-32.96 9.34-40.36-1.62z" fill="#fff"/>
</svg>
