<?xml version="1.0" encoding="UTF-8" standalone="no"?>
<svg
   xmlns:dc="http://purl.org/dc/elements/1.1/"
   xmlns:cc="http://creativecommons.org/ns#"
   xmlns:rdf="http://www.w3.org/1999/02/22-rdf-syntax-ns#"
   xmlns:svg="http://www.w3.org/2000/svg"
   xmlns="http://www.w3.org/2000/svg"
   xmlns:sodipodi="http://sodipodi.sourceforge.net/DTD/sodipodi-0.dtd"
   xmlns:inkscape="http://www.inkscape.org/namespaces/inkscape"
   width="3000mm"
   height="1861.9095mm"
   viewBox="0 0 3000 1861.9095"
   version="1.1"
   id="svg1015"
   inkscape:version="1.0.1 (3bc2e813f5, 2020-09-07)"
   sodipodi:docname="SharkFinal.svg">
  <defs
     id="defs1009">
    <clipPath
       clipPathUnits="userSpaceOnUse"
       id="clipPath1034">
      <path
         style="fill:#1a9aaa;fill-opacity:1;stroke:#000000;stroke-width:1;stroke-linecap:round;stroke-linejoin:round;stroke-miterlimit:4;stroke-dasharray:none;stroke-opacity:1"
         d="m 56.294801,158.79016 c 32.789464,-0.70667 45.713069,-10.21011 65.468889,-36.25906 4.83255,-6.37194 10.19225,-8.39363 16.07062,-8.88748 9.17129,-0.77049 24.94253,15.3106 35.41168,8.84468 -9.95447,-8.04406 -17.90535,-17.50126 -18.42123,-19.56137 -0.69171,-2.76221 3.16441,-13.966181 10.41625,-33.224286 -13.72652,6.227473 -19.62505,22.563616 -23.7931,28.766006 -5.51917,8.21297 -25.73746,5.64075 -39.53099,3.72776 -8.178631,-7.444375 -7.307353,-32.125466 -7.307353,-32.125466 0,0 -5.356408,2.022901 -9.690341,9.777626 -2.917615,5.2205 -5.228569,10.358665 -5.117585,23.80903 C 50.238898,112.70265 28.7199,129.19478 20.553329,137.10803 2.1941682,154.8977 6.796757,159.85692 56.294801,158.79016 Z"
         id="path1036"
         sodipodi:nodetypes="ssscscsccscss" />
    </clipPath>
    <clipPath
       clipPathUnits="userSpaceOnUse"
       id="clipPath1034-8">
      <path
         style="fill:#1a9aaa;fill-opacity:1;stroke:#000000;stroke-width:1;stroke-linecap:round;stroke-linejoin:round;stroke-miterlimit:4;stroke-dasharray:none;stroke-opacity:1"
         d="m 56.294801,158.79016 c 32.789464,-0.70667 45.713069,-10.21011 65.468889,-36.25906 4.83255,-6.37194 10.19225,-8.39363 16.07062,-8.88748 9.17129,-0.77049 24.94253,15.3106 35.41168,8.84468 -9.95447,-8.04406 -17.90535,-17.50126 -18.42123,-19.56137 -0.69171,-2.76221 3.16441,-13.966181 10.41625,-33.224286 -13.72652,6.227473 -19.62505,22.563616 -23.7931,28.766006 -5.51917,8.21297 -25.73746,5.64075 -39.53099,3.72776 -8.178631,-7.444375 -7.307353,-32.125466 -7.307353,-32.125466 0,0 -5.356408,2.022901 -9.690341,9.777626 -2.917615,5.2205 -5.228569,10.358665 -5.117585,23.80903 C 50.238898,112.70265 28.7199,129.19478 20.553329,137.10803 2.1941682,154.8977 6.796757,159.85692 56.294801,158.79016 Z"
         id="path1036-84"
         sodipodi:nodetypes="ssscscsccscss" />
    </clipPath>
  </defs>
  <sodipodi:namedview
     id="base"
     pagecolor="#ffffff"
     bordercolor="#666666"
     borderopacity="1.0"
     inkscape:pageopacity="0.0"
     inkscape:pageshadow="2"
     inkscape:zoom="0.021296695"
     inkscape:cx="-368.0205"
     inkscape:cy="8109.7884"
     inkscape:document-units="mm"
     inkscape:current-layer="layer1"
     inkscape:document-rotation="0"
     showgrid="false"
     fit-margin-top="0"
     fit-margin-left="0"
     fit-margin-right="0"
     fit-margin-bottom="0"
     inkscape:window-width="1920"
     inkscape:window-height="1017"
     inkscape:window-x="-8"
     inkscape:window-y="-7"
     inkscape:window-maximized="1" />
  <metadata
     id="metadata1012">
    <rdf:RDF>
      <cc:Work
         rdf:about="">
        <dc:format>image/svg+xml</dc:format>
        <dc:type
           rdf:resource="http://purl.org/dc/dcmitype/StillImage" />
        <dc:title></dc:title>
      </cc:Work>
    </rdf:RDF>
  </metadata>
  <g
     inkscape:label="Lager 1"
     inkscape:groupmode="layer"
     id="layer1"
     transform="translate(49.904998,-88.509057)">
    <path
       style="fill:#93a3ac;fill-opacity:1;stroke:#493657;stroke-width:36.4531;stroke-linecap:round;stroke-linejoin:round;stroke-miterlimit:4;stroke-dasharray:none;stroke-opacity:1"
       d="m 1681.2514,1272.6221 c -92.6962,225.417 413.8869,659.5707 413.8869,659.5707 114.6324,-139.5242 -152.1375,-374.6872 -191.9698,-670.8152"
       id="path1023"
       sodipodi:nodetypes="ccc" />
    <g
       id="g1032"
       clip-path="url(#clipPath1034-8)"
       transform="matrix(-18.226545,0,0,18.226545,3125.9969,-1163.7058)">
      <rect
         style="opacity:1;fill:#96b7c0;fill-opacity:1;stroke:#000000;stroke-width:1;stroke-linecap:round;stroke-linejoin:round;stroke-miterlimit:4;stroke-dasharray:none"
         id="rect1040"
         width="177.29742"
         height="104.84179"
         x="4.1650076"
         y="58.501869" />
      <path
         style="fill:#daeaea;fill-opacity:1;stroke:none;stroke-width:0.264583px;stroke-linecap:butt;stroke-linejoin:miter;stroke-opacity:1"
         d="m 20.666083,161.16267 c 0,0 39.713792,-8.33958 63.560311,-21.7962 26.974726,-15.22186 43.031596,-34.19117 56.718996,-29.74974 7.19472,2.33462 32.64041,19.84149 29.88021,32.09087 -9.26876,41.13342 -112.589601,35.52396 -112.589601,35.52396 L 18.63552,172.7668 Z"
         id="path1042"
         sodipodi:nodetypes="csssccc" />
      <circle
         style="opacity:1;fill:#493657;fill-opacity:1;stroke:none;stroke-width:0.943431;stroke-linecap:round;stroke-linejoin:round;stroke-opacity:1"
         id="path1007"
         cx="50.74699"
         cy="141.71426"
         r="2.2892363" />
      <path
         style="fill:none;stroke:#493657;stroke-width:2;stroke-linecap:round;stroke-linejoin:round;stroke-opacity:1"
         d="m 22.661167,160.3422 c 15.171247,-3.01005 23.491023,-5.49923 36.68209,-11.02492"
         id="path1069"
         sodipodi:nodetypes="cc" />
    </g>
    <path
       style="fill:#96b7c0;fill-opacity:1;stroke:#493657;stroke-width:36.4531;stroke-linecap:round;stroke-linejoin:round;stroke-opacity:1"
       d="m 1674.0539,1360.3067 c -409.2398,355.8688 -711.07827,192.6061 -711.07827,192.6061 0,0 266.39807,-101.5614 436.52637,-388.7709"
       id="path1021"
       sodipodi:nodetypes="ccc" />
    <path
       id="path1036-8"
       style="fill:none;fill-opacity:1;stroke:#493657;stroke-width:36.4531;stroke-linecap:round;stroke-linejoin:round;stroke-miterlimit:4;stroke-dasharray:none;stroke-opacity:1"
       d="M 114.22739,106.73395 C 246.40337,457.74263 316.68074,661.95302 304.07326,712.29875 294.67055,749.84744 149.75582,922.21423 -31.679772,1068.8297 159.13668,1186.681 446.59405,893.58307 613.75483,907.62625 c 107.14236,9.00118 204.82609,45.84669 292.90676,161.98515 102.68711,135.3975 195.25171,246.2344 288.96971,335.8565 -119.5689,100.5302 -232.65442,147.4422 -232.65442,147.4422 0,0 161.99352,87.6001 409.52122,-5.4439 188.0445,122.4295 405.0468,176.0785 727.4349,183.0264 902.1783,19.4434 986.0679,-70.9508 651.4439,-395.1949 -148.8486,-144.2312 -541.0607,-444.8208 -1079.8875,-609.68081 2.0228,-245.1536 -40.0966,-338.81143 -93.2747,-433.96311 -78.9927,-141.3418 -176.6219,-178.20419 -176.6219,-178.20419 0,0 15.8765,449.8457 -133.1917,585.53102 -251.4084,34.86702 -619.9167,81.7466 -720.51208,-67.94765 C 471.91987,517.98482 364.41442,220.23928 114.22739,106.73395 Z" />
    <g
       id="g946"
       transform="matrix(-18.226545,0,0,18.226545,3102.3518,-1157.9428)"
       style="opacity:1;mix-blend-mode:normal;fill:none;fill-opacity:1;stroke:#6f9ba7;stroke-opacity:1">
      <path
         style="fill:none;fill-opacity:1;stroke:#6f9ba7;stroke-width:2;stroke-linecap:round;stroke-linejoin:round;stroke-opacity:1"
         d="m 55.557445,129.46862 c 5.01275,5.4717 8.482708,13.58508 7.46866,21.48164"
         id="path1063"
         sodipodi:nodetypes="cc" />
      <path
         style="fill:none;fill-opacity:1;stroke:#6f9ba7;stroke-width:2;stroke-linecap:round;stroke-linejoin:round;stroke-opacity:1"
         d="m 59.563815,126.0144 c 6.10916,7.3118 9.278885,15.37099 8.473675,24.06566"
         id="path1065"
         sodipodi:nodetypes="cc" />
      <path
         style="fill:none;fill-opacity:1;stroke:#6f9ba7;stroke-width:2;stroke-linecap:round;stroke-linejoin:round;stroke-opacity:1"
         d="m 65.661117,124.78076 c 5.46039,6.89226 8.108666,14.41056 7.532171,22.6468"
         id="path1067"
         sodipodi:nodetypes="cc" />
    </g>
  </g>
</svg>
