<?xml version='1.0' encoding='utf-8'?>
<svg xmlns="http://www.w3.org/2000/svg" width="181.61mm" height="181.61mm" clip-rule="evenodd" fill-rule="evenodd" image-rendering="optimizeQuality" shape-rendering="geometricPrecision" text-rendering="geometricPrecision" version="1.1" viewBox="0 0 18161 18161">
 <defs>
  <style type="text/css">
   
    .str0 {stroke:#D7CC75;stroke-width:20}
    .str2 {stroke:#D6A691;stroke-width:20}
    .str1 {stroke:#D7CC75;stroke-width:68.0599}
    .fil6 {fill:none}
    .fil14 {fill:#FEFEFE}
    .fil2 {fill:#FFFBD6}
    .fil13 {fill:#605F54}
    .fil1 {fill:#D7CC75}
    .fil7 {fill:#FCD3C2}
    .fil8 {fill:#F0C5B2}
    .fil11 {fill:#EFBCA5}
    .fil5 {fill:#F1EDCB}
    .fil9 {fill:#D9AB96}
    .fil12 {fill:#D6A691}
    .fil4 {fill:#D6A691}
    .fil10 {fill:#C89C87}
    .fil0 {fill:#706F62}
    .fil3 {fill:#D7CC75;fill-rule:nonzero}
   
  </style>
    <clipPath id="c">
     <path d="m13389 8914s1023-1098 1147-1621c125-524-1373-3561-2543-4140-1171-580-4639-449-5063 0-289 305-692 2352-749 3717-107 2608 2003 599 1890 3500-10 269-94 476-239 608-206 188-767 29-1418-24-1959-159-3110 2266-2280 3029 1283 1181 5441 1835 7105 1035 2379-1143 1785-6287 2150-6104z"/>
    </clipPath>
    <clipPath id="d">
     <path d="m13299 6032c908 0 1644 657 1644 1468s-736 1468-1644 1468c-976 0-1985 309-2800 0-659-251-1312-793-1312-1499 0-705 584-1147 1277-1277 850-160 1856-160 2835-160z"/>
    </clipPath>
 </defs>
   <path class="fil0" d="m3021 11955c215 89 316 335 226 550-89 214-335 315-550 226-160-67-406-507-523-674 201-35 687-169 847-102z"/>
   <path class="fil1 str0" d="m5526 11400s-453-206-946 133-548 2014-1043 1961-324-1131-324-1131c-236 396-320 1386 366 1417 550 25 1012-1400 1062-1691l885-689z"/>
    <path class="fil2" d="m11463 11973c959 0 2435 3994-488 3757-2030-386-931-3504 488-3757z"/>
    <path class="fil3" d="m10969 15763l12-67h-3l258 10 233-13 209-35 185-54 163-72 142-89 122-103 102-118 85-130 68-142 52-151 37-160 21-167 8-172-5-177-17-178-28-180-39-179-48-177-57-173-65-168-71-161-77-153-82-143-86-131-90-118-91-104-92-88-91-70-90-51-88-31-83-11v-68l99 13 100 35 99 56 98 75 97 93 95 108 92 122 88 135 84 146 79 156 73 164 66 171 58 176 49 180 40 183 29 184 17 183 5 181-8 178-23 173-38 167-54 158-72 149-90 138-109 125-129 110-150 94-172 76-193 57-217 35-239 14-265-10-3-1zm3 1l-2-1h-1l3 1zm491-3825v68h6l-128 31-126 46-124 61-121 75-117 87-113 99-108 109-103 119-97 128-91 135-84 142-77 147-69 152-60 155-51 158-42 158-31 160-21 158-11 156 2 154 13 149 26 145 38 139 52 132 65 123 80 115 94 106 110 95 126 83 143 71 159 58 178 43-12 67-185-45-167-60-150-75-133-88-116-100-100-112-85-122-69-131-54-139-40-145-27-151-14-155-1-159 10-161 22-163 32-163 43-163 52-161 62-158 70-156 78-150 86-145 94-139 99-131 106-122 112-113 117-102 121-91 126-78 130-63 133-49 136-33 6-1zm-6 1l3-1h3l-6 1z"/>
   <path class="fil0" d="m10792 15669s349-143 864-131c516 12 480 95 480 95 94 192-415 197-439 111-52 166-926 32-905-75z"/>
    <path class="fil2" d="m14275 6826c-949-396-1849-258-2010 308s477 1346 1426 1742 2196 135 2289-192-757-1462-1705-1858z"/>
    <path class="fil3" d="m12232 7125l18-55 23-52 27-49 31-47 35-44 39-41 43-38 46-35 49-32 53-30 55-26 59-24 61-21 63-18 67-15 68-12 71-9 73-7 75-3 77-1 78 3 80 5 82 9 83 11 84 14 86 18 86 20 88 24 88 26 89 30 89 33 90 36-27 63-87-36-88-32-87-29-86-26-85-23-85-20-83-17-82-14-81-11-79-8-78-5-76-2h-74l-73 3-70 6-67 9-66 12-63 14-60 17-58 20-54 22-52 25-49 27-45 30-42 32-38 34-35 37-32 39-28 42-24 44-20 47-16 49-66-19zm1446 1782l-89-38-87-41-85-43-83-45-80-46-79-49-76-50-73-51-72-53-68-54-66-55-63-57-60-57-57-59-54-59-50-59-48-61-44-61-41-61-37-61-34-62-30-62-26-61-22-62-18-61-14-61-10-61-5-60-1-59 4-59 9-57 13-57 66 19-12 50-8 52-4 54 1 54 5 55 9 56 13 57 17 57 21 58 24 58 29 59 32 59 35 59 40 58 42 59 46 58 49 58 53 58 55 56 59 56 61 55 64 54 67 53 69 52 72 50 75 49 76 47 79 46 82 44 83 42 85 40 87 37-26 63zm2335-213l-15 36-21 35-28 33-33 31-39 29-44 29-49 26-54 26-58 24-62 23-66 21-70 19-74 17-77 16-80 14-82 12-85 10-88 7-89 5-91 2h-92l-94-2-94-6-96-8-95-12-96-14-96-18-95-21-95-25-93-28-93-32-91-36 26-63 89 35 90 31 91 28 92 24 93 20 93 18 94 14 93 11 94 8 92 6 92 2h90l89-2 88-5 85-7 83-10 81-11 78-14 74-15 72-17 67-19 64-20 60-22 55-22 50-24 45-25 40-26 34-26 28-26 22-25 16-26 9-24 66 19zm-1725-1899l90 40 89 43 88 48 87 51 85 55 85 57 82 60 81 62 80 64 77 66 75 68 72 68 70 70 68 70 65 71 62 71 59 71 55 70 53 69 48 69 45 67 42 66 37 63 33 62 29 60 25 57 20 54 15 51 11 49 5 45-1 43-7 39-66-19 5-27 1-32-5-38-9-43-14-46-18-51-23-54-28-57-32-59-36-62-41-64-44-65-47-67-52-68-54-69-58-70-61-69-64-70-66-69-69-69-72-67-73-67-76-65-78-63-79-61-81-58-83-56-84-54-85-50-86-46-86-43-88-38 27-63z"/>
   <path class="fil4" d="m13861 7080c-752-358-1465-333-1593 56-128 388 378 993 1130 1350 752 358 1741 274 1814 49 74-224-599-1098-1351-1455z"/>
   <path class="fil0" d="m12863 4647c283-250 643-629 788-1041 254-723-200-1392-564-1417-496-35-301 458-1331 786-1486 475 162 2506 1107 1672z"/>
   <path class="fil2" d="m13389 8914s1023-1098 1147-1621c125-524-1373-3561-2543-4140-1171-580-4639-449-5063 0-289 305-692 2352-749 3717-107 2608 2003 599 1890 3500-10 269-94 476-239 608-206 188-767 29-1418-24-1959-159-3110 2266-2280 3029 1283 1181 5441 1835 7105 1035 2379-1143 1785-6287 2150-6104z"/>
   <g clip-path="url(#c)">
     <path class="fil5" d="m10093 2785c-1367-77-2891 80-3163 368-289 305-692 2352-749 3717-107 2608 2003 599 1890 3500-10 269-94 476-239 608-206 188-767 29-1418-24-1959-159-3110 2266-2280 3029 947 872 3464 1457 5385 1381 1438-322 2723-1717 2924-3391 202-1685-378-2422-378-2422s347 38 569-1546c207-1477-1443-4339-2541-5220z"/>
   </g>
   <path class="fil6 str1" d="m13389 8914s1023-1098 1147-1621c125-524-1373-3561-2543-4140-1171-580-4639-449-5063 0-289 305-692 2352-749 3717-107 2608 2003 599 1890 3500-10 269-94 476-239 608-206 188-767 29-1418-24-1959-159-3110 2266-2280 3029 1283 1181 5441 1835 7105 1035 2379-1143 1785-6287 2150-6104z"/>
    <path class="fil5" d="m5493 7053c1060-396 2066-258 2246 308s-534 1346-1594 1742-2454 135-2558-192 846-1462 1906-1858z"/>
    <path class="fil3" d="m7771 7351l-64 21-18-49-23-46-27-44-31-42-35-39-40-38-43-34-47-33-51-29-54-28-58-25-62-22-65-20-67-17-71-14-73-12-77-9-78-6-81-3h-83l-86 2-87 5-89 8-90 11-92 15-94 17-94 20-96 23-96 26-98 29-98 32-98 35-24-64 100-35 100-33 99-30 98-26 98-24 96-20 95-18 94-14 93-11 91-9 89-5 88-2h85l84 3 81 7 79 9 76 12 74 15 71 18 68 20 65 24 61 26 59 30 54 32 52 35 47 38 43 41 40 44 34 46 31 50 25 52 20 55zm-1614 1784l-24-64 98-38 95-40 93-42 91-44 89-45 86-48 83-49 80-50 78-52 75-53 72-54 68-55 66-56 62-57 58-57 55-58 52-58 47-59 44-59 40-59 36-58 31-59 28-58 23-58 19-57 14-57 10-56 6-55 1-53-4-53-9-52-13-50 64-21 16 57 9 58 5 59-1 59-6 61-11 61-16 61-20 61-25 62-29 62-33 62-38 61-42 62-45 61-50 61-53 60-56 60-61 59-63 58-67 57-71 57-73 55-76 54-80 53-82 51-85 50-87 49-90 46-93 45-95 43-97 40-99 39zm-2602-213l64-21 11 24 17 25 25 26 32 26 38 27 45 25 50 25 57 24 62 23 67 22 71 20 76 19 80 17 84 15 87 14 90 11 93 10 96 7 98 5 99 2h102l102-2 104-6 104-8 105-11 105-14 105-18 104-21 103-24 102-27 101-31 99-35 24 64-102 35-103 32-104 28-106 25-106 21-107 18-107 14-106 12-106 8-106 6-104 2h-103l-102-2-99-5-98-7-94-10-93-12-89-14-85-15-82-18-78-19-74-21-69-23-65-24-60-25-54-27-49-28-43-29-37-31-31-33-24-35-16-36zm1926-1901l24 64-98 39-97 43-96 46-95 50-94 53-92 56-91 59-89 61-87 64-85 64-82 67-80 68-77 68-75 69-71 70-68 70-65 69-61 69-57 68-53 67-50 66-44 63-41 62-36 60-31 57-26 53-20 51-16 46-10 42-4 38v32l5 26-64 21-9-40v-43l5-46 12-49 17-51 22-55 28-57 32-59 37-62 42-64 46-66 51-67 54-68 59-70 62-70 66-70 69-71 72-71 76-70 78-70 81-69 84-67 86-66 89-64 90-62 92-60 94-57 96-55 97-51 98-47 100-44 100-40z"/>
    <path class="fil5" d="m4298 15371c846 546 1529 369 2212 309 146-13 958-3914-1032-4110-1942-191-2230 3125-1180 3801z"/>
    <path class="fil3" d="m6507 15646l6 68-63 6-64 6-64 7-64 7-65 7-64 7-65 7-65 6-66 6-66 6-66 4-66 3-67 3h-136l-68-2-69-4-70-7-70-8-71-10-71-13-72-15-73-19-74-21-74-24-75-27-75-31-77-34-77-38-78-41-79-46-80-50 37-57 78 49 77 44 76 41 75 37 75 33 73 29 73 27 72 23 71 21 70 17 70 15 69 13 69 10 68 8 68 6 67 4 67 2h132l66-3 65-3 66-4 65-5 64-6 65-7 64-7 65-7 64-7 64-7 65-7 64-6 64-6zm-1033-4042l7-68 183 30 167 50 152 71 137 88 123 105 108 120 96 133 83 144 71 156 60 164 50 171 40 178 31 183 23 186 16 188 8 189 2 189-3 186-8 183-13 178-17 172-20 165-22 155-24 146-25 133-26 121-26 106-25 91-24 74-22 57-23 40-40 26-6-68-9 1 16-28 20-50 23-71 24-89 26-104 25-119 25-132 24-144 22-154 19-163 17-170 12-177 9-181 3-184-2-186-8-187-16-186-22-183-31-179-39-174-49-168-58-159-69-150-80-140-91-127-103-113-116-99-129-84-143-66-158-48-175-28zm-1158 3738l-37 57-98-73-90-89-81-101-72-114-64-124-56-134-46-142-39-150-30-156-22-161-13-166-4-168 4-171 13-171 21-171 31-170 39-167 48-163 57-159 67-153 75-146 85-138 94-129 104-118 114-107 123-94 133-80 142-65 153-48 162-31 171-12 181 8-7 68-173-8-164 12-154 29-144 46-135 61-127 76-117 90-109 102-99 113-91 125-82 133-74 142-64 149-56 155-47 159-38 164-30 166-21 168-13 168-4 167 5 165 12 161 21 158 30 152 37 146 46 138 53 129 61 119 69 107 76 96 83 82 91 68z"/>
   <path class="fil0" d="m5194 15740s359-100 877-132c519-31 479 54 479 54 85 183-427 232-448 148-60 170-935 38-908-70z"/>
    <path class="fil5" d="m8825 11973c1028 0 2612 4282-523 4028-2177-413-999-3757 523-4028z"/>
    <path class="fil3" d="m8295 16035l13-67-3-1 277 11 250-14 224-37 199-58 175-77 152-96 131-111 111-126 91-140 73-152 56-163 39-172 23-179 9-185-6-189-18-192-30-193-42-192-52-190-61-186-69-180-77-173-83-164-88-153-92-141-96-127-98-111-99-95-98-75-97-55-94-34-90-11v-68l106 13 107 38 106 60 105 81 103 99 102 115 98 131 95 144 90 157 85 167 77 176 71 183 62 189 53 193 42 196 31 197 19 196 6 195-9 190-24 185-41 179-58 170-77 159-96 148-117 133-139 118-160 101-184 81-207 61-232 38-257 14-283-11h-4zm4 0h-4 4zm526-4096v68h6l-137 33-136 50-133 65-129 80-126 94-122 106-116 118-110 127-105 137-97 146-91 152-82 158-73 163-65 166-55 169-45 171-34 170-22 170-11 168 1 165 14 161 28 155 41 149 56 142 70 133 86 123 101 114 118 102 135 89 153 77 172 62 191 46-13 67-197-48-179-65-160-80-143-94-124-108-107-119-91-131-74-140-58-148-43-156-29-161-15-167-1-170 11-172 23-175 35-175 46-174 56-173 66-170 75-166 84-161 92-156 100-148 107-141 113-131 120-121 125-109 130-97 135-83 139-69 143-52 145-35 6-1zm-6 1l3-1h3l-6 1z"/>
   <path class="fil0" d="m8038 15922s349-144 865-131c515 12 479 94 479 94 94 193-414 198-439 112-52 166-926 32-905-75z"/>
   <path class="fil0" d="m6514 4465c-293-289-661-723-794-1180-233-801 302-1502 699-1507 541-7 300 516 1399 936 1588 606-327 2715-1304 1751z"/>
   <path class="fil4" d="m12832 7738c430 0 779 388 779 866s-349 866-779 866c-462 0-939 182-1325 0-312-148-621-468-621-884s276-676 604-753c403-95 879-95 1342-95z"/>
   <path class="fil7" d="m13299 6032c908 0 1644 657 1644 1468s-736 1468-1644 1468c-976 0-1985 309-2800 0-659-251-1312-793-1312-1499 0-705 584-1147 1277-1277 850-160 1856-160 2835-160z"/>
   <g clip-path="url(#d)">
     <path class="fil8" d="m12723 8997c-788 68-1569 220-2224-29-659-251-1312-793-1312-1499 0-705 584-1147 1277-1277 565-106 1198-142 1847-154 141 81 320 257 475 639 292 722 280 1887-63 2320z"/>
   </g>
   <path class="fil6 str2" d="m13299 6032c908 0 1644 657 1644 1468s-736 1468-1644 1468c-976 0-1985 309-2800 0-659-251-1312-793-1312-1499 0-705 584-1147 1277-1277 850-160 1856-160 2835-160z"/>
   <circle class="fil9" cx="10774" cy="7061" r="540"/>
   <path class="fil10" d="m10384 7434c-93-97-150-229-150-373 0-145 57-277 150-374 28-6 57-10 87-10 212 0 383 172 383 383 0 212-171 384-383 384-30 0-59-4-87-10z"/>
   <circle class="fil11" cx="14001" cy="7061" r="540"/>
   <path class="fil12" d="m13611 7434c-93-97-150-229-150-373 0-145 57-277 150-374 28-6 57-10 87-10 212 0 383 172 383 383 0 212-171 384-383 384-30 0-59-4-87-10z"/>
   <path class="fil13" d="m9268 5034s50-389 526-436c298-29 769 436-526 436z"/>
   <path class="fil13" d="m12355 4159s-49-389-526-436c-298-29-769 436 526 436z"/>
   <path class="fil5" d="m5756 7054s594-255 1068-361c475-105 1276 309 1460 448 185 139-269 752-517 924s-919 587-919 587l-1092-1598z"/>
   <path class="fil4" d="m6146 7307c752-358 1465-333 1593 56 128 388-378 993-1130 1350-752 358-1741 274-1814 49-74-224 599-1098 1351-1455z"/>
   <ellipse class="fil5" transform="matrix(3.9678 .96985 -.91592 3.2928 5340 13092)" rx="347" ry="525"/>
   <ellipse class="fil5" transform="matrix(3.8996 -.2143 .095216 2.9549 8715.8 13330)" rx="347" ry="525"/>
   <circle class="fil14" cx="9627" cy="5645" r="223"/>
   <circle class="fil14" cx="12656" cy="5498" r="223"/>
   <path class="fil13" d="m9529 5402c116-129 354-104 532 55 177 160 226 394 110 523-117 130-355 105-532-55-22-19-42-40-60-62 15-2 29-6 44-11 106-40 160-158 120-264-38-103-151-156-255-123 10-23 24-44 41-63z"/>
   <path class="fil13" d="m12966 5256c-79-41-174-28-261 25 44 37 72 93 72 156 0 113-92 205-205 205-32 0-63-8-90-21-25 142 20 273 123 327 140 73 333-23 433-215 99-191 67-405-72-477z"/>
  <rect class="fil6" width="18161" height="18161"/>
</svg>